<?xml version="1.0" encoding="UTF-8"?> <svg xmlns="http://www.w3.org/2000/svg" width="280" height="166" viewBox="0 0 280 166" fill="none"><path d="M10.0544 29.3805L49.7824 30.7207C64.0677 30.7985 83.9723 39.5206 96.9057 65.4395C111.998 96.3556 110.464 123.905 102.522 136.711C95.9295 147.153 90.6549 147.376 87.1963 146.083C76.5128 142.089 59.3632 134.302 59.3632 134.302C59.3632 134.302 74.565 99.0621 64.0475 72.0589C51.651 36.4976 9.97338 29.376 9.97338 29.376L10.0544 29.3805Z" fill="#0056FF" stroke="#003DB3" stroke-width="3" stroke-linecap="round" stroke-linejoin="round"></path><path d="M137.139 12.4125L167.273 22.0842C167.273 22.0842 178.483 25.5295 176.063 47.0964C174.113 60.2364 164.572 81.3249 158.527 103.827C155.362 116.9 161.77 131.644 161.77 131.644C161.77 131.644 142.598 128.923 130.861 125.124C124.955 123.212 122.973 115.093 130.703 84.2308C135.267 66.4411 143.68 56.9376 146.239 42.9941C149.738 23.9257 137.139 12.4125 137.139 12.4125Z" fill="#0056FF" stroke="#003DB3" stroke-width="3" stroke-linecap="round" stroke-linejoin="round"></path><path d="M195.32 46.9312C217.111 21.7306 233.873 22.6656 233.873 22.6656C233.873 22.6656 259.522 24.3159 275.337 25.7204C265.43 24.8561 238.465 27.7173 200.053 91.737C177.526 130.145 167.876 136.161 163.218 134.953C149.247 131.328 130.758 124.919 130.758 124.919C137.751 126.656 141.827 122.139 145.737 117.562C161.203 98.023 179.981 64.2011 195.316 47.0122L195.32 46.9312Z" fill="#4D8AFF" stroke="#003DB3" stroke-width="3" stroke-linecap="round" stroke-linejoin="round"></path><path d="M137.138 12.4123L167.273 22.0829C160.853 21.5128 141.992 33.1659 131.972 40.9788C114.344 55.6014 100.116 73.996 91.7042 95.2287C77.8929 130.091 78.038 138.514 87.1945 146.08C78.8002 143.349 70.9638 141.064 59.5663 135.283C53.8676 132.392 49.9197 109.798 69.9675 73.6086C103.466 11.7532 137.057 12.4078 137.057 12.4078L137.138 12.4123Z" fill="#4D8AFF" stroke="#003DB3" stroke-width="3" stroke-linecap="round" stroke-linejoin="round"></path></svg> 