<?xml version="1.0" encoding="UTF-8"?> <svg xmlns="http://www.w3.org/2000/svg" width="450" height="743" viewBox="0 0 450 743" fill="none"><path d="M41.6535 196.819C45.7478 236.123 72.6241 270.441 111.112 283.064C166.846 298.843 214.86 311.719 250.056 320.437C308.08 335.699 327.317 378.795 327.317 378.795C327.317 378.795 308.864 324.558 300.457 298.089C289.082 272.691 248.049 259.185 192.681 245.727C154.711 235.391 108.484 241.025 65.6507 198.611C38.7107 173.923 29.5179 133.367 29.5179 133.367L41.5352 197.006L41.6535 196.819Z" fill="#D6E6FF" stroke="#0056FF" stroke-width="3" stroke-linecap="round" stroke-linejoin="round"></path><path d="M289.881 67.3125C283.43 80.6305 271.363 90.4088 258.812 98.0523C229.247 114.187 196.641 116.904 145.832 123.572C47.2099 138.796 41.9478 199.13 41.9478 199.13L28.2681 135.05C24.2175 119.56 50.694 94.1006 74.9007 82.532C121.963 60.0407 163.513 64.9209 215.422 53.1958C239.79 45.2874 260.347 31.1873 274.284 9.12549L289.881 67.3125Z" fill="#F0F5FF" stroke="#0056FF" stroke-width="3" stroke-linecap="round" stroke-linejoin="round"></path><path d="M145.147 538.357L160.436 613.446C165.164 640.575 188.136 675.622 241.581 691.919C305.223 710.721 357.131 698.996 378.941 679.805C396.688 663.935 395.42 653.838 391.852 647.677C380.83 628.646 360.52 598.537 360.52 598.537C360.52 598.537 298.368 638.702 243.635 627.344C172.022 615.15 145.113 538.205 145.113 538.205L145.147 538.357Z" fill="#D6E6FF" stroke="#0056FF" stroke-width="3" stroke-linecap="round" stroke-linejoin="round"></path><path d="M144.682 536.228L160.452 613.454C157.558 590.767 182.168 544.429 206.884 517.53C231.6 490.631 266.261 475.749 296.291 440.437C326.322 405.125 329 385.174 327.959 381.195C322.051 358.6 300.443 298.075 300.443 298.075C307.646 319.833 297.209 350.316 280.982 372.894C256.965 406.311 227.74 420.501 180.697 464.304C160.66 480.69 141.017 521.615 144.869 536.346L144.682 536.228Z" fill="#F0F5FF" stroke="#0056FF" stroke-width="3" stroke-linecap="round" stroke-linejoin="round"></path></svg> 