<?xml version="1.0" encoding="UTF-8"?> <svg xmlns="http://www.w3.org/2000/svg" width="31" height="167" viewBox="0 0 31 167" fill="none"><path d="M8.57007 144.499V159.535V161.218C8.57007 162.34 11.4876 165.146 15.0783 165.146C18.6691 165.146 21.5866 162.34 21.5866 161.218V159.535V144.499" fill="#E6F0FF"></path><path d="M8.57007 144.499V159.535V161.218C8.57007 162.34 11.4876 165.146 15.0783 165.146C18.6691 165.146 21.5866 162.34 21.5866 161.218V159.535V144.499" stroke="#0047CC" stroke-width="3" stroke-linecap="round" stroke-linejoin="round"></path><path d="M15.0776 113.865C7.55942 113.865 1.5 116.222 1.5 118.578V122.169V126.658V143.602V148.09V151.681C1.5 154.037 7.55942 158.077 15.0776 158.077C22.5958 158.077 28.6553 154.037 28.6553 151.681V148.09V143.602V126.658V122.169V118.578C28.6553 116.222 22.5958 113.865 15.0776 113.865Z" fill="#E6F0FF" stroke="#0047CC" stroke-width="3" stroke-linecap="round" stroke-linejoin="round"></path><path d="M4.41748 44.1412V119.027V119.475C4.41748 123.964 9.13038 125.535 15.0776 125.535C20.9126 125.535 25.7378 123.852 25.7378 119.475V119.027V44.1412" fill="#CCE0FF"></path><path d="M4.41748 44.1412V119.027V119.475C4.41748 123.964 9.13038 125.535 15.0776 125.535C20.9126 125.535 25.7378 123.852 25.7378 119.475V119.027V44.1412" stroke="#0047CC" stroke-width="3" stroke-linecap="round" stroke-linejoin="round"></path><path d="M18.4435 30.6751C18.4435 27.0843 18.4435 5.42742 18.4435 5.42742C18.4435 4.52972 17.8825 1.5 14.965 1.5C11.7108 1.5 11.3742 4.52972 11.3742 5.42742C11.3742 5.42742 11.3742 27.421 11.3742 30.6751C11.3742 33.9293 4.5293 39.8765 4.5293 44.1405C4.5293 46.7214 11.262 48.4046 14.965 48.4046C18.668 48.4046 25.7373 46.7214 25.7373 44.1405C25.7373 39.091 18.4435 34.1537 18.4435 30.6751Z" fill="#E6F0FF" stroke="#0047CC" stroke-width="3" stroke-linecap="round" stroke-linejoin="round"></path><path d="M18.4449 26.1866C18.4449 22.5958 18.4449 5.42742 18.4449 5.42742C18.4449 4.52972 17.8839 1.5 14.9664 1.5C11.7122 1.5 11.3756 4.52972 11.3756 5.42742C11.3756 5.42742 11.3756 22.9325 11.3756 26.1866C11.2634 29.4408 18.4449 29.6652 18.4449 26.1866Z" fill="#E6F0FF" stroke="#0047CC" stroke-width="3" stroke-linecap="round" stroke-linejoin="round"></path></svg> 