<?xml version="1.0" encoding="UTF-8"?> <svg xmlns="http://www.w3.org/2000/svg" width="394" height="207" viewBox="0 0 394 207" fill="none"><path d="M332.385 55.2202C324.834 37.0752 300.265 32.7925 300.265 32.7925C300.265 32.7925 292.489 56.4599 311.761 70.435C322.58 78.3241 335.654 80.6909 335.654 80.6909C335.654 80.6909 336.668 65.4761 332.385 55.2202Z" fill="#7AA3FF" stroke="#0056FF" stroke-width="3" stroke-miterlimit="10" stroke-linecap="round" stroke-linejoin="round"></path><path d="M323.708 60.1793C313.114 42.8232 322.017 21.7479 322.017 21.7479C322.017 21.7479 344.445 31.3275 345.91 54.5442C346.699 67.6176 342.191 79.0005 342.191 79.0005C342.191 79.0005 329.681 69.9843 323.708 60.1793Z" fill="#7AA3FF" stroke="#0056FF" stroke-width="3" stroke-miterlimit="10" stroke-linecap="round" stroke-linejoin="round"></path><path d="M342.078 79.0005C342.078 79.0005 333.4 60.4047 330.132 51.6139C326.863 42.9358 321.904 21.7479 321.904 21.7479" stroke="#0056FF" stroke-width="3" stroke-miterlimit="10" stroke-linecap="round" stroke-linejoin="round"></path><path d="M170.883 44.2865C170.883 44.2865 177.645 39.7784 190.042 39.7784C202.44 39.7784 206.948 45.4135 209.202 49.9216C211.456 54.4297 217.091 89.3674 205.821 102.892C194.55 116.416 187.788 116.416 182.153 116.416C176.518 116.416 166.375 116.416 158.486 113.035C150.597 109.654 142.708 97.2565 139.326 88.2403C135.945 79.2242 133.691 65.6999 137.072 60.0648C140.453 54.4297 143.835 51.0486 152.851 48.7946C161.867 46.5406 170.883 44.2865 170.883 44.2865Z" fill="#5C8DFF" stroke="#0047CC" stroke-width="3" stroke-miterlimit="10" stroke-linecap="round" stroke-linejoin="round"></path><path d="M174.264 53.3037C174.264 49.9226 172.461 42.9351 170.883 37.5254C168.629 29.6362 166.375 22.8741 162.994 17.239C158.373 9.46257 153.978 4.84178 148.343 2.58774C142.708 0.333702 133.692 1.46072 128.056 7.09583C122.421 12.7309 124.675 19.4931 124.675 19.4931C124.675 19.4931 123.548 20.6201 123.548 22.8741C123.548 25.1282 125.802 33.0173 128.056 35.2713C129.183 36.3984 132.565 36.3984 134.819 36.3984C134.819 29.6362 130.31 21.7471 130.31 21.7471C130.31 21.7471 128.056 14.985 132.565 11.6039C137.073 8.22285 140.454 7.09583 144.962 8.22285C148.455 9.12446 153.076 13.1817 156.232 18.366C159.613 24.0011 161.867 30.7633 164.121 38.6524C166.037 45.1891 167.502 52.1766 167.502 54.4307" fill="#5C8DFF"></path><path d="M174.264 53.3037C174.264 49.9226 172.461 42.9351 170.883 37.5254C168.629 29.6362 166.375 22.8741 162.994 17.239C158.373 9.46257 153.978 4.84178 148.343 2.58774C142.708 0.333702 133.692 1.46072 128.056 7.09583C122.421 12.7309 124.675 19.4931 124.675 19.4931C124.675 19.4931 123.548 20.6201 123.548 22.8741C123.548 25.1282 125.802 33.0173 128.056 35.2713C129.183 36.3984 132.565 36.3984 134.819 36.3984C134.819 29.6362 130.31 21.7471 130.31 21.7471C130.31 21.7471 128.056 14.985 132.565 11.6039C137.073 8.22285 140.454 7.09583 144.962 8.22285C148.455 9.12446 153.076 13.1817 156.232 18.366C159.613 24.0011 161.867 30.7633 164.121 38.6524C166.037 45.1891 167.502 52.1766 167.502 54.4307" stroke="#0047CC" stroke-width="3" stroke-miterlimit="10" stroke-linecap="round" stroke-linejoin="round"></path><path d="M182.153 48.7952C182.153 48.7952 179.899 49.9222 177.645 52.1763C175.391 54.4303 172.01 56.6844 167.502 56.6844C162.994 56.6844 157.359 54.4303 157.359 54.4303" stroke="#0047CC" stroke-width="3" stroke-miterlimit="10" stroke-linecap="round" stroke-linejoin="round"></path><path d="M237.49 41.2454C237.49 41.2454 237.49 39.3295 239.406 38.3152C241.322 37.3009 246.281 40.2311 249.211 40.2311C252.141 40.2311 266.905 39.2168 271.864 39.2168C276.823 39.2168 279.753 45.0773 279.753 45.0773C279.753 45.0773 284.712 45.0773 289.558 46.0917C293.841 46.9933 296.433 48.0076 298.462 51.9521C300.49 55.8967 300.378 62.8843 300.378 62.8843C300.378 62.8843 309.281 65.7018 310.746 72.4639C312.549 80.6912 309.281 90.2708 309.281 90.2708C309.281 90.2708 310.295 95.2297 309.281 98.16C308.267 101.09 302.406 104.021 302.406 104.021C302.406 104.021 301.392 110.895 298.462 112.924C295.531 114.84 289.558 115.854 289.558 115.854C289.558 115.854 288.544 122.729 284.599 124.758C280.655 126.674 275.696 122.842 272.766 121.827C269.835 120.813 268.821 121.827 268.821 121.827C268.821 121.827 267.807 126.786 265.891 128.702C264.313 130.28 260.932 131.633 258.002 130.618C255.86 129.942 254.057 128.702 252.141 128.702C248.196 128.702 246.281 132.647 242.336 131.633C236.476 130.167 235.461 125.772 235.461 125.772C232.531 126.786 227.234 127.801 222.726 125.772C215.4 122.391 214.837 116.869 214.837 116.869C214.837 116.869 209.878 116.869 206.948 114.953C204.017 113.037 201.087 109.994 201.087 103.119C201.087 96.244 205.032 90.3835 205.032 90.3835C205.032 90.3835 200.073 86.439 200.073 80.5785C200.073 74.7179 202.778 71.675 202.778 71.675C202.778 71.675 199.058 63.8986 207.962 60.9683C207.962 58.0381 209.878 56.0094 211.906 55.1078C215.851 53.1919 222.275 52.4029 226.67 50.1489C230.502 48.1203 236.475 45.19 237.49 41.2454Z" fill="white" stroke="#0056FF" stroke-width="3" stroke-miterlimit="10" stroke-linecap="round" stroke-linejoin="round"></path><path d="M268.934 121.827C268.934 121.827 269.948 112.923 268.934 104.132C268.145 97.2575 264.989 87.4524 263.073 82.4935C261.158 77.5346 246.394 49.021 246.394 49.021" stroke="#0056FF" stroke-width="3" stroke-miterlimit="10" stroke-linecap="round" stroke-linejoin="round"></path><path d="M242.337 56.009C242.337 56.009 243.351 69.7586 241.322 78.6621C239.632 86.4385 235.349 94.6658 233.433 100.301C231.517 106.161 231.517 111.12 232.419 116.981C233.433 122.841 235.349 125.884 235.349 125.884" stroke="#0056FF" stroke-width="3" stroke-miterlimit="10" stroke-linecap="round" stroke-linejoin="round"></path><path d="M237.49 41.245C237.49 41.245 235.123 52.8533 232.531 58.9392C229.601 65.8141 225.656 70.773 222.726 73.7032C217.767 78.6621 208.976 82.6067 205.032 90.3831" stroke="#0056FF" stroke-width="3" stroke-miterlimit="10" stroke-linecap="round" stroke-linejoin="round"></path><path d="M236.476 43.1594C236.476 43.1594 232.531 55.8948 223.74 61.868C214.95 67.8412 208.976 64.7982 202.102 72.6873" stroke="#0056FF" stroke-width="3" stroke-miterlimit="10" stroke-linecap="round" stroke-linejoin="round"></path><path d="M217.767 57.9244C217.767 57.9244 211.907 59.8403 207.962 60.8546Z" fill="white"></path><path d="M217.767 57.9244C217.767 57.9244 211.907 59.8403 207.962 60.8546" stroke="#0056FF" stroke-width="3" stroke-miterlimit="10" stroke-linecap="round" stroke-linejoin="round"></path><path d="M236.477 63.8975C236.477 63.8975 234.561 72.8009 232.533 77.6471C230.617 82.606 227.574 86.5506 222.728 91.3968C218.783 95.3413 215.853 100.3 214.839 104.132C213.599 108.978 213.824 113.937 214.839 116.867" stroke="#0056FF" stroke-width="3" stroke-miterlimit="10" stroke-linecap="round" stroke-linejoin="round"></path><path d="M289.558 115.966C289.558 115.966 289.558 110.106 286.628 101.202C283.698 92.299 280.767 90.383 277.724 86.4385C274.794 82.4939 265.891 74.6047 265.891 74.6047" stroke="#0056FF" stroke-width="3" stroke-miterlimit="10" stroke-linecap="round" stroke-linejoin="round"></path><path d="M309.28 90.3826C309.28 90.3826 308.266 84.5221 303.758 79.2251C300.49 75.5059 290.234 70.4343 284.711 67.7294C279.527 65.25 267.017 57.9244 267.017 57.9244" stroke="#0056FF" stroke-width="3" stroke-miterlimit="10" stroke-linecap="round" stroke-linejoin="round"></path><path d="M300.377 62.8835C300.377 62.8835 290.572 58.939 281.668 57.023C272.539 54.9944 261.044 50.1482 257.099 48.1196" fill="white"></path><path d="M300.377 62.8835C300.377 62.8835 290.572 58.939 281.668 57.023C272.539 54.9944 261.044 50.1482 257.099 48.1196" stroke="#0056FF" stroke-width="3" stroke-miterlimit="10" stroke-linecap="round" stroke-linejoin="round"></path><path d="M266.002 44.1753C266.002 44.1753 273.892 45.1896 279.752 45.1896Z" fill="white"></path><path d="M266.002 44.1753C266.002 44.1753 273.892 45.1896 279.752 45.1896" stroke="#0056FF" stroke-width="3" stroke-miterlimit="10" stroke-linecap="round" stroke-linejoin="round"></path><path d="M334.301 93.8764C345.505 93.8764 354.587 84.7939 354.587 73.59C354.587 62.3862 345.505 53.3036 334.301 53.3036C323.097 53.3036 314.015 62.3862 314.015 73.59C314.015 84.7939 323.097 93.8764 334.301 93.8764Z" fill="#6BA3FF" stroke="#0056FF" stroke-width="3" stroke-linecap="round" stroke-linejoin="round"></path><path d="M382.764 60.9685C383.328 60.405 383.666 59.7288 384.004 59.0526C385.244 55.2207 384.004 51.1634 382.877 47.7824C381.75 50.0364 379.383 51.6142 377.242 52.2905C375.213 52.9667 373.973 54.9953 373.297 56.3477C373.184 56.3477 372.959 56.235 372.846 56.235C372.846 54.7699 372.621 52.7413 371.607 51.1634C369.353 47.7824 367.099 46.6553 367.099 44.4013C365.972 46.6553 361.463 48.9094 361.463 53.4175C361.463 54.6572 361.576 55.6715 361.914 56.3477C351.32 58.9398 343.431 68.5195 343.431 79.9025C343.431 93.314 354.251 104.133 367.662 104.133C381.074 104.133 391.893 93.314 391.893 79.9025C391.78 72.126 388.287 65.3639 382.764 60.9685Z" fill="#6BA3FF" stroke="#0056FF" stroke-width="3" stroke-linecap="round" stroke-linejoin="round"></path><path d="M367.094 44.8483C365.024 55.2693 370.465 55.4992 369.852 64.3877C372.106 61.0066 378.281 58.3343 378.281 58.3343" stroke="#0056FF" stroke-width="3" stroke-miterlimit="10" stroke-linecap="round" stroke-linejoin="round"></path><path d="M375.855 65.7678C380.304 63.5042 382.528 61.1937 382.528 61.1937" stroke="#0056FF" stroke-width="3" stroke-miterlimit="10" stroke-linecap="round" stroke-linejoin="round"></path><path d="M321.341 116.416C334.101 116.416 344.445 106.072 344.445 93.3119C344.445 80.5519 334.101 70.2079 321.341 70.2079C308.581 70.2079 298.237 80.5519 298.237 93.3119C298.237 106.072 308.581 116.416 321.341 116.416Z" fill="#6BA3FF" stroke="#0056FF" stroke-width="3" stroke-linecap="round" stroke-linejoin="round"></path><path d="M332.752 88.354C334.182 86.7103 333.247 83.5564 330.664 81.3096C328.081 79.0629 324.828 78.574 323.398 80.2177C321.969 81.8614 322.903 85.0152 325.486 87.262C328.069 89.5088 331.322 89.9977 332.752 88.354Z" stroke="#0056FF" stroke-width="3" stroke-linecap="round" stroke-linejoin="round"></path><path d="M353.461 129.942C364.665 129.942 373.748 120.859 373.748 109.655C373.748 98.4514 364.665 89.3689 353.461 89.3689C342.257 89.3689 333.175 98.4514 333.175 109.655C333.175 120.859 342.257 129.942 353.461 129.942Z" fill="#6BA3FF" stroke="#0056FF" stroke-width="3" stroke-linecap="round" stroke-linejoin="round"></path><path d="M361.349 115.289C361.349 115.289 359.095 120.924 355.714 120.924" stroke="#0056FF" stroke-width="3" stroke-linecap="round" stroke-linejoin="round"></path><path d="M82.1862 111.232C92.7676 111.232 101.346 102.654 101.346 92.0727C101.346 81.4913 92.7676 72.9134 82.1862 72.9134C71.6048 72.9134 63.0269 81.4913 63.0269 92.0727C63.0269 102.654 71.6048 111.232 82.1862 111.232Z" fill="#6BA3FF" stroke="#0056FF" stroke-width="3" stroke-miterlimit="10" stroke-linecap="round" stroke-linejoin="round"></path><path d="M115.095 102.893C127.855 102.893 138.199 92.5486 138.199 79.7886C138.199 67.0287 127.855 56.6847 115.095 56.6847C102.335 56.6847 91.9907 67.0287 91.9907 79.7886C91.9907 92.5486 102.335 102.893 115.095 102.893Z" fill="#6BA3FF" stroke="#0056FF" stroke-width="3" stroke-miterlimit="10" stroke-linecap="round" stroke-linejoin="round"></path><path d="M146.09 83.7335C141.582 80.3524 138.2 79.2254 134.819 80.3524C137.073 71.8998 132.565 71.3363 128.057 66.8282C125.803 70.2092 119.041 69.0822 121.07 75.1681C108.334 75.1681 97.9658 85.5367 97.9658 98.2721C97.9658 111.007 108.334 121.376 121.07 121.376C133.805 121.376 144.174 111.007 144.174 98.2721C144.174 96.6942 144.061 95.2291 143.723 93.764C146.09 91.6226 146.202 87.5654 146.09 83.7335Z" fill="#6BA3FF" stroke="#0056FF" stroke-width="3" stroke-linecap="round" stroke-linejoin="round"></path><path d="M125.129 82.6061C124.791 88.2412 130.426 91.1714 134.596 89.9317" stroke="#0056FF" stroke-width="3" stroke-linecap="round" stroke-linejoin="round"></path><path d="M121.069 91.3983C118.251 93.5397 115.321 92.1872 113.631 90.384C111.827 88.5808 107.207 89.0316 107.207 89.0316C107.207 89.0316 109.123 84.5235 111.038 82.9457C116.786 78.0995 120.167 80.3535 120.167 80.3535" stroke="#0056FF" stroke-width="3" stroke-linecap="round" stroke-linejoin="round"></path><path d="M144.174 93.201C144.174 93.201 143.047 95.455 138.539 95.455C141.92 99.9631 137.412 103.344 136.285 106.725C134.031 104.471 127.269 105.598 127.269 101.09" stroke="#0056FF" stroke-width="3" stroke-linecap="round" stroke-linejoin="round"></path><path d="M82.3006 84.5223C82.9768 83.508 83.0895 82.4937 82.6387 81.5921C81.7371 79.9016 78.8068 79.7888 76.102 81.1412C73.2844 82.6064 71.8193 85.0858 72.6082 86.7763C73.059 87.678 74.186 88.1288 75.6512 88.1288" stroke="#0056FF" stroke-width="3" stroke-linecap="round" stroke-linejoin="round"></path><path d="M68.3247 170.514C68.3247 170.514 71.7058 166.119 71.7058 156.99C71.7058 150.228 70.5787 145.72 68.3247 140.085" stroke="#0056FF" stroke-width="3" stroke-miterlimit="10" stroke-linecap="round" stroke-linejoin="round"></path><path d="M39.0221 85.9872C37.895 84.8602 34.514 80.3521 33.387 80.3521C32.2599 80.3521 30.0059 80.3521 28.8789 82.6062C27.7518 84.8602 30.0059 86.0999 28.8789 92.7493C27.7518 99.5115 24.7089 106.386 15.3546 114.163C1.83037 125.433 0.703354 135.576 1.83037 144.592C2.84469 152.481 2.9574 158.117 5.21144 163.752C7.69088 169.838 13.1006 173.895 17.6087 175.022C22.1167 176.149 24.3708 180.657 30.0059 180.657C35.641 180.657 40.1491 180.657 43.5301 179.53C46.9112 178.403 46.9112 177.276 48.0382 176.149C49.1652 175.022 50.2923 175.022 51.4193 176.149C52.5463 177.276 54.8003 179.53 57.0544 179.53C59.3084 179.53 60.4354 179.53 61.5625 178.403C62.6895 177.276 62.6895 172.768 64.9435 171.641C67.1976 170.514 69.4516 170.514 71.7057 171.641C73.9597 172.768 78.4678 170.514 78.4678 169.387C78.4678 168.26 78.4678 166.006 79.5948 164.879C80.7218 163.752 85.2299 166.006 87.4839 166.006C89.738 166.006 90.865 162.625 90.865 160.371C93.119 160.371 97.5144 160.258 101.008 158.117C106.643 154.735 107.77 149.1 107.77 146.846C107.77 140.084 103.262 133.322 103.262 133.322C103.262 133.322 107.545 127.687 106.643 122.052C105.516 115.29 99.8812 111.909 99.8812 111.909C99.8812 111.909 99.8812 107.401 96.5001 102.893C93.119 98.3844 86.5823 97.2574 82.9759 97.2574C78.4678 97.2574 61.5625 98.3844 50.2923 93.8764C47.0239 92.5239 39.0221 85.9872 39.0221 85.9872Z" fill="white" stroke="#0056FF" stroke-width="3" stroke-miterlimit="10" stroke-linecap="round" stroke-linejoin="round"></path><path d="M50.2925 93.8773C59.3086 101.766 76.3267 102.668 86.3571 105.148C95.3733 107.402 99.8814 111.91 99.8814 111.91" stroke="#0056FF" stroke-width="3" stroke-miterlimit="10" stroke-linecap="round" stroke-linejoin="round"></path><path d="M73.959 109.655C73.959 109.655 86.3562 114.163 91.9913 119.798C97.6264 125.434 103.262 133.323 103.262 133.323" stroke="#0056FF" stroke-width="3" stroke-miterlimit="10" stroke-linecap="round" stroke-linejoin="round"></path><path d="M28.88 84.8605C28.88 84.8605 35.6421 102.893 25.4989 114.163C19.3003 121.038 13.1017 127.687 9.72065 136.703C6.9031 144.367 7.46662 162.625 17.2717 175.586" stroke="#0056FF" stroke-width="3" stroke-miterlimit="10" stroke-linecap="round" stroke-linejoin="round"></path><path d="M90.8643 160.371C90.8643 160.371 91.6532 151.467 88.6103 144.592C84.1022 134.449 78.4671 129.941 73.959 125.433" stroke="#0056FF" stroke-width="3" stroke-miterlimit="10" stroke-linecap="round" stroke-linejoin="round"></path><path d="M79.5945 164.878C79.5945 164.878 81.8485 155.862 76.2134 142.337C72.3815 132.983 59.3081 115.289 59.3081 115.289" stroke="#0056FF" stroke-width="3" stroke-miterlimit="10" stroke-linecap="round" stroke-linejoin="round"></path><path d="M54.8007 178.403C54.8007 178.403 54.8007 167.133 54.8007 153.608C54.8007 140.084 53.2229 129.603 49.1656 122.052C42.4035 109.655 40.1494 100.638 40.1494 100.638" stroke="#0056FF" stroke-width="3" stroke-miterlimit="10" stroke-linecap="round" stroke-linejoin="round"></path><path d="M40.1482 124.306C40.1482 124.306 32.2591 148.762 33.3861 159.131C34.5131 169.499 39.0212 178.403 43.5293 179.53" stroke="#0056FF" stroke-width="3" stroke-miterlimit="10" stroke-linecap="round" stroke-linejoin="round"></path><path d="M182.45 115.691C183.375 104.526 174.218 94.6533 161.998 93.641C149.777 92.6288 139.121 100.86 138.196 112.026C137.271 123.191 146.428 133.064 158.648 134.076C170.869 135.088 181.525 126.857 182.45 115.691Z" fill="#6BA3FF" stroke="#0056FF" stroke-width="3" stroke-miterlimit="10" stroke-linecap="round" stroke-linejoin="round"></path><path d="M122.422 143.464C132.381 143.464 140.454 135.391 140.454 125.432C140.454 115.473 132.381 107.399 122.422 107.399C112.463 107.399 104.39 115.473 104.39 125.432C104.39 135.391 112.463 143.464 122.422 143.464Z" fill="#6BA3FF" stroke="#0056FF" stroke-width="3" stroke-miterlimit="10" stroke-linecap="round" stroke-linejoin="round"></path><path d="M159.276 126.898C162.823 126.898 165.7 124.728 165.7 122.052C165.7 119.375 162.823 117.205 159.276 117.205C155.728 117.205 152.852 119.375 152.852 122.052C152.852 124.728 155.728 126.898 159.276 126.898Z" stroke="#0056FF" stroke-width="3" stroke-linecap="round" stroke-linejoin="round"></path><path d="M31.1326 205.451C42.9589 205.451 52.546 195.864 52.546 184.038C52.546 172.212 42.9589 162.625 31.1326 162.625C19.3063 162.625 9.71924 172.212 9.71924 184.038C9.71924 195.864 19.3063 205.451 31.1326 205.451Z" fill="#6BA3FF" stroke="#0056FF" stroke-width="3" stroke-miterlimit="10" stroke-linecap="round" stroke-linejoin="round"></path></svg> 