<?xml version="1.0" encoding="UTF-8"?> <svg xmlns="http://www.w3.org/2000/svg" width="156" height="21" viewBox="0 0 156 21" fill="none"><path d="M145.474 19.9653H141.299V5.68314H145.474V10.8604H146.517C148.575 10.8604 149.291 10.5034 150.573 7.49816L151.348 5.68314H155.433V6.01044L154.3 8.80736C153.614 10.5034 152.75 11.8126 151.706 12.6457L155.881 19.638V19.9653H151.497L148.008 14.1334H145.474V19.9653Z" fill="white"></path><path d="M124.147 5.68314H128.322V10.5629H133.54V5.68314H137.715V19.9653H133.54V14.1929H128.322V19.9653H124.147V5.68314Z" fill="white"></path><path d="M107.259 5.8914C109.018 5.47484 111.075 5.35582 112.387 5.35582C118.649 5.35582 120.319 8.123 120.26 11.158V16.9006L121.751 16.9303V19.9058C121.095 20.0843 120.379 20.2331 119.663 20.2331C117.904 20.2331 117.009 19.3107 116.801 18.18H116.532C115.459 19.6678 113.55 20.3224 111.702 20.3224C108.839 20.3224 106.185 18.7751 106.185 15.5021C106.185 11.8126 109.584 10.8604 112.954 10.8604H116.383C116.324 9.1049 114.266 8.48005 111.97 8.48005C110.598 8.48005 108.899 8.71809 107.676 9.19416L107.259 5.8914ZM110.36 15.5021C110.36 16.7816 111.224 17.2874 112.626 17.2874C114.892 17.2874 116.383 16.008 116.383 13.5681L113.729 13.5383C111.254 13.5383 110.36 14.1929 110.36 15.5021Z" fill="white"></path><path d="M97.9723 4.04662C94.0661 4.37392 91.9489 5.71288 91.5911 9.22392H91.9191C93.0522 7.26012 95.0501 6.15919 97.6443 6.15919C101.163 6.15919 104.532 8.30153 104.532 13.2705C104.532 18.0015 101.193 20.4116 96.5112 20.4116C91.114 20.4116 88.2216 16.9006 88.2216 10.7414C88.2216 6.27821 89.6529 1.10092 97.9723 0.416564L102.982 0L103.042 3.63006L97.9723 4.04662ZM96.6007 16.9006C99.1949 16.9006 100.239 15.3831 100.239 13.2705C100.239 10.9794 99.0756 9.64048 96.6901 9.64048C94.4239 9.64048 93.1417 10.8902 92.5453 12.0506C92.5453 14.907 93.589 16.9006 96.6007 16.9006Z" fill="white"></path><path d="M66.5488 5.8914C68.3081 5.47484 70.3656 5.35582 71.6777 5.35582C77.9396 5.35582 79.6095 8.123 79.5499 11.158V16.9006L81.0408 16.9303V19.9058C80.3848 20.0843 79.6691 20.2331 78.9535 20.2331C77.1942 20.2331 76.2996 19.3107 76.0909 18.18H75.8225C74.749 19.6678 72.8406 20.3224 70.9918 20.3224C68.1292 20.3224 65.4753 18.7751 65.4753 15.5021C65.4753 11.8126 68.8747 10.8604 72.2442 10.8604H75.6734C75.6138 9.1049 73.5563 8.48005 71.2602 8.48005C69.8885 8.48005 68.1889 8.71809 66.9663 9.19416L66.5488 5.8914ZM69.65 15.5021C69.65 16.7816 70.5147 17.2874 71.9162 17.2874C74.1824 17.2874 75.6734 16.008 75.6734 13.5681L73.0195 13.5383C70.5445 13.5383 69.65 14.1929 69.65 15.5021Z" fill="white"></path><path d="M54.0079 19.9653H49.8332V5.68314H54.0079V10.8604H55.0515C57.1091 10.8604 57.8247 10.5034 59.1069 7.49816L59.8822 5.68314H63.9674V6.01044L62.8343 8.80736C62.1484 10.5034 61.2837 11.8126 60.24 12.6457L64.4147 19.638V19.9653H60.0313L56.5425 14.1334H54.0079V19.9653Z" fill="white"></path><path d="M42.0848 5.68314H46.2594V19.9653H42.0848V14.8475C40.9517 15.3236 39.6396 15.6212 38.2978 15.6212C35.137 15.6212 32.6024 13.9847 32.6024 9.93804V5.68314H36.777V9.96779C36.777 11.277 37.612 12.3779 39.4309 12.3779C40.2658 12.3779 41.2499 12.1399 42.0848 11.7828V5.68314Z" fill="white"></path><path d="M22.8029 20.4414C18.4196 20.4414 14.7518 17.5849 14.7518 12.8242C14.7518 8.06348 18.4196 5.20704 22.8029 5.20704C27.1565 5.20704 30.8242 8.06348 30.8242 12.8242C30.8242 17.5849 27.1565 20.4414 22.8029 20.4414ZM22.8029 16.9303C25.1586 16.9303 26.5303 15.1748 26.5303 12.8242C26.5303 10.4736 25.1586 8.71808 22.8029 8.71808C20.4174 8.71808 19.0458 10.4736 19.0458 12.8242C19.0458 15.1748 20.4174 16.9303 22.8029 16.9303Z" fill="white"></path><path d="M13.717 5.68314V9.3727H9.00565V19.9653H4.83101V9.3727H0.119629V5.68314H13.717Z" fill="white"></path></svg> 