<?xml version="1.0" encoding="UTF-8"?> <svg xmlns="http://www.w3.org/2000/svg" width="302" height="264" viewBox="0 0 302 264" fill="none"><path d="M1.69394 6.64265C2.9404 9.75739 4.24751 13.5545 5.76347 17.9462C14.5628 43.4788 29.298 86.2065 69.845 98.483C87.565 103.848 103.944 103.341 118.282 99.2127C119.885 111.401 125.518 120.462 134.809 125.637C144.39 130.981 155.79 130.914 167.662 125.624C164.711 143.839 165.088 165.156 172.392 185.391C179.641 205.464 192.658 222.004 211.086 234.551C232.545 249.158 261.322 258.205 296.6 261.435C299.201 261.671 300.049 252.253 297.455 252.016C256.855 248.3 225.74 236.76 204.975 217.721C188.427 202.546 178.691 182.966 176.03 159.521C174.231 143.69 176.104 129.583 178.408 119.468C191.062 110.597 203.095 95.875 201.855 85.8822C201.404 82.2405 199.187 79.4366 195.765 78.2001C193.413 77.3488 189.674 77.2677 185.213 81.7405C179.931 87.0443 174.049 98.6519 170.188 113.536C162.15 118.516 150.137 123.367 139.384 117.374C130.949 112.671 128.112 103.814 127.418 95.9899C150.36 86.3889 166.833 67.6196 173.247 51.0055C178.193 38.2088 176.246 27.8511 168.167 23.9865C155.548 17.9394 139.984 28.4254 128.516 50.6947C122.082 63.1941 118.241 77.1799 117.83 89.4564C105.817 93.3346 90.5026 94.8548 72.5603 89.4226C36.6285 78.5447 23.4093 40.2154 14.6706 14.8517C13.1142 10.3384 11.7734 6.44672 10.4394 3.11578C9.69825 1.2713 0.717001 4.21033 1.68722 6.63589L1.69394 6.64265ZM127.553 85.5511C128.543 75.7138 131.831 64.9035 136.911 55.039C145.421 38.5195 156.861 29.047 164.118 32.5266C167.716 34.2495 166.88 41.337 164.468 47.5935C160.486 57.9038 150.131 72.518 133.004 82.6256C131.326 83.6188 129.507 84.5985 127.56 85.5511H127.553ZM183.792 102.273C187.275 93.8481 190.698 89.4091 192.53 87.8348C192.268 90.2807 189.6 95.9223 183.792 102.273Z" fill="white" stroke="#0047CC" stroke-width="3" stroke-linecap="round" stroke-linejoin="round"></path><path d="M117.837 89.4631C121.698 88.2875 125.74 86.4633 127.553 85.5511" stroke="#0047CC" stroke-width="3" stroke-linecap="round" stroke-linejoin="round"></path><path d="M118.281 99.2192C121.192 98.476 125.942 96.6383 127.424 95.9964" stroke="#0047CC" stroke-width="3" stroke-linecap="round" stroke-linejoin="round"></path><path d="M167.663 125.63C171.213 123.914 176.57 120.82 178.416 119.475" stroke="#0047CC" stroke-width="3" stroke-linecap="round" stroke-linejoin="round"></path><path d="M170.196 113.543C173.807 111.26 179.864 106.949 183.786 102.267" stroke="#0047CC" stroke-width="3" stroke-linecap="round" stroke-linejoin="round"></path><path d="M297.565 252.095C299.206 252.253 300.334 254.489 300.085 257.089C299.836 259.689 298.304 261.669 296.663 261.51C295.022 261.352 293.894 259.116 294.143 256.516C294.392 253.916 295.924 251.937 297.565 252.095Z" fill="white" stroke="#0047CC" stroke-width="3" stroke-linecap="round" stroke-linejoin="round"></path><path d="M192.523 87.8281C192.84 85.3823 191.85 84.5445 191.142 84.0715" stroke="#0047CC" stroke-width="3" stroke-linecap="round" stroke-linejoin="round"></path><path d="M10.4058 3.04006C11.0146 4.57626 9.54542 6.60276 7.12438 7.56637C4.70335 8.52998 2.24723 8.0658 1.63849 6.5296C1.02975 4.9934 2.49889 2.96689 4.91992 2.00328C7.34096 1.03967 9.79708 1.50386 10.4058 3.04006Z" fill="white" stroke="#0047CC" stroke-width="3" stroke-linecap="round" stroke-linejoin="round"></path></svg> 