<?xml version="1.0" encoding="UTF-8"?> <svg xmlns="http://www.w3.org/2000/svg" width="31" height="167" viewBox="0 0 31 167" fill="none"><path d="M8.68115 144.499V159.535V161.218C8.68115 162.34 11.5986 165.146 15.1894 165.146C18.7802 165.146 21.6977 162.34 21.6977 161.218V159.535V144.499" fill="#E6F0FF"></path><path d="M8.68115 144.499V159.535V161.218C8.68115 162.34 11.5986 165.146 15.1894 165.146C18.7802 165.146 21.6977 162.34 21.6977 161.218V159.535V144.499" stroke="#0047CC" stroke-width="3" stroke-linecap="round" stroke-linejoin="round"></path><path d="M15.0777 113.866C7.55949 113.866 1.5 116.222 1.5 118.578V122.169V126.658V143.602V148.09V151.681C1.5 154.037 7.55949 158.077 15.0777 158.077C22.5959 158.077 28.6553 154.037 28.6553 151.681V148.09V143.602V126.658V122.169V118.578C28.6553 116.222 22.5959 113.866 15.0777 113.866Z" fill="#E6F0FF" stroke="#0047CC" stroke-width="3" stroke-linecap="round" stroke-linejoin="round"></path><path d="M4.5293 44.1395V119.025V119.474C4.5293 123.962 9.2422 125.533 15.1894 125.533C21.0245 125.533 25.8496 123.85 25.8496 119.474V119.025V44.1395" fill="#CCE0FF"></path><path d="M4.5293 44.1395V119.025V119.474C4.5293 123.962 9.2422 125.533 15.1894 125.533C21.0245 125.533 25.8496 123.85 25.8496 119.474V119.025V44.1395" stroke="#0047CC" stroke-width="3" stroke-linecap="round" stroke-linejoin="round"></path><path d="M18.4436 30.6751C18.4436 27.0843 18.4436 5.42742 18.4436 5.42742C18.4436 4.52972 17.8825 1.5 14.965 1.5C11.7108 1.5 11.3742 4.52972 11.3742 5.42742C11.3742 5.42742 11.3742 27.421 11.3742 30.6751C11.3742 33.9293 4.5293 39.8765 4.5293 44.1405C4.5293 46.7214 11.262 48.4046 14.965 48.4046C18.668 48.4046 25.7374 46.7214 25.7374 44.1405C25.7374 39.091 18.4436 34.1537 18.4436 30.6751Z" fill="#E6F0FF" stroke="#0047CC" stroke-width="3" stroke-linecap="round" stroke-linejoin="round"></path><path d="M18.4417 26.1866C18.4417 22.5958 18.4417 5.42742 18.4417 5.42742C18.4417 4.52972 17.8806 1.5 14.9631 1.5C11.709 1.5 11.3723 4.52972 11.3723 5.42742C11.3723 5.42742 11.3723 22.9325 11.3723 26.1866C11.3723 29.4408 18.4417 29.6652 18.4417 26.1866Z" fill="#E6F0FF" stroke="#0047CC" stroke-width="3" stroke-linecap="round" stroke-linejoin="round"></path></svg> 