<?xml version="1.0" encoding="UTF-8"?> <svg xmlns="http://www.w3.org/2000/svg" width="302" height="264" viewBox="0 0 302 264" fill="none"><path d="M299.925 256.377C298.679 253.262 297.372 249.465 295.856 245.074C287.057 219.541 272.321 176.813 231.774 164.537C214.054 159.172 197.675 159.679 183.338 163.807C181.734 151.618 176.101 142.558 166.81 137.383C157.229 132.038 145.829 132.106 133.958 137.396C136.909 119.181 136.531 97.8642 129.228 77.6287C121.978 57.5553 108.961 41.0155 90.5335 28.4688C69.0742 13.8614 40.2978 4.81452 5.01961 1.58495C2.4189 1.34847 1.56993 10.7669 4.16393 11.0034C44.7648 14.7195 75.8792 26.2595 96.6446 45.2991C113.192 60.4741 122.928 80.0543 125.589 103.499C127.388 119.329 125.515 133.437 123.211 143.551C110.558 152.423 98.5244 167.145 99.7641 177.138C100.216 180.779 102.432 183.583 105.855 184.82C108.206 185.671 111.946 185.752 116.406 181.279C121.688 175.975 127.57 164.368 131.431 149.483C139.469 144.504 151.482 139.653 162.235 145.646C170.671 150.348 173.507 159.206 174.201 167.03C151.26 176.631 134.786 195.4 128.372 212.014C123.427 224.811 125.374 235.169 133.452 239.033C146.072 245.08 161.636 234.594 173.103 212.325C179.538 199.826 183.378 185.84 183.789 173.563C195.802 169.685 211.117 168.165 229.059 173.597C264.991 184.475 278.21 222.804 286.949 248.168C288.505 252.681 289.846 256.573 291.18 259.904C291.921 261.748 300.902 258.809 299.932 256.384L299.925 256.377ZM174.067 177.469C173.076 187.306 169.788 198.116 164.708 207.981C156.198 224.5 144.758 233.973 137.502 230.493C133.904 228.77 134.739 221.683 137.151 215.426C141.133 205.116 151.489 190.502 168.616 180.394C170.294 179.401 172.113 178.421 174.06 177.469H174.067ZM117.828 160.746C114.344 169.172 110.922 173.611 109.089 175.185C109.352 172.739 112.02 167.097 117.828 160.746Z" fill="white" stroke="#0047CC" stroke-width="3" stroke-linecap="round" stroke-linejoin="round"></path><path d="M183.783 173.557C179.922 174.732 175.879 176.557 174.067 177.469" stroke="#0047CC" stroke-width="3" stroke-linecap="round" stroke-linejoin="round"></path><path d="M183.338 163.801C180.427 164.544 175.677 166.382 174.195 167.023" stroke="#0047CC" stroke-width="3" stroke-linecap="round" stroke-linejoin="round"></path><path d="M133.957 137.389C130.406 139.106 125.05 142.2 123.204 143.545" stroke="#0047CC" stroke-width="3" stroke-linecap="round" stroke-linejoin="round"></path><path d="M131.423 149.477C127.812 151.76 121.755 156.071 117.834 160.753" stroke="#0047CC" stroke-width="3" stroke-linecap="round" stroke-linejoin="round"></path><path d="M4.0542 10.9249C2.41332 10.7668 1.28515 8.53081 1.53435 5.93076C1.78356 3.3307 3.31577 1.35115 4.95665 1.5093C6.59753 1.66745 7.7257 3.90341 7.4765 6.50347C7.22729 9.10352 5.69508 11.0831 4.0542 10.9249Z" fill="white" stroke="#0047CC" stroke-width="3" stroke-linecap="round" stroke-linejoin="round"></path><path d="M109.096 175.192C108.779 177.637 109.77 178.475 110.477 178.948" stroke="#0047CC" stroke-width="3" stroke-linecap="round" stroke-linejoin="round"></path><path d="M291.214 259.98C290.605 258.444 292.074 256.417 294.495 255.453C296.916 254.49 299.372 254.954 299.981 256.49C300.59 258.026 299.121 260.053 296.699 261.016C294.278 261.98 291.822 261.516 291.214 259.98Z" fill="white" stroke="#0047CC" stroke-width="3" stroke-linecap="round" stroke-linejoin="round"></path></svg> 