<?xml version="1.0" encoding="UTF-8"?> <svg xmlns="http://www.w3.org/2000/svg" width="391" height="395" viewBox="0 0 391 395" fill="none"><path d="M24.7359 92.9326L55.3311 127.91C65.9667 140.786 88.579 152.367 121.593 144.94C160.725 135.777 184.515 114.048 190.226 97.4034C194.798 83.7256 191.098 78.7861 187.37 76.6095C175.856 69.8859 156.127 60.1088 156.127 60.1088C156.127 60.1088 135.489 99.8899 103.28 110.305C61.9393 125.337 24.6719 92.8626 24.6719 92.8626L24.7359 92.9326Z" fill="#0056FF" stroke="#003DB3" stroke-width="3" stroke-linecap="round" stroke-linejoin="round"></path><path d="M103.38 220.511L134.417 240.651C134.417 240.651 145.825 248.256 163.547 230.143C173.993 218.676 186.015 194.469 201.902 172.382C211.388 159.866 229.466 154.781 229.466 154.781C229.466 154.781 212.826 139.434 200.708 131.613C194.61 127.677 185.798 131.878 163.594 161.661C150.875 178.927 148.5 193.56 137.777 206.171C123.114 223.417 103.38 220.511 103.38 220.511Z" fill="#0056FF" stroke="#003DB3" stroke-width="3" stroke-linecap="round" stroke-linejoin="round"></path><path d="M184.271 298.646C184.271 298.646 207.426 313.578 233.033 318.695C256.632 323.72 300.408 321.744 331.674 287.407C351.515 265.432 334.599 222.074 334.599 222.074L360.845 252.283C371.942 263.648 372.304 285.364 360.699 301.742C325.93 346.854 277.232 355.163 257.642 352.959C238.052 350.756 224.415 342.744 217.632 335.797C204.066 321.904 184.271 298.646 184.271 298.646Z" fill="#0056FF" stroke="#003DB3" stroke-width="3" stroke-linecap="round" stroke-linejoin="round"></path><path d="M235.756 261.123C234.796 260.074 259.337 289.021 259.337 289.021C270.852 274.651 284.356 262.316 300.579 255.203C305.667 252.482 312.7 249.782 318.747 248.11C349.976 238.59 362.252 253.725 362.252 253.725L334.878 222.077C334.878 222.077 323.311 213.638 305.386 216.785C280.384 220.617 249.562 245.046 235.884 261.263L235.756 261.123Z" fill="#4D8AFF" stroke="#003DB3" stroke-width="3" stroke-linecap="round" stroke-linejoin="round"></path><path d="M177.641 247.696C170.959 286.03 184.202 300.514 184.202 300.514C184.202 300.514 204.666 322.516 217.633 335.797C209.524 327.466 192.168 300.941 221.678 218.902C239.766 170.151 238.071 156.973 233.533 153.649C219.92 143.676 200.447 131.67 200.447 131.67C207.19 136.718 206.119 143.743 204.87 150.663C198.631 179.089 181.921 221.06 177.711 247.633L177.641 247.696Z" fill="#4D8AFF" stroke="#003DB3" stroke-width="3" stroke-linecap="round" stroke-linejoin="round"></path><path d="M103.379 220.508L134.416 240.651C129.153 235.26 125.745 209.581 125.403 194.742C125.594 167.987 131.713 141.526 144.701 118.234C166.026 79.9924 173.754 73.9051 187.371 76.6088C178.692 71.0253 170.829 65.6178 157.169 59.5678C150.339 56.5427 126.978 69.6497 109.064 114.518C77.8785 190.512 103.315 220.439 103.315 220.439L103.379 220.508Z" fill="#4D8AFF" stroke="#003DB3" stroke-width="3" stroke-linecap="round" stroke-linejoin="round"></path></svg> 