<?xml version="1.0" encoding="UTF-8"?> <svg xmlns="http://www.w3.org/2000/svg" width="596" height="276" viewBox="0 0 596 276" fill="none"><g opacity="0.5"><path d="M586.532 1.50049C586.532 1.50049 553.219 17.3203 534.357 25.6865C515.495 34.0528 489.483 46.8303 489.483 46.8303L497.241 54.7403C497.241 54.7403 523.252 41.9627 542.115 33.5964C560.977 25.2302 594.29 9.41033 594.29 9.41033" fill="#0056FF"></path><path d="M586.532 1.50049C586.532 1.50049 553.219 17.3203 534.357 25.6865C515.495 34.0528 489.483 46.8303 489.483 46.8303L497.241 54.7403C497.241 54.7403 523.252 41.9627 542.115 33.5964C560.977 25.2302 594.29 9.41033 594.29 9.41033" stroke="#003DB3" stroke-width="3" stroke-miterlimit="10" stroke-linecap="round" stroke-linejoin="round"></path><path d="M402.93 86.2273L486.896 46.6777C486.896 46.6777 492.981 45.4609 496.328 46.5257C499.674 47.4383 507.128 53.9793 510.17 61.2807C513.212 68.5822 522.491 134.752 522.491 134.752C522.491 134.752 437.307 111.63 418.445 102.351C404.603 95.3542 402.93 86.2273 402.93 86.2273Z" fill="#0056FF" stroke="#003DB3" stroke-width="3" stroke-miterlimit="10" stroke-linecap="round" stroke-linejoin="round"></path><path d="M422.249 71.4727C422.249 71.4727 388.936 87.2924 370.074 95.6587C351.212 104.025 325.2 116.803 325.2 116.803L332.958 124.712C332.958 124.712 358.97 111.935 377.832 103.569C396.694 95.2024 430.007 79.3825 430.007 79.3825" fill="#0056FF"></path><path d="M422.249 71.4727C422.249 71.4727 388.936 87.2924 370.074 95.6587C351.212 104.025 325.2 116.803 325.2 116.803L332.958 124.712C332.958 124.712 358.97 111.935 377.832 103.569C396.694 95.2024 430.007 79.3825 430.007 79.3825" stroke="#003DB3" stroke-width="3" stroke-miterlimit="10" stroke-linecap="round" stroke-linejoin="round"></path><path d="M403.994 74.9716L494.958 38.7685C494.958 38.7685 499.522 37.8558 503.477 41.9629C506.519 45.1573 509.713 50.177 513.06 59.1517C515.798 66.6053 529.184 127.147 529.184 127.147C529.184 127.147 446.738 105.394 425.442 96.2675C415.099 91.8562 409.47 86.6843 404.907 79.6871C402.625 76.1885 403.994 74.9716 403.994 74.9716Z" fill="#0056FF" stroke="#003DB3" stroke-width="3" stroke-miterlimit="10" stroke-linecap="round" stroke-linejoin="round"></path><path d="M247.773 153.157L331.74 113.608C331.74 113.608 337.824 112.391 341.171 113.456C344.517 114.369 351.971 120.909 355.013 128.211C358.055 135.512 367.334 201.682 367.334 201.682C367.334 201.682 282.151 178.56 263.289 169.281C249.446 162.284 247.773 153.157 247.773 153.157Z" fill="#0056FF" stroke="#003DB3" stroke-width="3" stroke-miterlimit="10" stroke-linecap="round" stroke-linejoin="round"></path><path d="M267.094 138.403C267.094 138.403 233.781 154.223 214.919 162.589C196.057 170.955 170.045 183.733 170.045 183.733L177.803 191.643C177.803 191.643 203.815 178.865 222.677 170.499C241.539 162.133 274.852 146.313 274.852 146.313" fill="#0056FF"></path><path d="M267.094 138.403C267.094 138.403 233.781 154.223 214.919 162.589C196.057 170.955 170.045 183.733 170.045 183.733L177.803 191.643C177.803 191.643 203.815 178.865 222.677 170.499C241.539 162.133 274.852 146.313 274.852 146.313" stroke="#003DB3" stroke-width="3" stroke-miterlimit="10" stroke-linecap="round" stroke-linejoin="round"></path><path d="M248.838 141.902L339.802 105.699C339.802 105.699 344.365 104.786 348.32 108.893C351.362 112.087 354.557 117.107 357.903 126.082C360.641 133.535 374.027 194.077 374.027 194.077C374.027 194.077 291.582 172.324 270.286 163.198C259.942 158.786 254.314 153.615 249.75 146.617C247.469 143.119 248.838 141.902 248.838 141.902Z" fill="#0056FF" stroke="#003DB3" stroke-width="3" stroke-miterlimit="10" stroke-linecap="round" stroke-linejoin="round"></path><path d="M79.2319 229.367L163.199 189.817C163.199 189.817 169.283 188.601 172.63 189.665C175.976 190.578 183.43 197.119 186.472 204.42C189.514 211.722 201.227 274.24 201.227 274.24C201.227 274.24 113.457 254.77 94.7475 245.491C80.9051 238.494 79.2319 229.367 79.2319 229.367Z" fill="#0056FF" stroke="#003DB3" stroke-width="3" stroke-miterlimit="10" stroke-linecap="round" stroke-linejoin="round"></path><path d="M98.5484 214.611C98.5484 214.611 65.2357 230.431 46.3736 238.797C27.5115 247.164 1.50001 259.941 1.50001 259.941L9.25777 267.851C9.25777 267.851 35.2692 255.074 54.1313 246.707C72.9934 238.341 106.306 222.521 106.306 222.521" fill="#0056FF"></path><path d="M98.5484 214.611C98.5484 214.611 65.2357 230.431 46.3736 238.797C27.5115 247.164 1.50001 259.941 1.50001 259.941L9.25777 267.851C9.25777 267.851 35.2692 255.074 54.1313 246.707C72.9934 238.341 106.306 222.521 106.306 222.521" stroke="#003DB3" stroke-width="3" stroke-miterlimit="10" stroke-linecap="round" stroke-linejoin="round"></path><path d="M80.1428 218.111L167.456 179.474C167.456 179.474 172.019 178.561 175.974 182.668C179.017 185.862 182.211 190.882 185.558 199.857C188.296 207.31 207.766 266.635 207.766 266.635C207.766 266.635 122.887 248.381 101.591 239.406C91.2471 234.995 85.6189 229.823 81.0555 222.826C78.9259 219.327 80.1428 218.111 80.1428 218.111Z" fill="#0056FF" stroke="#003DB3" stroke-width="3" stroke-miterlimit="10" stroke-linecap="round" stroke-linejoin="round"></path></g></svg> 