<?xml version="1.0" encoding="UTF-8"?> <svg xmlns="http://www.w3.org/2000/svg" width="691" height="364" viewBox="0 0 691 364" fill="none"><path d="M656.229 64.5234C663.216 45.4768 685.081 39.0527 685.081 39.0527C685.081 39.0527 691.73 62.4947 674.487 78.273C664.794 87.0638 653.073 90.6703 653.073 90.6703C653.073 90.6703 652.284 75.3428 656.229 64.5234Z" fill="#7AA3FF" stroke="#0056FF" stroke-width="3" stroke-miterlimit="10" stroke-linecap="round" stroke-linejoin="round"></path><path d="M642.931 79.9636C637.408 60.4662 651.496 42.4338 651.496 42.4338C651.496 42.4338 670.656 57.5359 665.809 80.4144C663.105 93.2625 655.666 102.955 655.666 102.955C655.666 102.955 646.086 91.0084 642.931 79.9636Z" fill="#7AA3FF" stroke="#0056FF" stroke-width="3" stroke-miterlimit="10" stroke-linecap="round" stroke-linejoin="round"></path><path d="M653.074 90.6703C653.074 90.6703 662.203 72.1871 666.937 64.1853C671.67 56.1834 685.082 39.0527 685.082 39.0527" stroke="#0056FF" stroke-width="3" stroke-miterlimit="10" stroke-linecap="round" stroke-linejoin="round"></path><path d="M628.393 46.1539C630.985 41.5331 626.139 40.1807 625.688 38.0394C625.688 38.0394 618.249 39.6172 617.46 43.7872C615.657 37.9267 608.557 37.814 608.557 37.814C607.881 41.195 604.951 42.322 604.838 45.0269C604.725 47.2809 606.303 50.8874 607.655 54.2685C599.09 58.4384 593.229 67.1165 593.229 77.2597C593.229 91.3474 604.612 102.843 618.7 102.843C632.788 102.843 644.171 91.4601 644.171 77.2597C644.171 68.9197 640.226 61.5941 634.028 56.8606C634.028 56.8606 642.931 49.9858 641.015 44.9142C637.409 45.4777 632.112 42.0966 628.393 46.1539Z" fill="#6BA3FF" stroke="#0056FF" stroke-width="3" stroke-miterlimit="10" stroke-linecap="round" stroke-linejoin="round"></path><path d="M621.783 124.901C635.63 118.512 642.055 102.931 636.135 90.1021C630.215 77.2727 614.191 72.0522 600.344 78.4418C586.497 84.8314 580.072 100.412 585.992 113.241C591.912 126.07 607.936 131.291 621.783 124.901Z" fill="#6BA3FF" stroke="#0056FF" stroke-width="3" stroke-miterlimit="10" stroke-linecap="round" stroke-linejoin="round"></path><path d="M659.159 117.38C673.226 117.38 684.63 105.926 684.63 91.7966C684.63 77.6673 673.226 66.2133 659.159 66.2133C645.092 66.2133 633.688 77.6673 633.688 91.7966C633.688 105.926 645.092 117.38 659.159 117.38Z" fill="#6BA3FF" stroke="#0056FF" stroke-width="3" stroke-miterlimit="10" stroke-linecap="round" stroke-linejoin="round"></path><path d="M663.71 102.605C665.602 100.713 665.103 97.1449 662.594 94.6362C660.085 92.1275 656.517 91.628 654.625 93.5206C652.732 95.4131 653.232 98.981 655.741 101.49C658.249 103.998 661.817 104.498 663.71 102.605Z" stroke="#0056FF" stroke-width="3" stroke-linecap="round" stroke-linejoin="round"></path><path d="M634.366 83.2317C634.366 83.2317 633.352 90.67 634.817 93.6003C636.282 96.5306 637.747 97.9957 637.747 97.9957C637.747 97.9957 643.157 102.278 647.665 102.391C651.272 102.504 655.554 101.94 659.048 103.405C662.542 104.871 663.443 110.844 663.443 110.844C663.443 110.844 671.333 111.295 675.277 115.239C677.757 117.831 677.757 124.593 677.757 124.593C677.757 124.593 685.082 128.2 685.984 132.595C686.998 136.991 682.603 141.386 682.603 141.386C682.603 141.386 688.801 147.359 689.027 151.755C689.365 159.756 683.054 164.603 683.054 164.603C683.054 164.603 684.744 171.027 681.363 175.535C674.939 184.1 666.261 181.959 666.261 181.959C666.261 181.959 667.726 185.903 664.232 186.354C660.739 186.805 654.878 186.354 651.384 187.819C647.891 189.284 648.454 194.694 644.509 195.258C640.565 195.708 634.592 189.848 631.661 189.848C628.731 189.848 623.772 193.792 619.828 193.342C615.883 192.891 616.897 185.452 612.953 184.438C609.008 183.424 606.98 183.424 603.035 182.973C599.091 182.522 599.541 176.098 597.625 174.633C595.71 173.168 588.722 172.154 586.243 166.293C583.763 160.32 585.792 154.91 585.792 154.91C585.792 154.91 579.368 150.515 579.819 142.626C580.269 134.737 586.693 131.243 586.693 131.243C586.693 131.243 584.327 124.931 587.708 119.296C592.892 110.618 605.853 106.786 612.502 102.391C615.883 100.137 618.137 97.883 621.518 93.3749C623.434 90.8955 627.153 85.4857 630.647 82.8936C633.69 80.6396 634.366 83.2317 634.366 83.2317Z" fill="white" stroke="#0056FF" stroke-width="3" stroke-miterlimit="10" stroke-linecap="round" stroke-linejoin="round"></path><path d="M629.406 118.17C629.293 127.074 628.843 140.598 626.363 152.995C621.742 176.099 622.306 185.679 622.306 185.679" stroke="#0056FF" stroke-width="3" stroke-miterlimit="10" stroke-linecap="round" stroke-linejoin="round"></path><path d="M634.254 92.1335C634.254 92.1335 634.254 111.293 650.032 137.214C653.639 143.075 660.175 148.485 663.556 158.628C667.05 169.109 664.683 183.422 664.683 183.422" stroke="#0056FF" stroke-width="3" stroke-miterlimit="10" stroke-linecap="round" stroke-linejoin="round"></path><path d="M638.535 132.933C640.564 140.371 643.494 148.261 644.959 156.601C646.424 164.94 647.439 174.858 647.439 180.268C647.439 185.678 646.988 190.637 646.988 190.637" stroke="#0056FF" stroke-width="3" stroke-miterlimit="10" stroke-linecap="round" stroke-linejoin="round"></path><path d="M597.851 174.52C597.851 174.52 594.808 169.899 595.935 162.01C597.062 154.121 600.443 147.358 603.824 143.977C608.783 139.019 613.967 134.961 617.574 126.621C619.377 122.451 622.983 109.04 622.983 109.04" stroke="#0056FF" stroke-width="3" stroke-miterlimit="10" stroke-linecap="round" stroke-linejoin="round"></path><path d="M586.017 154.799C586.017 154.799 586.58 147.811 589.172 143.979C593.68 137.217 597.061 136.09 601.569 132.709C606.416 129.102 610.586 124.82 613.967 118.058" stroke="#0056FF" stroke-width="3" stroke-miterlimit="10" stroke-linecap="round" stroke-linejoin="round"></path><path d="M612.841 109.04C612.841 109.04 604.951 119.183 597.851 123.691C594.808 125.607 589.962 128.65 587.032 131.129" stroke="#0056FF" stroke-width="3" stroke-miterlimit="10" stroke-linecap="round" stroke-linejoin="round"></path><path d="M683.277 164.602C683.277 164.602 681.248 156.825 675.951 150.739C669.189 142.85 663.554 140.596 657.919 134.961" stroke="#0056FF" stroke-width="3" stroke-miterlimit="10" stroke-linecap="round" stroke-linejoin="round"></path><path d="M682.827 141.499C682.827 141.499 679.22 136.766 671.444 133.159C663.555 129.44 652.397 121.664 648.903 118.17" stroke="#0056FF" stroke-width="3" stroke-miterlimit="10" stroke-linecap="round" stroke-linejoin="round"></path><path d="M677.867 124.707C677.867 124.707 668.738 120.763 664.568 119.298C658.032 117.044 652.96 113.212 649.015 110.281C645.071 107.351 637.971 98.1096 637.971 98.1096" stroke="#0056FF" stroke-width="3" stroke-miterlimit="10" stroke-linecap="round" stroke-linejoin="round"></path><path d="M663.555 110.845C663.555 110.845 656.68 110.394 652.172 108.816C647.777 107.351 639.888 99.9126 639.888 99.9126" stroke="#0056FF" stroke-width="3" stroke-miterlimit="10" stroke-linecap="round" stroke-linejoin="round"></path><path d="M673.998 199.598C674.923 188.433 665.766 178.56 653.546 177.548C641.325 176.536 630.669 184.767 629.744 195.933C628.819 207.098 637.976 216.971 650.196 217.983C662.416 218.995 673.073 210.764 673.998 199.598Z" fill="#6BA3FF" stroke="#0056FF" stroke-width="3" stroke-miterlimit="10" stroke-linecap="round" stroke-linejoin="round"></path><path d="M610.135 59.6763C609.234 57.3095 608.332 56.0698 607.431 53.8158L610.135 59.6763Z" fill="#6BA3FF"></path><path d="M610.135 59.6763C609.234 57.3095 608.332 56.0698 607.431 53.8158" stroke="#0056FF" stroke-width="3" stroke-miterlimit="10" stroke-linecap="round" stroke-linejoin="round"></path><path d="M612.838 47.0557C612.838 47.0557 619.6 50.4367 619.6 54.9448C621.854 51.5637 629.743 51.5637 629.743 51.5637" fill="#6BA3FF"></path><path d="M612.838 47.0557C612.838 47.0557 619.6 50.4367 619.6 54.9448C621.854 51.5637 629.743 51.5637 629.743 51.5637" stroke="#0056FF" stroke-width="3" stroke-miterlimit="10" stroke-linecap="round" stroke-linejoin="round"></path><path d="M630.871 60.5799C631.773 58.4386 634.027 56.748 634.027 56.748L630.871 60.5799Z" fill="#6BA3FF"></path><path d="M630.871 60.5799C631.773 58.4386 634.027 56.748 634.027 56.748" stroke="#0056FF" stroke-width="3" stroke-miterlimit="10" stroke-linecap="round" stroke-linejoin="round"></path><path d="M82.0804 129.063C82.0804 129.063 85.202 110.333 72.7155 97.8462C60.2289 85.3597 35.2559 82.238 35.2559 82.238C35.2559 82.238 39.9383 108.772 50.864 119.698C63.3506 132.184 82.0804 129.063 82.0804 129.063Z" fill="#7AA3FF" stroke="#0056FF" stroke-width="3" stroke-miterlimit="10" stroke-linecap="round" stroke-linejoin="round"></path><path d="M35.2536 82.2386L82.0781 129.063" stroke="#0056FF" stroke-width="3" stroke-miterlimit="10" stroke-linecap="round" stroke-linejoin="round"></path><path d="M89.4302 143.801C89.4302 143.801 84.9585 162.255 68.5761 168.846C52.1936 175.438 27.9961 168.518 27.9961 168.518C27.9961 168.518 42.7068 145.945 57.0415 140.177C73.4239 133.586 89.4302 143.801 89.4302 143.801Z" fill="#7AA3FF" stroke="#0056FF" stroke-width="3" stroke-miterlimit="10" stroke-linecap="round" stroke-linejoin="round"></path><path d="M27.9946 168.516L89.4287 143.799" stroke="#0056FF" stroke-width="3" stroke-miterlimit="10" stroke-linecap="round" stroke-linejoin="round"></path><path d="M88.9058 147.965C88.9058 147.965 64.0887 149.057 43.642 141.722C26.473 135.478 13.9865 126.113 1.49993 105.823C15.5473 99.5795 38.8035 103.013 49.8853 108.944C76.4192 122.992 88.9058 147.965 88.9058 147.965Z" fill="#7AA3FF" stroke="#0056FF" stroke-width="3" stroke-miterlimit="10" stroke-linecap="round" stroke-linejoin="round"></path><path d="M1.50168 105.823C1.50168 105.823 31.7816 124.708 45.2046 130.796C62.3736 138.6 87.3467 143.282 87.3467 143.282" stroke="#0056FF" stroke-width="3" stroke-miterlimit="10" stroke-linecap="round" stroke-linejoin="round"></path><path d="M620.034 184.945C620.959 173.779 611.802 163.907 599.582 162.894C587.361 161.882 576.705 170.113 575.78 181.279C574.855 192.445 584.012 202.317 596.232 203.329C608.453 204.342 619.109 196.111 620.034 184.945Z" fill="#6BA3FF" stroke="#0056FF" stroke-width="3" stroke-miterlimit="10" stroke-linecap="round" stroke-linejoin="round"></path><path d="M579.034 234.794C593.972 234.794 606.082 224.703 606.082 212.254C606.082 199.805 593.972 189.714 579.034 189.714C564.095 189.714 551.985 199.805 551.985 212.254C551.985 224.703 564.095 234.794 579.034 234.794Z" fill="#6BA3FF" stroke="#0056FF" stroke-width="3" stroke-miterlimit="10" stroke-linecap="round" stroke-linejoin="round"></path><path d="M644.083 254.051C655.814 245.418 658.206 228.748 649.425 216.817C640.645 204.886 624.018 202.212 612.287 210.844C600.556 219.477 598.165 236.147 606.945 248.078C615.725 260.01 632.352 262.684 644.083 254.051Z" fill="#6BA3FF" stroke="#0056FF" stroke-width="3" stroke-miterlimit="10" stroke-linecap="round" stroke-linejoin="round"></path><path d="M618.478 178.442C618.478 178.442 609.462 173.934 601.573 177.315C593.684 180.696 588.049 186.331 586.922 195.348C586.02 202.11 586.922 213.38 595.938 220.142C604.954 226.904 620.732 226.904 626.368 221.269C632.003 215.634 635.384 206.618 634.257 199.856C633.13 193.094 629.749 187.459 629.749 187.459C629.749 187.459 632.003 180.696 635.384 180.696C629.749 178.442 627.495 179.569 625.241 181.823C625.241 178.442 626.368 176.188 619.605 172.807C619.605 176.188 618.478 178.442 618.478 178.442Z" fill="#6BA3FF" stroke="#0056FF" stroke-width="3" stroke-miterlimit="10" stroke-linecap="round" stroke-linejoin="round"></path><path d="M617.351 184.079C617.351 184.079 615.097 189.714 620.733 190.841C624.226 191.517 625.241 188.587 625.241 188.587C625.241 188.587 628.622 189.714 629.749 187.46" stroke="#0056FF" stroke-width="3" stroke-miterlimit="10" stroke-linecap="round" stroke-linejoin="round"></path><path d="M522.681 241.558C522.681 241.558 524.484 227.696 530.57 219.018C538.459 207.748 553.111 202.112 571.143 204.366C589.175 206.621 599.319 217.891 603.827 223.526C608.335 229.161 615.097 240.431 616.224 250.574C617.351 260.718 615.097 275.369 604.954 285.512C594.585 295.881 582.413 299.036 568.889 297.909C555.365 296.782 522.681 284.385 522.681 241.558Z" fill="#5C8DFF" stroke="#0047CC" stroke-width="3" stroke-miterlimit="10" stroke-linecap="round" stroke-linejoin="round"></path><path d="M557.619 244.938C557.619 244.938 570.016 235.922 581.287 235.922C592.557 235.922 598.192 239.303 598.192 239.303" stroke="#0047CC" stroke-width="3" stroke-miterlimit="10" stroke-linecap="round" stroke-linejoin="round"></path><path d="M508.03 269.732C508.03 269.732 510.284 258.462 518.173 248.319C523.583 241.331 542.968 229.16 542.968 229.16C542.968 229.16 547.476 248.319 542.968 260.716C538.798 272.099 530.571 279.876 527.19 281.003L508.03 269.732Z" fill="#7AA3FF" stroke="#0056FF" stroke-width="3" stroke-miterlimit="10" stroke-linecap="round" stroke-linejoin="round"></path><path d="M542.97 229.16C542.97 229.16 528.318 261.843 516.71 275.368" stroke="#0056FF" stroke-width="3" stroke-miterlimit="10" stroke-linecap="round" stroke-linejoin="round"></path><path d="M128.789 43.1998C140.304 43.1998 149.639 33.8649 149.639 22.3499C149.639 10.8348 140.304 1.5 128.789 1.5C117.274 1.5 107.939 10.8348 107.939 22.3499C107.939 33.8649 117.274 43.1998 128.789 43.1998Z" fill="#6BA3FF" stroke="#0056FF" stroke-width="3" stroke-miterlimit="10" stroke-linecap="round" stroke-linejoin="round"></path><path d="M171.622 75.0521C175.074 65.7769 170.543 55.5298 161.501 52.1647C152.459 48.7995 142.331 53.5906 138.879 62.8659C135.427 72.1411 139.958 82.3881 149 85.7533C158.042 89.1184 168.17 84.3273 171.622 75.0521Z" fill="#6BA3FF" stroke="#0056FF" stroke-width="3" stroke-miterlimit="10" stroke-linecap="round" stroke-linejoin="round"></path><path d="M116.392 80.3923C129.774 80.3923 140.623 69.5437 140.623 56.1614C140.623 42.779 129.774 31.9304 116.392 31.9304C103.009 31.9304 92.1606 42.779 92.1606 56.1614C92.1606 69.5437 103.009 80.3923 116.392 80.3923Z" fill="#6BA3FF" stroke="#0056FF" stroke-width="3" stroke-miterlimit="10" stroke-linecap="round" stroke-linejoin="round"></path><path d="M168.798 111.949C172.179 98.4252 171.052 84.901 160.909 77.0118C150.991 69.2354 142.877 72.5037 136.115 70.2497C129.352 67.9957 121.238 65.7416 112.447 67.9957C103.431 70.2497 93.4005 76.7864 89.9068 92.7901C86.5257 108.568 92.1608 119.839 100.05 127.728C109.63 137.307 127.098 137.871 138.369 136.744C154.485 135.166 166.319 121.867 168.798 111.949Z" fill="#5C8DFF" stroke="#0047CC" stroke-width="3" stroke-miterlimit="10" stroke-linecap="round" stroke-linejoin="round"></path><path d="M144.002 78.1374C144.002 78.1374 139.607 80.7296 137.24 81.5185C133.859 82.6455 130.027 82.1947 128.224 80.3915C125.97 78.1374 125.97 74.7563 125.97 74.7563" stroke="#0047CC" stroke-width="3" stroke-miterlimit="10" stroke-linecap="round" stroke-linejoin="round"></path><path d="M121.463 101.806C131.606 98.4251 142.877 98.4251 154.147 106.314C174.884 120.853 172.179 158.157 145.131 168.3C119.773 177.767 106.925 168.413 102.304 163.792C95.5417 157.03 86.8636 149.254 89.9066 129.982C93.2877 108.568 110.531 105.413 121.463 101.806Z" fill="#5C8DFF" stroke="#0047CC" stroke-width="3" stroke-miterlimit="10" stroke-linecap="round" stroke-linejoin="round"></path><path d="M124.844 116.458C124.844 116.458 121.463 95.0444 121.463 82.6471C121.463 70.2499 124.844 51.0906 131.606 38.6933C137.918 27.1977 145.131 22.915 145.131 22.915C145.131 22.915 146.258 24.0421 147.385 24.0421C148.512 24.0421 166.544 18.407 166.544 17.2799C166.544 16.1529 166.544 11.6448 164.29 10.5178C162.036 9.3908 145.131 15.0259 144.004 16.1529C142.877 17.2799 142.877 18.407 142.877 18.407C142.877 18.407 132.733 25.1691 127.098 35.3123C121.914 44.5538 115.828 62.3608 115.828 81.5201C115.828 97.2984 118.082 114.204 119.209 118.712" fill="#5C8DFF"></path><path d="M124.844 116.458C124.844 116.458 121.463 95.0444 121.463 82.6471C121.463 70.2499 124.844 51.0906 131.606 38.6933C137.918 27.1977 145.131 22.915 145.131 22.915C145.131 22.915 146.258 24.0421 147.385 24.0421C148.512 24.0421 166.544 18.407 166.544 17.2799C166.544 16.1529 166.544 11.6448 164.29 10.5178C162.036 9.3908 145.131 15.0259 144.004 16.1529C142.877 17.2799 142.877 18.407 142.877 18.407C142.877 18.407 132.733 25.1691 127.098 35.3123C121.914 44.5538 115.828 62.3608 115.828 81.5201C115.828 97.2984 118.082 114.204 119.209 118.712" stroke="#0047CC" stroke-width="3" stroke-miterlimit="10" stroke-linecap="round" stroke-linejoin="round"></path><path d="M109.068 118.713C109.068 118.713 118.084 120.967 122.592 118.713C127.1 116.459 130.481 111.95 130.481 111.95" stroke="#0047CC" stroke-width="3" stroke-miterlimit="10" stroke-linecap="round" stroke-linejoin="round"></path><path d="M181.197 158.721C193.144 145.422 188.861 125.587 188.861 125.587C188.861 125.587 167.786 130.095 162.827 150.156C160.009 161.426 162.151 172.02 162.151 172.02C162.151 172.02 174.435 166.272 181.197 158.721Z" fill="#7AA3FF" stroke="#0056FF" stroke-width="3" stroke-miterlimit="10" stroke-linecap="round" stroke-linejoin="round"></path><path d="M482.11 233.669C479.856 229.161 476.475 222.399 474.22 215.637C471.966 208.875 466.331 195.351 467.458 185.207C468.585 175.064 474.22 168.302 479.856 166.048C485.491 163.794 487.745 167.175 494.507 166.048C501.269 164.921 503.523 159.286 501.269 157.032C501.269 157.032 493.38 155.905 487.745 157.032C482.11 158.159 466.331 159.286 461.823 180.699C457.766 199.971 473.093 231.415 473.093 231.415" fill="#5C8DFF"></path><path d="M482.11 233.669C479.856 229.161 476.475 222.399 474.22 215.637C471.966 208.875 466.331 195.351 467.458 185.207C468.585 175.064 474.22 168.302 479.856 166.048C485.491 163.794 487.745 167.175 494.507 166.048C501.269 164.921 503.523 159.286 501.269 157.032C501.269 157.032 493.38 155.905 487.745 157.032C482.11 158.159 466.331 159.286 461.823 180.699C457.766 199.971 473.093 231.415 473.093 231.415" stroke="#0047CC" stroke-width="3" stroke-miterlimit="10" stroke-linecap="round" stroke-linejoin="round"></path><path d="M447.902 287.75C442.267 280.987 429.532 257.996 443.394 240.415C455.791 224.636 478.332 233.653 478.332 233.653C478.332 233.653 483.967 223.509 497.491 222.382C511.015 221.255 520.032 228.018 524.54 237.034C528.822 245.599 534.683 262.955 526.794 277.606C518.905 292.258 497.379 296.991 488.475 299.02C473.824 302.401 453.537 294.512 447.902 287.75Z" fill="#5C8DFF" stroke="#0047CC" stroke-width="3" stroke-miterlimit="10" stroke-linecap="round" stroke-linejoin="round"></path><path d="M491.858 232.526C491.858 232.526 489.604 234.78 485.096 234.78C480.587 234.78 471.571 231.399 471.571 231.399" stroke="#0047CC" stroke-width="3" stroke-miterlimit="10" stroke-linecap="round" stroke-linejoin="round"></path><path d="M159.783 142.379C158.656 122.093 139.496 109.696 139.496 109.696C139.496 109.696 126.31 130.207 138.369 150.268C145.131 161.538 155.275 168.301 155.275 168.301C155.275 168.301 160.459 153.875 159.783 142.379Z" fill="#7AA3FF" stroke="#0056FF" stroke-width="3" stroke-miterlimit="10" stroke-linecap="round" stroke-linejoin="round"></path><path d="M155.273 168.301C155.273 168.301 151.892 148.014 149.638 138.998C147.384 129.982 139.495 109.696 139.495 109.696" stroke="#0056FF" stroke-width="3" stroke-miterlimit="10" stroke-linecap="round" stroke-linejoin="round"></path><path d="M481.222 303.191C492.264 294.678 493.822 278.185 484.7 266.354C475.579 254.523 459.233 251.833 448.19 260.346C437.148 268.86 435.59 285.352 444.712 297.184C453.833 309.015 470.179 311.704 481.222 303.191Z" fill="#6BA3FF" stroke="#0056FF" stroke-width="3" stroke-miterlimit="10" stroke-linecap="round" stroke-linejoin="round"></path><path d="M184.576 190.84C197.024 190.84 207.116 180.748 207.116 168.299C207.116 155.85 197.024 145.759 184.576 145.759C172.127 145.759 162.035 155.85 162.035 168.299C162.035 180.748 172.127 190.84 184.576 190.84Z" fill="#6BA3FF" stroke="#0056FF" stroke-width="3" stroke-miterlimit="10" stroke-linecap="round" stroke-linejoin="round"></path><path d="M124.843 188.587C137.292 188.587 147.384 178.495 147.384 166.047C147.384 153.598 137.292 143.506 124.843 143.506C112.394 143.506 102.303 153.598 102.303 166.047C102.303 178.495 112.394 188.587 124.843 188.587Z" fill="#6BA3FF" stroke="#0056FF" stroke-width="3" stroke-miterlimit="10" stroke-linecap="round" stroke-linejoin="round"></path><path d="M175.559 170.554C175.559 182.951 165.416 193.094 153.019 193.094C141.748 193.094 132.281 184.754 130.704 173.822C126.421 176.301 123.378 174.385 119.208 173.935C120.335 167.173 124.28 166.834 124.28 166.834C124.28 166.834 120.335 164.13 120.335 158.945C123.603 155.001 129.013 156.691 129.013 156.691C129.013 156.691 127.097 153.648 130.478 149.14C131.605 152.521 134.986 153.648 136.113 155.677C140.283 150.943 146.257 148.013 153.019 148.013C165.529 148.013 175.559 158.156 175.559 170.554Z" fill="#6BA3FF" stroke="#0056FF" stroke-width="3" stroke-miterlimit="10" stroke-linecap="round" stroke-linejoin="round"></path><path d="M137.242 160.412C137.242 160.412 136.679 157.144 136.115 155.679L137.242 160.412Z" fill="white"></path><path d="M137.242 160.412C137.242 160.412 136.679 157.144 136.115 155.679" stroke="#0056FF" stroke-width="3" stroke-miterlimit="10" stroke-linecap="round" stroke-linejoin="round"></path><path d="M134.311 171.343C134.311 171.343 132.733 172.808 130.705 173.823" stroke="#0056FF" stroke-width="3" stroke-miterlimit="10" stroke-linecap="round" stroke-linejoin="round"></path><path d="M124.844 229.16C138.538 229.16 149.639 218.059 149.639 204.366C149.639 190.672 138.538 179.571 124.844 179.571C111.151 179.571 100.05 190.672 100.05 204.366C100.05 218.059 111.151 229.16 124.844 229.16Z" fill="#6BA3FF" stroke="#0056FF" stroke-width="3" stroke-miterlimit="10" stroke-linecap="round" stroke-linejoin="round"></path><path d="M118.42 202.789C118.42 202.789 111.996 206.733 114.475 214.961" stroke="#0056FF" stroke-width="3" stroke-miterlimit="10" stroke-linecap="round" stroke-linejoin="round"></path><path d="M129.014 195.8C129.014 195.8 130.028 192.419 127.436 190.503C124.844 188.587 122.477 189.94 120.11 187.122C120.11 189.376 118.082 189.602 116.842 192.532C115.49 195.575 117.067 197.04 117.067 197.04C117.067 197.04 114.025 195.237 111.771 197.491C109.516 199.745 109.178 200.759 105.685 202.224C108.615 204.14 107.15 206.282 108.953 207.634C110.08 208.423 113.461 208.197 114.926 206.507" stroke="#0056FF" stroke-width="3" stroke-miterlimit="10" stroke-linecap="round" stroke-linejoin="round"></path><path d="M124.054 198.842C131.042 192.418 137.24 197.602 137.24 197.602C137.24 197.602 135.775 200.532 134.874 202.561C132.732 207.182 129.351 207.294 124.956 205.942" stroke="#0056FF" stroke-width="3" stroke-miterlimit="10" stroke-linecap="round" stroke-linejoin="round"></path><path d="M536.619 302.801C542.929 289.26 537.159 273.211 523.731 266.954C510.304 260.696 494.304 266.6 487.994 280.14C481.684 293.681 487.453 309.73 500.881 315.987C514.308 322.245 530.309 316.341 536.619 302.801Z" fill="#6BA3FF" stroke="#0056FF" stroke-width="3" stroke-miterlimit="10" stroke-linecap="round" stroke-linejoin="round"></path><path d="M571.444 300.56C572.369 289.394 563.212 279.522 550.992 278.51C538.772 277.498 528.115 285.729 527.19 296.894C526.265 308.06 535.422 317.932 547.642 318.945C559.863 319.957 570.519 311.726 571.444 300.56Z" fill="#6BA3FF" stroke="#0056FF" stroke-width="3" stroke-miterlimit="10" stroke-linecap="round" stroke-linejoin="round"></path><path d="M546.687 323.031C547.786 309.757 536.911 298.02 522.395 296.818C507.88 295.616 495.221 305.402 494.121 318.677C493.022 331.952 503.898 343.688 518.413 344.891C532.928 346.093 545.587 336.306 546.687 323.031Z" fill="#6BA3FF" stroke="#0056FF" stroke-width="3" stroke-miterlimit="10" stroke-linecap="round" stroke-linejoin="round"></path><path d="M505.956 328.712C507.317 312.274 496.302 297.944 481.353 296.705C466.403 295.467 453.18 307.789 451.818 324.227C450.456 340.666 461.472 354.996 476.421 356.234C491.371 357.473 504.594 345.151 505.956 328.712Z" fill="#6BA3FF" stroke="#0056FF" stroke-width="3" stroke-miterlimit="10" stroke-linecap="round" stroke-linejoin="round"></path><path d="M176.687 157.032C176.687 157.032 178.941 163.794 182.322 166.048C185.703 168.302 198.213 172.022 203.736 172.811C211.625 173.938 220.641 176.192 231.911 181.827C242.843 187.236 251.07 203.24 252.197 210.002C253.324 216.764 254.339 224.654 252.197 235.924C248.816 253.956 234.165 262.972 221.768 266.353C209.371 269.734 196.973 266.353 196.973 266.353C196.973 266.353 195.846 271.988 192.465 274.242C189.084 276.496 186.83 275.369 185.703 274.242C184.576 273.115 183.449 271.988 181.195 271.988C178.941 271.988 178.941 274.242 176.687 275.369C174.658 276.384 171.052 276.496 167.671 274.242C164.29 271.988 162.036 265.226 162.036 265.226C162.036 265.226 156.739 265.564 153.02 264.099C147.384 261.845 146.257 255.083 146.257 255.083C146.257 255.083 137.918 251.927 136.114 248.321C132.733 241.559 133.86 234.797 133.86 234.797C133.86 234.797 128.225 225.781 129.352 219.018C130.479 212.256 134.987 207.748 134.987 207.748C134.987 207.748 132.733 199.859 138.368 191.97C142.2 186.673 154.147 180.7 159.782 175.065C166.544 168.302 171.728 159.963 172.517 157.934C173.306 155.905 175.56 154.778 176.687 157.032Z" fill="white" stroke="#0056FF" stroke-width="3" stroke-miterlimit="10" stroke-linecap="round" stroke-linejoin="round"></path><path d="M175.561 179.573C175.561 185.209 178.378 198.958 181.196 205.495C184.577 213.384 190.55 222.626 193.593 230.289C198.101 241.56 200.355 250.576 196.974 266.354" stroke="#0056FF" stroke-width="3" stroke-miterlimit="10" stroke-linecap="round" stroke-linejoin="round"></path><path d="M167.672 206.622C167.672 206.622 165.418 216.878 163.164 228.035C160.91 239.306 157.528 256.211 162.037 265.227" stroke="#0056FF" stroke-width="3" stroke-miterlimit="10" stroke-linecap="round" stroke-linejoin="round"></path><path d="M168.798 179.573C167.671 182.955 163.163 195.352 159.782 202.114C156.401 208.876 149.639 221.273 147.384 231.416C145.13 241.56 144.003 248.322 146.257 255.084" stroke="#0056FF" stroke-width="3" stroke-miterlimit="10" stroke-linecap="round" stroke-linejoin="round"></path><path d="M159.782 188.588C159.782 188.588 148.512 205.494 144.004 212.256C139.496 219.018 133.861 226.907 133.861 234.796" stroke="#0056FF" stroke-width="3" stroke-miterlimit="10" stroke-linecap="round" stroke-linejoin="round"></path><path d="M176.688 157.033C175.561 166.049 184.577 188.589 190.212 196.478C195.848 204.367 207.118 215.638 212.753 226.908C217.486 236.488 217.261 244.94 215.007 253.956C213.091 261.62 207.118 265.227 207.118 265.227" stroke="#0056FF" stroke-width="3" stroke-miterlimit="10" stroke-linecap="round" stroke-linejoin="round"></path><path d="M191.34 185.207C194.721 188.588 196.975 189.715 202.61 194.223C208.471 198.957 215.007 202.113 221.769 207.748C226.841 211.918 231.236 217.102 234.167 226.907C237.548 238.177 234.73 245.954 231.011 256.097" stroke="#0056FF" stroke-width="3" stroke-miterlimit="10" stroke-linecap="round" stroke-linejoin="round"></path><path d="M178.942 164.921C178.942 164.921 183.45 175.064 199.228 179.572C208.132 182.164 219.289 185.658 226.277 189.715C239.801 197.605 245.436 208.875 245.436 219.018" stroke="#0056FF" stroke-width="3" stroke-miterlimit="10" stroke-linecap="round" stroke-linejoin="round"></path><path d="M146.709 196.14C146.709 196.14 138.369 203.24 134.988 207.748L146.709 196.14Z" fill="white"></path><path d="M146.709 196.14C146.709 196.14 138.369 203.24 134.988 207.748" stroke="#0056FF" stroke-width="3" stroke-miterlimit="10" stroke-linecap="round" stroke-linejoin="round"></path><path d="M344.612 252.825C343.485 255.079 338.977 256.206 338.977 256.206L344.612 252.825Z" fill="white"></path><path d="M344.612 252.825C343.485 255.079 338.977 256.206 338.977 256.206" stroke="#0056FF" stroke-width="3" stroke-miterlimit="10" stroke-linecap="round" stroke-linejoin="round"></path><path d="M256.704 217.887C264.593 217.211 277.666 221.832 283.752 226.903C290.514 232.538 299.531 241.555 302.912 257.333C305.617 269.843 305.166 279.873 297.277 292.27C289.387 304.668 276.99 312.557 262.339 317.065C247.124 321.798 234.163 319.319 225.147 314.811C216.131 310.303 207.115 302.414 202.607 290.016C198.099 277.619 201.931 257.671 208.242 247.19C215.004 235.919 229.655 220.141 256.704 217.887Z" fill="#5C8DFF" stroke="#0047CC" stroke-width="3" stroke-miterlimit="10" stroke-linecap="round" stroke-linejoin="round"></path><path d="M244.306 249.445C244.306 249.445 244.306 216.762 244.306 208.873C244.306 200.983 246.56 167.173 249.941 158.157C253.322 149.14 255.576 144.632 258.957 140.124C262.339 135.616 265.72 133.362 264.593 128.854C263.466 124.346 260.085 121.641 257.83 122.092C252.195 123.219 254.449 131.108 254.449 131.108C254.449 131.108 246.56 142.378 242.052 162.665C237.544 182.951 238.671 249.445 238.671 249.445" fill="#5C8DFF"></path><path d="M244.306 249.445C244.306 249.445 244.306 216.762 244.306 208.873C244.306 200.983 246.56 167.173 249.941 158.157C253.322 149.14 255.576 144.632 258.957 140.124C262.339 135.616 265.72 133.362 264.593 128.854C263.466 124.346 260.085 121.641 257.83 122.092C252.195 123.219 254.449 131.108 254.449 131.108C254.449 131.108 246.56 142.378 242.052 162.665C237.544 182.951 238.671 249.445 238.671 249.445" stroke="#0047CC" stroke-width="3" stroke-miterlimit="10" stroke-linecap="round" stroke-linejoin="round"></path><path d="M256.702 134.489L254.448 131.108" stroke="#0047CC" stroke-width="3" stroke-miterlimit="10" stroke-linecap="round" stroke-linejoin="round"></path><path d="M220.639 251.697C220.639 251.697 227.401 249.443 233.036 249.443C238.671 249.443 243.179 250.57 248.814 249.443C254.449 248.316 258.957 241.554 258.957 241.554" stroke="#0047CC" stroke-width="3" stroke-miterlimit="10" stroke-linecap="round" stroke-linejoin="round"></path><path d="M304.04 277.621C304.04 277.621 287.135 270.858 284.88 262.969C282.626 255.08 283.753 242.683 286.008 235.921C288.262 229.159 299.532 205.491 299.532 205.491C299.532 205.491 311.929 225.778 314.183 234.794C316.437 243.81 318.691 252.826 316.437 260.715C314.183 268.604 304.04 277.621 304.04 277.621Z" fill="#7AA3FF" stroke="#0056FF" stroke-width="3" stroke-miterlimit="10" stroke-linecap="round" stroke-linejoin="round"></path><path d="M299.531 205.491C299.531 205.491 302.462 232.652 300.658 247.191C298.404 265.223 304.039 277.621 304.039 277.621" stroke="#0056FF" stroke-width="3" stroke-miterlimit="10" stroke-linecap="round" stroke-linejoin="round"></path><path d="M344.612 252.827C344.612 252.827 350.022 257.448 351.374 262.97C353.628 271.987 350.247 283.257 341.231 288.892C333.567 293.738 319.818 290.019 313.056 284.384C306.294 278.749 302.913 264.097 310.802 253.954C318.691 243.811 331.088 247.192 331.088 247.192C331.088 247.192 332.215 242.684 333.342 238.176C334.469 238.176 338.977 243.811 337.85 248.319C340.104 244.938 344.612 242.684 349.12 243.811C346.866 247.192 344.612 252.827 344.612 252.827Z" fill="#6BA3FF" stroke="#0056FF" stroke-width="3" stroke-miterlimit="10" stroke-linecap="round" stroke-linejoin="round"></path><path d="M332.215 252.826C332.215 252.826 329.961 250.572 331.088 247.191L332.215 252.826Z" fill="white"></path><path d="M332.215 252.826C332.215 252.826 329.961 250.572 331.088 247.191" stroke="#0056FF" stroke-width="3" stroke-miterlimit="10" stroke-linecap="round" stroke-linejoin="round"></path><path d="M305.481 318.127C309.362 304.024 302.534 289.846 290.231 286.461C277.928 283.076 264.808 291.765 260.928 305.868C257.047 319.972 263.875 334.149 276.178 337.535C288.481 340.92 301.601 332.231 305.481 318.127Z" fill="#6BA3FF" stroke="#0056FF" stroke-width="3" stroke-miterlimit="10" stroke-linecap="round" stroke-linejoin="round"></path><path d="M337.339 289.052C339.848 276.541 330.255 264.068 315.913 261.192C301.571 258.316 287.911 266.127 285.402 278.638C282.893 291.149 292.486 303.623 306.828 306.499C321.17 309.374 334.831 301.563 337.339 289.052Z" fill="#6BA3FF" stroke="#0056FF" stroke-width="3" stroke-miterlimit="10" stroke-linecap="round" stroke-linejoin="round"></path><path d="M310.35 297.796C313.898 297.796 316.774 295.627 316.774 292.95C316.774 290.274 313.898 288.104 310.35 288.104C306.802 288.104 303.926 290.274 303.926 292.95C303.926 295.627 306.802 297.796 310.35 297.796Z" stroke="#0056FF" stroke-width="3" stroke-linecap="round" stroke-linejoin="round"></path><path d="M331.216 343.543C344.79 338.094 351.941 324.078 347.188 312.237C342.435 300.396 327.577 295.214 314.003 300.662C300.429 306.111 293.278 320.127 298.032 331.968C302.785 343.809 317.642 348.992 331.216 343.543Z" fill="#6BA3FF" stroke="#0056FF" stroke-width="3" stroke-miterlimit="10" stroke-linecap="round" stroke-linejoin="round"></path><path d="M375.042 258.463C375.042 258.463 375.042 256.209 377.296 255.082C379.55 253.955 385.185 257.336 388.566 257.336C391.947 257.336 408.852 256.209 414.487 256.209C420.122 256.209 423.503 262.971 423.503 262.971C423.503 262.971 429.138 262.971 434.774 264.098C439.732 265.113 442.663 266.352 444.917 270.86C447.171 275.368 447.058 283.37 447.058 283.37C447.058 283.37 457.314 286.639 458.892 294.302C460.921 303.657 457.201 314.701 457.201 314.701C457.201 314.701 458.328 320.337 457.201 323.718C456.074 327.099 449.312 330.48 449.312 330.48C449.312 330.48 448.185 338.369 444.804 340.623C441.423 342.877 434.661 344.004 434.661 344.004C434.661 344.004 433.534 351.893 429.026 354.147C424.518 356.401 418.883 351.893 415.502 350.766C412.121 349.639 410.993 350.766 410.993 350.766C410.993 350.766 409.866 356.401 407.612 358.655C405.809 360.458 401.977 362.036 398.596 360.909C396.23 360.12 394.088 358.655 391.834 358.655C387.326 358.655 385.072 363.163 380.564 362.036C373.915 360.346 372.675 355.274 372.675 355.274C369.294 356.401 363.208 357.641 358.024 355.274C349.571 351.442 349.007 345.131 349.007 345.131C349.007 345.131 343.372 345.131 339.991 342.877C336.61 340.623 333.229 337.242 333.229 329.353C333.229 321.464 337.737 314.701 337.737 314.701C337.737 314.701 332.102 310.193 332.102 303.431C332.102 296.669 335.145 293.175 335.145 293.175C335.145 293.175 330.975 284.272 341.118 280.891C341.118 277.51 343.372 275.256 345.626 274.129C350.134 271.875 357.46 270.973 362.532 268.494C367.152 266.352 373.914 262.971 375.042 258.463Z" fill="white" stroke="#0056FF" stroke-width="3" stroke-miterlimit="10" stroke-linecap="round" stroke-linejoin="round"></path><path d="M411.106 350.878C411.106 350.878 412.233 340.735 411.106 330.592C410.204 322.703 406.597 311.433 404.343 305.797C402.089 300.162 385.184 267.479 385.184 267.479" stroke="#0056FF" stroke-width="3" stroke-miterlimit="10" stroke-linecap="round" stroke-linejoin="round"></path><path d="M380.676 275.368C380.676 275.368 381.803 291.146 379.549 301.29C377.633 310.193 372.674 319.547 370.533 326.084C368.279 332.846 368.279 338.481 369.406 345.243C370.533 352.006 372.787 355.387 372.787 355.387" stroke="#0056FF" stroke-width="3" stroke-miterlimit="10" stroke-linecap="round" stroke-linejoin="round"></path><path d="M375.041 258.461C375.041 258.461 372.336 271.76 369.406 278.747C366.025 286.636 361.517 292.272 358.135 295.653C352.5 301.288 342.357 305.796 337.849 314.812" stroke="#0056FF" stroke-width="3" stroke-miterlimit="10" stroke-linecap="round" stroke-linejoin="round"></path><path d="M373.914 260.716C373.914 260.716 369.406 275.367 359.263 282.129C349.12 288.891 342.357 285.51 334.468 294.526" stroke="#0056FF" stroke-width="3" stroke-miterlimit="10" stroke-linecap="round" stroke-linejoin="round"></path><path d="M352.502 277.62C352.502 277.62 345.74 279.874 341.231 281.001L352.502 277.62Z" fill="white"></path><path d="M352.502 277.62C352.502 277.62 345.74 279.874 341.231 281.001" stroke="#0056FF" stroke-width="3" stroke-miterlimit="10" stroke-linecap="round" stroke-linejoin="round"></path><path d="M373.915 284.383C373.915 284.383 371.661 294.526 369.407 300.161C367.153 305.796 363.771 310.304 358.136 315.94C353.628 320.448 350.247 326.083 349.12 330.591C347.768 336.113 347.993 341.861 349.12 345.242" stroke="#0056FF" stroke-width="3" stroke-miterlimit="10" stroke-linecap="round" stroke-linejoin="round"></path><path d="M434.774 344.115C434.774 344.115 434.774 337.353 431.393 327.209C428.011 317.066 424.63 314.812 421.249 310.304C417.868 305.796 407.725 296.78 407.725 296.78" stroke="#0056FF" stroke-width="3" stroke-miterlimit="10" stroke-linecap="round" stroke-linejoin="round"></path><path d="M449.425 330.59C449.425 330.59 451.679 323.828 447.171 314.812C443.79 308.05 438.944 304.443 432.52 301.288C425.758 297.907 415.615 294.525 406.599 285.509" stroke="#0056FF" stroke-width="3" stroke-miterlimit="10" stroke-linecap="round" stroke-linejoin="round"></path><path d="M457.314 314.812C457.314 314.812 456.187 308.049 451.003 302.076C447.283 297.794 435.562 291.933 429.138 288.89C423.165 286.073 408.852 277.62 408.852 277.62" stroke="#0056FF" stroke-width="3" stroke-miterlimit="10" stroke-linecap="round" stroke-linejoin="round"></path><path d="M447.171 283.256C447.171 283.256 435.901 278.748 425.758 276.494C415.277 274.127 402.091 268.604 397.583 266.35" fill="white"></path><path d="M447.171 283.256C447.171 283.256 435.901 278.748 425.758 276.494C415.277 274.127 402.091 268.604 397.583 266.35" stroke="#0056FF" stroke-width="3" stroke-miterlimit="10" stroke-linecap="round" stroke-linejoin="round"></path><path d="M407.725 261.842C407.725 261.842 416.741 262.969 423.503 262.969L407.725 261.842Z" fill="white"></path><path d="M407.725 261.842C407.725 261.842 416.741 262.969 423.503 262.969" stroke="#0056FF" stroke-width="3" stroke-miterlimit="10" stroke-linecap="round" stroke-linejoin="round"></path><path d="M472.754 324.957C476.023 314.701 467.119 314.025 471.064 305.572C474.445 307.263 477.375 303.318 481.658 307.15C481.883 301.966 491.012 298.923 491.576 300.614C492.703 303.882 497.662 305.347 493.604 313.462C497.323 314.251 497.098 319.886 500.817 322.59C493.604 331.156 488.983 329.127 484.025 326.535" fill="#6BA3FF"></path><path d="M472.754 324.957C476.023 314.701 467.119 314.025 471.064 305.572C474.445 307.263 477.375 303.318 481.658 307.15C481.883 301.966 491.012 298.923 491.576 300.614C492.703 303.882 497.662 305.347 493.604 313.462C497.323 314.251 497.098 319.886 500.817 322.59C493.604 331.156 488.983 329.127 484.025 326.535" stroke="#0056FF" stroke-width="3" stroke-miterlimit="10" stroke-linecap="round" stroke-linejoin="round"></path><path d="M477.489 312.22C482.335 316.052 483.8 326.421 479.968 331.154L477.489 312.22Z" fill="#6BA3FF"></path><path d="M477.489 312.22C482.335 316.052 483.8 326.421 479.968 331.154" stroke="#0056FF" stroke-width="3" stroke-miterlimit="10" stroke-linecap="round" stroke-linejoin="round"></path><path d="M643.948 238.739C642.596 234.231 632.678 236.034 632.115 241.219C631.776 244.374 636.059 246.177 639.215 245.727" stroke="#0056FF" stroke-width="3" stroke-linecap="round" stroke-linejoin="round"></path><path d="M124.956 22.0141C128.504 22.0141 131.38 19.8444 131.38 17.168C131.38 14.4915 128.504 12.3218 124.956 12.3218C121.408 12.3218 118.532 14.4915 118.532 17.168C118.532 19.8444 121.408 22.0141 124.956 22.0141Z" stroke="#0056FF" stroke-width="3" stroke-linecap="round" stroke-linejoin="round"></path><path d="M547.365 308.839C550.913 308.839 553.789 306.67 553.789 303.993C553.789 301.317 550.913 299.147 547.365 299.147C543.818 299.147 540.941 301.317 540.941 303.993C540.941 306.67 543.818 308.839 547.365 308.839Z" stroke="#0056FF" stroke-width="3" stroke-linecap="round" stroke-linejoin="round"></path><path d="M251.681 329.256C251.681 329.256 248.694 323.347 236.709 315.977C229.985 311.713 217.419 306.847 206.049 308.627" fill="#D6E6FF"></path><path d="M251.681 329.256C251.681 329.256 248.694 323.347 236.709 315.977C229.985 311.713 217.419 306.847 206.049 308.627" stroke="#0056FF" stroke-width="3" stroke-linecap="round" stroke-linejoin="round"></path><path d="M582.816 303.016C582.816 303.016 584.973 298.748 593.628 293.426C598.484 290.347 607.559 286.833 615.77 288.118" fill="#D6E6FF"></path><path d="M582.816 303.016C582.816 303.016 584.973 298.748 593.628 293.426C598.484 290.347 607.559 286.833 615.77 288.118" stroke="#0056FF" stroke-width="3" stroke-linecap="round" stroke-linejoin="round"></path><path d="M360.867 152.378C360.867 152.378 364.821 148.583 376.202 146.116C382.623 144.631 393.771 144.278 402.161 148.787" fill="#D6E6FF"></path><path d="M360.867 152.378C360.867 152.378 364.821 148.583 376.202 146.116C382.623 144.631 393.771 144.278 402.161 148.787" stroke="#0056FF" stroke-width="3" stroke-linecap="round" stroke-linejoin="round"></path><path d="M286.126 169.946C286.126 169.946 288.908 167.897 295.655 167.646C299.476 167.443 305.777 168.576 309.809 172.618" fill="#D6E6FF"></path><path d="M286.126 169.946C286.126 169.946 288.908 167.897 295.655 167.646C299.476 167.443 305.777 168.576 309.809 172.618" stroke="#0056FF" stroke-width="3" stroke-linecap="round" stroke-linejoin="round"></path><path d="M554.116 116.947C554.116 116.947 551.656 115.045 545.113 114.363C541.415 113.925 535.137 114.425 530.715 117.506" fill="#D6E6FF"></path><path d="M554.116 116.947C554.116 116.947 551.656 115.045 545.113 114.363C541.415 113.925 535.137 114.425 530.715 117.506" stroke="#0056FF" stroke-width="3" stroke-linecap="round" stroke-linejoin="round"></path></svg> 