<?xml version="1.0" encoding="UTF-8"?> <svg xmlns="http://www.w3.org/2000/svg" width="460" height="280" viewBox="0 0 460 280" fill="none"><path d="M444.467 24.8274C442.515 23.0759 438.962 26.0537 438.962 26.0537C438.962 26.0537 417.694 44.8464 395.45 62.7633C382.191 73.4158 359.444 90.6171 355.876 93.3171L353.969 92.3989C362.181 86.2906 378.688 73.8839 388.992 65.2482C410.31 47.3814 429.676 27.7632 429.676 27.7632C429.676 27.7632 432.431 25.4785 432.281 22.7011C432.216 21.4975 431.74 19.5733 430.179 18.1721C428.227 16.4207 424.674 19.3985 424.674 19.3985C424.674 19.3985 403.406 38.1911 381.162 56.108C368.263 66.5553 346.407 83.0584 341.856 86.4616L340.52 85.7911C348.732 79.6828 365.326 67.1785 375.63 58.5429C396.948 40.6761 416.314 21.0578 416.314 21.0578C416.314 21.0578 419.019 17.8473 418.919 15.9957C418.809 13.9589 418.378 12.8679 416.817 11.4668C414.865 9.71528 411.312 12.6931 411.312 12.6931C411.312 12.6931 390.044 31.4857 367.8 49.4026C354.809 59.855 332.777 76.5532 328.494 79.7563L325.539 78.3377C333.035 72.7324 351.153 59.2171 362.167 49.9859C383.485 32.1191 402.852 12.5008 402.852 12.5008C402.852 12.5008 405.479 9.57307 405.456 7.43868C405.434 5.30428 404.916 4.31092 403.354 2.90975C401.403 1.15828 397.849 4.13608 397.849 4.13608C397.849 4.13608 376.581 22.9287 354.337 40.8456C339.925 52.4891 321.384 66.7701 314.228 71.7999C307.072 76.8297 289.016 86.3489 282.776 91.1434C271.191 100.127 269.84 109.485 262.634 113.589C260.883 115.541 223.826 134.259 204.934 145.495C186.043 156.731 141.154 185.158 132.147 190.288C123.139 195.418 106.875 203.726 99.6185 206.904C92.3622 210.082 59.5335 221.144 52.3273 225.248C45.1211 229.352 29.1575 243.215 24.0033 250.922C18.849 258.629 15.4462 264.384 13.7449 267.262C12.0435 270.139 15.3291 274.233 15.9972 274.568C18.8698 276.177 21.7524 277.971 25.4557 277.771C29.159 277.57 35.4895 274.442 40.1186 274.192C44.7477 273.941 57.0338 277.919 70.7207 273.465C84.4077 269.01 88.8866 265.982 93.3654 262.954C97.8442 259.927 153.416 205.851 160.522 199.895C167.628 193.94 198.78 169.041 213.092 158.982C227.404 148.922 252.631 134.651 259.883 131.38C271.668 126.1 286.431 124.373 296.665 124.748C305.037 125.038 316.115 125.553 322.688 125.197C329.169 124.846 341.5 122.786 346.559 120.191C354.691 116.037 394.75 84.1573 407.061 71.4204C419.371 58.6836 446.301 32.9921 446.669 31.208C447.395 27.4546 446.369 25.6531 444.467 24.8274Z" fill="#6BA3FF" stroke="#003DB3" stroke-width="3" stroke-miterlimit="10" stroke-linecap="round" stroke-linejoin="round"></path><path d="M403.355 2.90982C405.307 4.66129 401.754 7.63909 401.754 7.63909C401.754 7.63909 382.387 27.2574 361.069 45.1242C346.857 57.0354 320.96 76.0784 320.96 76.0784L328.567 79.381" stroke="#003DB3" stroke-width="3" stroke-miterlimit="10" stroke-linecap="round" stroke-linejoin="round"></path><path d="M416.817 11.467C418.769 13.2185 415.216 16.1963 415.216 16.1963C415.216 16.1963 395.85 35.8146 374.532 53.6814C360.32 65.5926 336.224 83.6097 336.224 83.6097L341.929 86.0866" stroke="#003DB3" stroke-width="3" stroke-miterlimit="10" stroke-linecap="round" stroke-linejoin="round"></path><path d="M430.18 18.1726C432.131 19.9241 428.578 22.9019 428.578 22.9019C428.578 22.9019 409.212 42.5201 387.894 60.387C373.682 72.2982 349.586 90.3152 349.586 90.3152L356.267 93.6679" stroke="#003DB3" stroke-width="3" stroke-miterlimit="10" stroke-linecap="round" stroke-linejoin="round"></path><path d="M444.468 24.8278C446.419 26.5793 442.866 29.5571 442.866 29.5571C442.866 29.5571 422.509 48.0219 402.182 67.0422C388.926 79.4588 367.778 97.0379 367.778 97.0379C362.423 101.042 350.738 111.609 345.283 113.761C339.829 115.913 324.76 118.864 314.932 119.117" stroke="#003DB3" stroke-width="3" stroke-miterlimit="10" stroke-linecap="round" stroke-linejoin="round"></path><path d="M13.7442 267.263C13.7442 267.263 21.0459 271.789 24.7492 271.589C28.4525 271.389 36.552 268.351 40.2553 268.15C43.9586 267.95 55.4614 269.463 61.0163 269.163C66.5712 268.862 83.1457 262.859 89.6788 258.327C101.411 250.357 138.903 212.209 138.903 212.209" stroke="#003DB3" stroke-width="3" stroke-miterlimit="10" stroke-linecap="round" stroke-linejoin="round"></path></svg> 