<?xml version="1.0" encoding="UTF-8"?> <svg xmlns="http://www.w3.org/2000/svg" width="31" height="167" viewBox="0 0 31 167" fill="none"><path d="M8.56812 144.499V159.535V161.218C8.56812 162.34 11.4857 165.146 15.0765 165.146C18.6672 165.146 21.5847 162.34 21.5847 161.218V159.535V144.499" fill="#E6F0FF"></path><path d="M8.56812 144.499V159.535V161.218C8.56812 162.34 11.4857 165.146 15.0765 165.146C18.6672 165.146 21.5847 162.34 21.5847 161.218V159.535V144.499" stroke="#0047CC" stroke-width="3" stroke-linecap="round" stroke-linejoin="round"></path><path d="M15.0777 113.865C7.55949 113.865 1.5 116.222 1.5 118.578V122.169V126.658V143.602V148.09V151.681C1.5 154.037 7.55949 158.077 15.0777 158.077C22.5959 158.077 28.6553 154.037 28.6553 151.681V148.09V143.602V126.658V122.169V118.578C28.6553 116.222 22.5959 113.865 15.0777 113.865Z" fill="#E6F0FF" stroke="#0047CC" stroke-width="3" stroke-linecap="round" stroke-linejoin="round"></path><path d="M4.41626 44.1394V119.025V119.474C4.41626 123.962 9.12916 125.533 15.0764 125.533C21.0236 125.533 25.7365 123.85 25.7365 119.474V119.025V44.1394" fill="#CCE0FF"></path><path d="M4.41626 44.1394V119.025V119.474C4.41626 123.962 9.12916 125.533 15.0764 125.533C21.0236 125.533 25.7365 123.85 25.7365 119.474V119.025V44.1394" stroke="#0047CC" stroke-width="3" stroke-linecap="round" stroke-linejoin="round"></path><path d="M18.4424 30.6751C18.4424 27.0843 18.4424 5.42742 18.4424 5.42742C18.4424 4.52972 17.8813 1.5 14.9638 1.5C11.7096 1.5 11.373 4.52972 11.373 5.42742C11.373 5.42742 11.373 27.421 11.373 30.6751C11.373 33.9293 4.52808 39.8765 4.52808 44.1405C4.52808 46.7214 11.2608 48.4046 14.9638 48.4046C18.6668 48.4046 25.7362 46.7214 25.7362 44.1405C25.7362 39.091 18.4424 34.1537 18.4424 30.6751Z" fill="#E6F0FF" stroke="#0047CC" stroke-width="3" stroke-linecap="round" stroke-linejoin="round"></path><path d="M18.4417 26.1866C18.4417 22.5958 18.4417 5.42742 18.4417 5.42742C18.4417 4.52972 17.8806 1.5 14.9631 1.5C11.709 1.5 11.3723 4.52972 11.3723 5.42742C11.3723 5.42742 11.3723 22.9325 11.3723 26.1866C11.3723 29.4408 18.4417 29.6652 18.4417 26.1866Z" fill="#E6F0FF" stroke="#0047CC" stroke-width="3" stroke-linecap="round" stroke-linejoin="round"></path></svg> 