<?xml version="1.0" encoding="UTF-8"?> <svg xmlns="http://www.w3.org/2000/svg" width="219" height="226" viewBox="0 0 219 226" fill="none"><path d="M191.247 1.9488C191.247 1.9488 183.26 7.43199 187.254 30.8604C191.247 54.2889 210.217 91.6747 214.71 117.047C225.193 157.922 199.235 167.393 199.235 167.393L134.837 206.275C156.303 190.822 166.786 151.941 155.305 129.061C136.834 86.69 117.864 56.3326 138.831 38.8858C146.818 33.4026 191.747 1.50003 191.747 1.50003L191.247 1.99854V1.9488Z" fill="#2968FF" stroke="#0047CC" stroke-width="3" stroke-linecap="round" stroke-linejoin="round"></path><path d="M17.5245 147.953C113.871 211.259 204.228 164.452 204.228 164.452L136.336 209.415C95.4007 232.345 40.4381 228.158 1.5 203.234C8.48889 188.28 17.4746 147.903 17.4746 147.903L17.5245 147.953Z" fill="#5C8DFF" stroke="#0047CC" stroke-width="3" stroke-linecap="round" stroke-linejoin="round"></path></svg> 