<?xml version="1.0" encoding="UTF-8"?> <svg xmlns="http://www.w3.org/2000/svg" width="31" height="167" viewBox="0 0 31 167" fill="none"><path d="M8.56836 144.499V159.535V161.218C8.56836 162.34 11.4859 165.146 15.0766 165.146C18.6674 165.146 21.5849 162.34 21.5849 161.218V159.535V144.499" fill="#E6F0FF"></path><path d="M8.56836 144.499V159.535V161.218C8.56836 162.34 11.4859 165.146 15.0766 165.146C18.6674 165.146 21.5849 162.34 21.5849 161.218V159.535V144.499" stroke="#0047CC" stroke-width="3" stroke-linecap="round" stroke-linejoin="round"></path><path d="M15.0776 113.865C7.55942 113.865 1.5 116.222 1.5 118.578V122.169V126.658V143.602V148.09V151.681C1.5 154.037 7.55942 158.077 15.0776 158.077C22.5958 158.077 28.6552 154.037 28.6552 151.681V148.09V143.602V126.658V122.169V118.578C28.6552 116.222 22.4836 113.865 15.0776 113.865Z" fill="#E6F0FF" stroke="#0047CC" stroke-width="3" stroke-linecap="round" stroke-linejoin="round"></path><path d="M4.4165 44.2529V119.138V119.587C4.4165 124.076 9.12941 125.647 15.0766 125.647C21.0239 125.647 25.7368 123.963 25.7368 119.587V119.138V44.2529" fill="#CCE0FF"></path><path d="M4.4165 44.2529V119.138V119.587C4.4165 124.076 9.12941 125.647 15.0766 125.647C21.0239 125.647 25.7368 123.963 25.7368 119.587V119.138V44.2529" stroke="#0047CC" stroke-width="3" stroke-linecap="round" stroke-linejoin="round"></path><path d="M18.3308 30.6751C18.3308 27.0843 18.3308 5.42742 18.3308 5.42742C18.3308 4.52972 17.7697 1.5 14.8522 1.5C11.5981 1.5 11.2614 4.52972 11.2614 5.42742C11.2614 5.42742 11.2614 27.421 11.2614 30.6751C11.2614 33.9293 4.4165 39.8765 4.4165 44.1405C4.4165 46.7214 11.1492 48.4046 14.8522 48.4046C18.5552 48.4046 25.6246 46.7214 25.6246 44.1405C25.6246 39.091 18.3308 34.2659 18.3308 30.6751Z" fill="#E6F0FF" stroke="#0047CC" stroke-width="3" stroke-linecap="round" stroke-linejoin="round"></path><path d="M18.3309 26.1866C18.3309 22.5958 18.3309 5.42742 18.3309 5.42742C18.3309 4.52972 17.7698 1.5 14.8523 1.5C11.5981 1.5 11.2615 4.52972 11.2615 5.42742C11.2615 5.42742 11.2615 22.9325 11.2615 26.1866C11.2615 29.4408 18.3309 29.7774 18.3309 26.1866Z" fill="#E6F0FF" stroke="#0047CC" stroke-width="3" stroke-linecap="round" stroke-linejoin="round"></path></svg> 