<?xml version="1.0" encoding="UTF-8"?> <svg xmlns="http://www.w3.org/2000/svg" width="180" height="220" viewBox="0 0 180 220" fill="none"><path d="M1.49986 1.80194C4.81885 14.4833 9.64647 29.2781 18.0948 40.1478C25.9397 49.8098 36.1984 57.9621 46.4571 60.9814C52.7933 63.3969 104.087 66.1143 120.983 69.7376C155.984 78.1918 158.096 91.477 157.191 90.2692L146.63 56.1504C146.63 56.1504 143.311 43.4691 119.777 37.4304C107.708 33.8072 65.1641 36.8265 36.5001 27.7684C21.7155 22.6355 9.9482 12.0678 1.49986 1.5V1.80194Z" fill="#6BA3FF" stroke="#003DB3" stroke-width="3" stroke-linecap="round" stroke-linejoin="round"></path><path d="M146.026 55.2141C146.026 55.2141 147.837 60.649 137.88 70.3109C127.923 79.9729 105.595 91.1445 94.4309 102.014C75.1204 118.017 84.1723 131.604 84.1723 131.604L101.371 172.969C96.543 157.872 105.293 135.831 118.569 128.887C142.405 114.997 162.018 107.147 158.397 91.4766C156.587 86.0418 146.328 54.9424 146.328 54.9424L146.026 55.2443V55.2141Z" fill="#4D8AFF" stroke="#003DB3" stroke-width="3" stroke-linecap="round" stroke-linejoin="round"></path><path d="M176.198 189.848L178.009 185.319L176.802 185.923C108.913 182.602 82.965 127.377 82.965 127.377L101.069 172.94C112.534 198.302 137.577 216.418 165.035 218.2C167.147 208.538 170.767 199.48 175.897 189.516L176.198 189.818V189.848Z" fill="#6BA3FF" stroke="#003DB3" stroke-width="3" stroke-linecap="round" stroke-linejoin="round"></path></svg> 