<?xml version="1.0" encoding="UTF-8"?> <svg xmlns="http://www.w3.org/2000/svg" width="31" height="177" viewBox="0 0 31 177" fill="none"><path d="M8.56812 153.905V168.941V170.625C8.56812 171.747 11.4857 174.552 15.0765 174.552C18.6672 174.552 21.5847 171.747 21.5847 170.625V168.941V153.905" fill="#E6F0FF"></path><path d="M8.56812 153.905V168.941V170.625C8.56812 171.747 11.4857 174.552 15.0765 174.552C18.6672 174.552 21.5847 171.747 21.5847 170.625V168.941V153.905" stroke="#0047CC" stroke-width="3" stroke-linecap="round" stroke-linejoin="round"></path><path d="M15.0777 123.272C7.55949 123.272 1.5 125.628 1.5 127.985V131.576V136.064V153.008V157.496V161.087C1.5 163.444 7.55949 167.483 15.0777 167.483C22.5959 167.483 28.6553 163.444 28.6553 161.087V157.496V153.008V136.064V131.576V127.985C28.6553 125.628 22.5959 123.272 15.0777 123.272Z" fill="#E6F0FF" stroke="#0047CC" stroke-width="3" stroke-linecap="round" stroke-linejoin="round"></path><path d="M4.41626 44.2531V128.544V128.993C4.41626 133.482 9.12916 135.052 15.0764 135.052C20.9114 135.052 25.7365 133.369 25.7365 128.993V128.544V44.2531" fill="#CCE0FF"></path><path d="M4.41626 44.2531V128.544V128.993C4.41626 133.482 9.12916 135.052 15.0764 135.052C20.9114 135.052 25.7365 133.369 25.7365 128.993V128.544V44.2531" stroke="#0047CC" stroke-width="3" stroke-linecap="round" stroke-linejoin="round"></path><path d="M18.4439 30.6751C18.4439 27.0843 18.4439 5.42742 18.4439 5.42742C18.4439 4.52972 17.8827 1.5 14.9652 1.5C11.7111 1.5 11.3744 4.52972 11.3744 5.42742C11.3744 5.42742 11.3744 27.421 11.3744 30.6751C11.3744 33.9293 4.52954 39.8765 4.52954 44.1405C4.52954 46.7214 11.2622 48.4046 14.9652 48.4046C18.6682 48.4046 25.7376 46.7214 25.7376 44.1405C25.7376 39.091 18.4439 34.2659 18.4439 30.6751Z" fill="#E6F0FF" stroke="#0047CC" stroke-width="3" stroke-linecap="round" stroke-linejoin="round"></path><path d="M18.4437 26.1866C18.4437 22.5958 18.4437 5.42742 18.4437 5.42742C18.4437 4.52972 17.8826 1.5 14.9651 1.5C11.7109 1.5 11.3743 4.52972 11.3743 5.42742C11.3743 5.42742 11.3743 22.9325 11.3743 26.1866C11.3743 29.4408 18.4437 29.7774 18.4437 26.1866Z" fill="#E6F0FF" stroke="#0047CC" stroke-width="3" stroke-linecap="round" stroke-linejoin="round"></path></svg> 