<?xml version="1.0" encoding="UTF-8"?> <svg xmlns="http://www.w3.org/2000/svg" width="31" height="177" viewBox="0 0 31 177" fill="none"><path d="M8.68311 153.903V168.939V170.623C8.68311 171.745 11.6006 174.55 15.1914 174.55C18.7822 174.55 21.6997 171.745 21.6997 170.623V168.939V153.903" fill="#E6F0FF"></path><path d="M8.68311 153.903V168.939V170.623C8.68311 171.745 11.6006 174.55 15.1914 174.55C18.7822 174.55 21.6997 171.745 21.6997 170.623V168.939V153.903" stroke="#0047CC" stroke-width="3" stroke-linecap="round" stroke-linejoin="round"></path><path d="M15.0777 123.27C7.55949 123.27 1.5 125.626 1.5 127.983V131.574V136.062V153.006V157.495V161.085C1.5 163.442 7.55949 167.481 15.0777 167.481C22.5959 167.481 28.6553 163.442 28.6553 161.085V157.495V153.006V136.062V131.574V127.983C28.6553 125.626 22.5959 123.27 15.0777 123.27Z" fill="#E6F0FF" stroke="#0047CC" stroke-width="3" stroke-linecap="round" stroke-linejoin="round"></path><path d="M4.53125 44.2535V128.432V128.881C4.53125 133.37 9.24415 134.941 15.1914 134.941C21.1386 134.941 25.8515 133.258 25.8515 128.881V128.432V44.1412" fill="#CCE0FF"></path><path d="M4.53125 44.2535V128.432V128.881C4.53125 133.37 9.24415 134.941 15.1914 134.941C21.1386 134.941 25.8515 133.258 25.8515 128.881V128.432V44.1412" stroke="#0047CC" stroke-width="3" stroke-linecap="round" stroke-linejoin="round"></path><path d="M18.4456 30.6751C18.4456 27.0843 18.4456 5.42742 18.4456 5.42742C18.4456 4.52972 17.8845 1.5 14.9669 1.5C11.7128 1.5 11.3762 4.52972 11.3762 5.42742C11.3762 5.42742 11.3762 27.421 11.3762 30.6751C11.3762 33.9293 4.53125 39.8765 4.53125 44.1405C4.53125 46.7214 11.264 48.4046 14.9669 48.4046C18.6699 48.4046 25.7393 46.7214 25.7393 44.1405C25.7393 39.091 18.4456 34.2659 18.4456 30.6751Z" fill="#E6F0FF" stroke="#0047CC" stroke-width="3" stroke-linecap="round" stroke-linejoin="round"></path><path d="M18.4443 26.1866C18.4443 22.5958 18.4443 5.42742 18.4443 5.42742C18.4443 4.52972 17.8832 1.5 14.9657 1.5C11.7116 1.5 11.375 4.52972 11.375 5.42742C11.375 5.42742 11.375 22.9325 11.375 26.1866C11.375 29.4408 18.4443 29.7774 18.4443 26.1866Z" fill="#E6F0FF" stroke="#0047CC" stroke-width="3" stroke-linecap="round" stroke-linejoin="round"></path></svg> 