<?xml version="1.0" encoding="UTF-8"?> <svg xmlns="http://www.w3.org/2000/svg" width="470" height="590" viewBox="0 0 470 590" fill="none"><path d="M434.06 156.124C421.226 188.632 390.172 211.491 354.387 213.115C303.162 213.339 259.204 212.919 227.151 211.999C174.099 211.238 147.465 243.386 147.465 243.386C147.465 243.386 176.081 201.563 189.536 181.01C205.264 162.073 243.428 160.3 293.789 161.967C328.589 162.168 366.623 177.929 413.194 151.959C442.011 137.319 459.486 104.953 459.486 104.953L434.116 156.311L434.06 156.124Z" fill="#D6E6FF" stroke="#0056FF" stroke-width="3" stroke-linecap="round" stroke-linejoin="round"></path><path d="M264.677 422.498L233.798 482.832C223.319 504.82 195.417 529.224 146.019 530.432C87.3403 531.354 45.9153 509.057 31.9026 487.538C20.5595 469.811 24.0411 461.511 28.5454 457.109C42.4589 443.513 66.9184 422.683 66.9184 422.683C66.9184 422.683 110.306 471.634 159.627 474.94C223.523 481.536 264.742 422.376 264.742 422.376L264.677 422.498Z" fill="#D6E6FF" stroke="#0056FF" stroke-width="3" stroke-linecap="round" stroke-linejoin="round"></path><path d="M265.585 420.798L233.788 482.84C241.648 464.201 231.705 418.894 217.05 390.119C202.395 361.345 176.41 340.449 159.229 303.248C142.047 266.047 144.511 248.418 146.344 245.275C156.749 227.43 189.547 180.999 189.547 180.999C178.238 197.824 179.879 226.265 188.331 249.345C200.842 283.506 222.36 302.523 252.013 350.991C265.183 369.701 272.182 409.22 265.397 420.854L265.585 420.798Z" fill="#F0F5FF" stroke="#0056FF" stroke-width="3" stroke-linecap="round" stroke-linejoin="round"></path></svg> 