<?xml version="1.0" encoding="UTF-8"?> <svg xmlns="http://www.w3.org/2000/svg" width="603" height="644" viewBox="0 0 603 644" fill="none"><path d="M71.4551 497.614C71.4551 497.614 77.6468 475.732 75.1257 461.971C73.1194 451.055 70.082 440.539 66.3946 434.547C62.7072 428.555 50.0532 413.433 50.0532 413.433C50.0532 413.433 45.1611 427.485 43.5062 433.857C39.9742 447.519 44.175 462.444 46.9915 467.787C52.7754 478.97 71.4551 497.614 71.4551 497.614Z" fill="#6BA3FF" stroke="#0056FF" stroke-width="3" stroke-miterlimit="10" stroke-linecap="round" stroke-linejoin="round"></path><path d="M50.0532 413.433C50.0532 413.433 59.6908 441.408 62.3725 452.902C65.0542 464.395 71.4551 497.614 71.4551 497.614" stroke="#0056FF" stroke-width="3" stroke-miterlimit="10" stroke-linecap="round" stroke-linejoin="round"></path><path d="M66.6374 494.422C66.6374 494.422 66.7037 477.507 59.7908 466.687C52.7446 455.93 24.2861 442.253 24.2861 442.253C24.2861 442.253 24.2369 462.163 32.0208 473.632C39.8046 485.1 66.6374 494.422 66.6374 494.422Z" fill="#6BA3FF" stroke="#0056FF" stroke-width="3" stroke-miterlimit="10" stroke-linecap="round" stroke-linejoin="round"></path><path d="M24.2861 442.253C24.2861 442.253 38.8853 463.287 48.3225 474.471C53.7431 480.872 66.7352 494.457 66.7352 494.457" stroke="#0056FF" stroke-width="3" stroke-miterlimit="10" stroke-linecap="round" stroke-linejoin="round"></path><path d="M155.846 528.878C155.846 528.878 163.404 517.235 174.161 508.971C184.919 500.707 207.764 495.735 207.764 495.735C207.764 495.735 203.581 516.356 196.113 524.71C188.306 533.383 178.332 537.061 172.376 538.215C166.883 539.316 155.221 539.722 155.221 539.722L155.846 528.878Z" fill="#6BA3FF" stroke="#0056FF" stroke-width="3" stroke-miterlimit="10" stroke-linecap="round" stroke-linejoin="round"></path><path d="M192.917 509.154C192.917 509.154 182.426 519.729 176.736 523.195C171.047 526.66 156.299 534.025 156.299 534.025" stroke="#0056FF" stroke-width="3" stroke-miterlimit="10" stroke-linecap="round" stroke-linejoin="round"></path><path d="M161.253 549.005C161.253 549.005 162.997 540.561 174.483 535.773C185.968 530.985 206.98 532.874 206.98 532.874C206.98 532.874 195.359 551.12 180.514 552.361C169.563 553.247 161.253 549.005 161.253 549.005Z" fill="#6BA3FF" stroke="#0056FF" stroke-width="3" stroke-miterlimit="10" stroke-linecap="round" stroke-linejoin="round"></path><path d="M160.905 548.435C160.905 548.435 170.239 544.082 177.884 541.328C185.529 538.574 207.396 533.246 207.396 533.246" stroke="#0056FF" stroke-width="3" stroke-miterlimit="10" stroke-linecap="round" stroke-linejoin="round"></path><path d="M38.0259 522.54C49.149 526.588 61.5111 520.677 65.6374 509.338C69.7638 497.999 64.0918 485.525 52.9687 481.478C41.8456 477.43 29.4835 483.341 25.3572 494.68C21.2309 506.019 26.9028 518.492 38.0259 522.54Z" fill="#4D8AFF" stroke="#0056FF" stroke-width="3" stroke-miterlimit="10" stroke-linecap="round" stroke-linejoin="round"></path><path d="M41.8121 486.275C41.8121 486.275 36.2122 486.452 33.4556 490.984" stroke="#0056FF" stroke-width="3" stroke-miterlimit="10" stroke-linecap="round" stroke-linejoin="round"></path><path d="M85.2044 506.382C96.8134 510.606 109.649 504.62 113.874 493.011C118.098 481.402 112.112 468.566 100.503 464.342C88.8939 460.117 76.0582 466.103 71.8336 477.712C67.609 489.321 73.5953 502.157 85.2044 506.382Z" fill="#4D8AFF" stroke="#0056FF" stroke-width="3" stroke-miterlimit="10" stroke-linecap="round" stroke-linejoin="round"></path><path d="M88.4649 494.694C90.0958 494.137 90.5887 491.26 89.5658 488.27C88.5429 485.28 86.3916 483.309 84.7607 483.867C83.1297 484.425 82.6368 487.301 83.6597 490.291C84.6826 493.281 86.834 495.252 88.4649 494.694Z" stroke="#0056FF" stroke-width="3" stroke-miterlimit="10" stroke-linecap="round" stroke-linejoin="round"></path><path d="M66.4663 541.746C80.2351 546.756 95.5385 539.438 100.647 525.399C105.756 511.36 98.7358 495.917 84.9669 490.907C71.198 485.896 55.8946 493.215 50.7858 507.254C45.677 521.293 52.6974 536.735 66.4663 541.746Z" fill="#4D8AFF" stroke="#0056FF" stroke-width="3" stroke-miterlimit="10" stroke-linecap="round" stroke-linejoin="round"></path><path d="M72.0295 512.77C76.0299 510.904 77.5158 504.691 75.677 499.704C73.3659 499.97 68.7436 500.503 67.3205 504.413C67.3205 504.413 66.0411 501.844 62.7879 501.657C60.9479 501.541 60.1299 502.572 56.8321 502.811C57.454 504.144 57.4983 504.935 57.3644 507.433C57.1683 509.797 61.1854 512.145 61.1854 512.145C61.1854 512.145 56.9189 511.7 55.4958 515.61C54.4285 518.543 56.028 520.233 54.9607 523.166C54.9607 523.166 58.9611 521.3 62.2499 521.39C65.5387 521.479 67.2279 519.88 66.9618 517.569" stroke="#0056FF" stroke-width="3" stroke-miterlimit="10" stroke-linecap="round" stroke-linejoin="round"></path><path d="M65.4519 512.589C65.4519 512.589 67.9423 505.745 75.408 509.569" stroke="#0056FF" stroke-width="3" stroke-miterlimit="10" stroke-linecap="round" stroke-linejoin="round"></path><path d="M159.747 566.835C164.674 558.774 171.424 542.963 168.645 530.216C165.715 516.971 158.134 510.116 148.296 503.989C135.676 496.075 117.898 496.249 107.23 501.224C96.5627 506.199 89.45 513.575 85.9818 520.063C82.5137 526.551 78.4754 538.256 80.2865 547.883C82.8608 562.106 90.1471 572.508 103.123 579.444C111.557 583.952 131.21 587.45 141.521 583.453C151.202 579.669 154.234 575.9 159.747 566.835Z" fill="#2968FF" stroke="#0047CC" stroke-width="3" stroke-miterlimit="10" stroke-linecap="round" stroke-linejoin="round"></path><path d="M139.493 512.964C139.493 512.964 137.268 522.119 129.713 521.584C122.158 521.049 117.359 515.981 117.359 515.981" stroke="#0047CC" stroke-width="3" stroke-miterlimit="10" stroke-linecap="round" stroke-linejoin="round"></path><path d="M132.381 520.34C132.381 520.34 132.742 495.007 124.927 467.805C122.253 458.418 112.881 435.19 110.447 431.536C107.603 427.18 104.404 423.801 98.272 419.355C92.3975 415.114 82.4498 420.241 83.3378 423.885C84.2258 427.53 99.9583 429.933 103.157 433.312C104.757 435.001 113.863 455.919 116.483 463.626C125.011 488.872 125.181 518.827 125.181 518.827" fill="#2968FF"></path><path d="M132.381 520.34C132.381 520.34 132.742 495.007 124.927 467.805C122.253 458.418 112.881 435.19 110.447 431.536C107.603 427.18 104.404 423.801 98.272 419.355C92.3975 415.114 82.4498 420.241 83.3378 423.885C84.2258 427.53 99.9583 429.933 103.157 433.312C104.757 435.001 113.863 455.919 116.483 463.626C125.011 488.872 125.181 518.827 125.181 518.827" stroke="#0047CC" stroke-width="3" stroke-miterlimit="10" stroke-linecap="round" stroke-linejoin="round"></path><path d="M204.227 563.869C204.227 563.869 209.399 567.301 212.066 566.057C214.733 564.813 226.069 554.656 235.536 550.241C248.871 544.022 268.87 546.871 268.87 546.871C268.87 546.871 264.743 555.777 259.622 560.113C253.221 565.534 244.243 568.909 237.665 568.73C231.088 568.551 216.599 568.814 216.599 568.814C216.599 568.814 226.286 575.66 233.485 577.173C240.685 578.686 254.552 577.089 264.062 578.336C273.573 579.583 288.202 588.67 292.325 591.943C297.48 596.033 303.878 602.79 303.878 602.79C303.878 602.79 292.855 608.742 280.677 608.739C275.38 608.694 266.278 605.714 266.278 605.714C266.278 605.714 268.41 612.025 268.231 618.603C268.105 623.207 265.65 628.736 265.65 628.736C265.65 628.736 258.185 624.912 254.008 621.177C249.831 617.443 245.388 611.398 245.388 611.398C245.388 611.398 245.654 613.709 243.164 620.553C238.631 617.796 233.211 611.395 231.701 606.417C229.312 598.683 230.995 584.017 230.995 584.017C230.995 584.017 226.818 580.283 221.93 578.504C217.041 576.725 212.509 573.968 212.509 573.968C212.509 573.968 219.529 582.059 220.593 591.303C221.658 600.548 215.344 614.857 215.344 614.857C215.344 614.857 203.836 602.366 201.304 595.023C198.675 587.645 204.227 563.869 204.227 563.869Z" fill="#6BA3FF" stroke="#0056FF" stroke-width="3" stroke-miterlimit="10" stroke-linecap="round" stroke-linejoin="round"></path><path d="M222.679 564.272C222.679 564.272 232.103 556.63 239.748 553.876C247.393 551.122 268.905 546.772 268.905 546.772" stroke="#0056FF" stroke-width="3" stroke-miterlimit="10" stroke-linecap="round" stroke-linejoin="round"></path><path d="M233.521 577.074C240.987 580.898 246.853 583.032 255.206 590.501C264.075 598.378 266.314 605.614 266.314 605.614" stroke="#0056FF" stroke-width="3" stroke-miterlimit="10" stroke-linecap="round" stroke-linejoin="round"></path><path d="M245.424 611.299C245.424 611.299 245.337 602.41 241.25 595.387C237.162 588.364 231.03 583.918 231.03 583.918" stroke="#0056FF" stroke-width="3" stroke-miterlimit="10" stroke-linecap="round" stroke-linejoin="round"></path><path d="M258.122 592.225C258.122 592.225 269.098 597.659 278.315 600.017C288.448 602.597 303.914 602.689 303.914 602.689" stroke="#0056FF" stroke-width="3" stroke-miterlimit="10" stroke-linecap="round" stroke-linejoin="round"></path><path d="M147.442 581.178C145.224 564.76 156.792 549.705 173.307 547.523C189.823 545.34 204.878 556.908 207.096 573.326C209.315 589.744 197.747 604.799 181.231 606.981C164.715 609.164 149.66 597.596 147.442 581.178Z" fill="#4D8AFF" stroke="#0056FF" stroke-width="3" stroke-linecap="round" stroke-linejoin="round"></path><path d="M172.25 583.897C170.542 588.59 175.591 589.32 175.359 592.999C180.407 593.73 181.981 590.317 183.626 589.144C185.199 591.82 191.776 593.217 197.555 588.898C196.773 584.96 197.174 582.338 195.175 579.618C202.722 576.829 200.296 572.846 201.524 570.082C202.155 568.651 194.449 565.182 191.169 568.417C190.619 563.235 186.414 564.14 185.117 561.011C177.428 564.192 175.702 567.107 176.306 572.751" stroke="#0056FF" stroke-width="3" stroke-linecap="round" stroke-linejoin="round"></path><path d="M190.383 585.179C182.001 584.786 182.455 580.191 179.139 581.087C184.428 580.244 184.545 573.533 181.933 570.368" stroke="#0056FF" stroke-width="3" stroke-linecap="round" stroke-linejoin="round"></path><path d="M391.217 51.0916C384.247 34.3412 361.566 30.3877 361.566 30.3877C361.566 30.3877 354.387 52.2361 372.178 65.137C382.166 72.4199 394.234 74.6047 394.234 74.6047C394.234 74.6047 395.171 60.5593 391.217 51.0916Z" fill="#6BA3FF" stroke="#0056FF" stroke-width="3" stroke-miterlimit="10" stroke-linecap="round" stroke-linejoin="round"></path><path d="M383.206 55.6694C373.427 39.6473 381.646 20.1918 381.646 20.1918C381.646 20.1918 402.35 29.0352 403.702 50.4674C404.431 62.5361 400.269 73.0441 400.269 73.0441C400.269 73.0441 388.721 64.7209 383.206 55.6694Z" fill="#6BA3FF" stroke="#0056FF" stroke-width="3" stroke-miterlimit="10" stroke-linecap="round" stroke-linejoin="round"></path><path d="M400.165 73.0441C400.165 73.0441 392.154 55.8775 389.136 47.7624C386.119 39.7513 381.542 20.1918 381.542 20.1918" stroke="#0056FF" stroke-width="3" stroke-miterlimit="10" stroke-linecap="round" stroke-linejoin="round"></path><path d="M242.128 40.9983C242.128 40.9983 248.37 36.8367 259.815 36.8367C271.259 36.8367 275.421 42.0387 277.501 46.2003C279.582 50.3619 284.784 82.6143 274.38 95.0991C263.976 107.584 257.734 107.584 252.532 107.584C247.33 107.584 237.966 107.584 230.683 104.463C223.401 101.341 216.118 89.8971 212.997 81.5739C209.875 73.2507 207.795 60.7659 210.916 55.5639C214.037 50.3619 217.158 47.2407 225.481 45.1599C233.805 43.0791 242.128 40.9983 242.128 40.9983Z" fill="#2968FF" stroke="#0047CC" stroke-width="3" stroke-miterlimit="10" stroke-linecap="round" stroke-linejoin="round"></path><path d="M245.249 49.3222C245.249 46.201 243.585 39.7505 242.128 34.7566C240.047 27.4738 237.966 21.2314 234.845 16.0294C230.58 8.85059 226.522 4.58495 221.32 2.50415C216.118 0.423351 207.795 1.46375 202.593 6.66575C197.391 11.8678 199.472 18.1102 199.472 18.1102C199.472 18.1102 198.431 19.1506 198.431 21.2314C198.431 23.3122 200.512 30.595 202.593 32.6758C203.633 33.7162 206.754 33.7162 208.835 33.7162C208.835 27.4738 204.674 20.191 204.674 20.191C204.674 20.191 202.593 13.9486 206.754 10.8274C210.916 7.70615 214.037 6.66575 218.199 7.70615C221.424 8.53847 225.69 12.2839 228.603 17.0698C231.724 22.2718 233.805 28.5142 235.886 35.797C237.654 41.8313 239.007 48.2818 239.007 50.3626" fill="#2968FF"></path><path d="M245.249 49.3222C245.249 46.201 243.585 39.7505 242.128 34.7566C240.047 27.4738 237.966 21.2314 234.845 16.0294C230.58 8.85059 226.522 4.58495 221.32 2.50415C216.118 0.423351 207.795 1.46375 202.593 6.66575C197.391 11.8678 199.472 18.1102 199.472 18.1102C199.472 18.1102 198.431 19.1506 198.431 21.2314C198.431 23.3122 200.512 30.595 202.593 32.6758C203.633 33.7162 206.754 33.7162 208.835 33.7162C208.835 27.4738 204.674 20.191 204.674 20.191C204.674 20.191 202.593 13.9486 206.754 10.8274C210.916 7.70615 214.037 6.66575 218.199 7.70615C221.424 8.53847 225.69 12.2839 228.603 17.0698C231.724 22.2718 233.805 28.5142 235.886 35.797C237.654 41.8313 239.007 48.2818 239.007 50.3626" stroke="#0047CC" stroke-width="3" stroke-miterlimit="10" stroke-linecap="round" stroke-linejoin="round"></path><path d="M252.532 45.1593C252.532 45.1593 250.451 46.1997 248.37 48.2805C246.289 50.3613 243.168 52.4421 239.007 52.4421C234.845 52.4421 229.643 50.3613 229.643 50.3613" stroke="#0047CC" stroke-width="3" stroke-miterlimit="10" stroke-linecap="round" stroke-linejoin="round"></path><path d="M303.615 38.1913C303.615 38.1913 303.615 36.4226 305.384 35.4862C307.152 34.5499 311.73 37.2549 314.435 37.2549C317.14 37.2549 330.769 36.3186 335.347 36.3186C339.925 36.3186 342.63 41.7286 342.63 41.7286C342.63 41.7286 347.208 41.7286 351.681 42.665C355.635 43.4973 358.028 44.4337 359.901 48.0751C361.773 51.7165 361.669 58.167 361.669 58.167C361.669 58.167 369.888 60.768 371.241 67.0104C372.906 74.6053 369.888 83.4487 369.888 83.4487C369.888 83.4487 370.825 88.0264 369.888 90.7315C368.952 93.4365 363.542 96.1416 363.542 96.1416C363.542 96.1416 362.606 102.488 359.901 104.361C357.196 106.129 351.681 107.066 351.681 107.066C351.681 107.066 350.745 113.412 347.104 115.285C343.462 117.054 338.885 113.516 336.18 112.58C333.474 111.643 332.538 112.58 332.538 112.58C332.538 112.58 331.602 117.158 329.833 118.926C328.376 120.383 325.255 121.631 322.55 120.695C320.573 120.071 318.909 118.926 317.14 118.926C313.499 118.926 311.73 122.568 308.089 121.631C302.679 120.279 301.742 116.221 301.742 116.221C299.037 117.158 294.147 118.094 289.986 116.221C283.223 113.1 282.703 108.002 282.703 108.002C282.703 108.002 278.125 108.002 275.42 106.233C272.715 104.465 270.01 101.656 270.01 95.3092C270.01 88.9628 273.651 83.5527 273.651 83.5527C273.651 83.5527 269.074 79.9113 269.074 74.5012C269.074 69.0911 271.571 66.2821 271.571 66.2821C271.571 66.2821 268.137 59.1033 276.357 56.3983C276.357 53.6932 278.125 51.8205 279.998 50.9882C283.639 49.2195 289.57 48.4912 293.627 46.4104C297.165 44.5377 302.679 41.8327 303.615 38.1913Z" fill="#D6E6FF" stroke="#0056FF" stroke-width="3" stroke-miterlimit="10" stroke-linecap="round" stroke-linejoin="round"></path><path d="M332.642 112.58C332.642 112.58 333.579 104.361 332.642 96.2455C331.914 89.899 329.001 80.8475 327.232 76.2698C325.464 71.692 311.834 45.3699 311.834 45.3699" stroke="#0056FF" stroke-width="3" stroke-miterlimit="10" stroke-linecap="round" stroke-linejoin="round"></path><path d="M308.089 51.8192C308.089 51.8192 309.026 64.5121 307.153 72.7313C305.592 79.91 301.639 87.5049 299.87 92.7069C298.101 98.117 298.101 102.695 298.934 108.105C299.87 113.515 301.639 116.324 301.639 116.324" stroke="#0056FF" stroke-width="3" stroke-miterlimit="10" stroke-linecap="round" stroke-linejoin="round"></path><path d="M303.615 38.1902C303.615 38.1902 301.43 48.9063 299.037 54.5245C296.332 60.8709 292.691 65.4487 289.986 68.1537C285.408 72.7315 277.293 76.3729 273.652 83.5516" stroke="#0056FF" stroke-width="3" stroke-miterlimit="10" stroke-linecap="round" stroke-linejoin="round"></path><path d="M302.679 39.959C302.679 39.959 299.037 51.7155 290.922 57.2296C282.807 62.7438 277.293 59.9346 270.947 67.2174" stroke="#0056FF" stroke-width="3" stroke-miterlimit="10" stroke-linecap="round" stroke-linejoin="round"></path><path d="M285.408 53.588C285.408 53.588 279.998 55.3567 276.357 56.293Z" fill="white"></path><path d="M285.408 53.588C285.408 53.588 279.998 55.3567 276.357 56.293" stroke="#0056FF" stroke-width="3" stroke-miterlimit="10" stroke-linecap="round" stroke-linejoin="round"></path><path d="M302.68 59.1016C302.68 59.1016 300.912 67.3207 299.039 71.7945C297.27 76.3722 294.461 80.0136 289.987 84.4873C286.346 88.1287 283.641 92.7065 282.705 96.2439C281.56 100.718 281.768 105.295 282.705 108" stroke="#0056FF" stroke-width="3" stroke-miterlimit="10" stroke-linecap="round" stroke-linejoin="round"></path><path d="M351.682 107.17C351.682 107.17 351.682 101.76 348.977 93.5409C346.272 85.3217 343.567 83.553 340.757 79.9116C338.052 76.2702 329.833 68.9874 329.833 68.9874" stroke="#0056FF" stroke-width="3" stroke-miterlimit="10" stroke-linecap="round" stroke-linejoin="round"></path><path d="M369.888 83.5515C369.888 83.5515 368.951 78.1414 364.79 73.2516C361.773 69.8182 352.305 65.1364 347.207 62.6395C342.421 60.3506 330.873 53.588 330.873 53.588" stroke="#0056FF" stroke-width="3" stroke-miterlimit="10" stroke-linecap="round" stroke-linejoin="round"></path><path d="M361.668 58.1661C361.668 58.1661 352.617 54.5247 344.398 52.756C335.97 50.8833 325.358 46.4096 321.717 44.5369" fill="white"></path><path d="M361.668 58.1661C361.668 58.1661 352.617 54.5247 344.398 52.756C335.97 50.8833 325.358 46.4096 321.717 44.5369" stroke="#0056FF" stroke-width="3" stroke-miterlimit="10" stroke-linecap="round" stroke-linejoin="round"></path><path d="M329.936 40.8966C329.936 40.8966 337.219 41.833 342.629 41.833Z" fill="white"></path><path d="M329.936 40.8966C329.936 40.8966 337.219 41.833 342.629 41.833" stroke="#0056FF" stroke-width="3" stroke-miterlimit="10" stroke-linecap="round" stroke-linejoin="round"></path><path d="M392.986 86.7774C403.328 86.7774 411.713 78.3929 411.713 68.0502C411.713 57.7075 403.328 49.323 392.986 49.323C382.643 49.323 374.259 57.7075 374.259 68.0502C374.259 78.3929 382.643 86.7774 392.986 86.7774Z" fill="#4D8AFF" stroke="#0056FF" stroke-width="3" stroke-linecap="round" stroke-linejoin="round"></path><path d="M437.724 56.3987C438.244 55.8785 438.556 55.2543 438.868 54.6301C440.013 51.0927 438.868 47.3473 437.828 44.2261C436.788 46.3069 434.603 47.7634 432.626 48.3877C430.753 49.0119 429.609 50.8846 428.985 52.1331C428.881 52.1331 428.673 52.0291 428.569 52.0291C428.569 50.6765 428.36 48.8038 427.424 47.3473C425.343 44.2261 423.262 43.1857 423.262 41.1049C422.222 43.1857 418.06 45.2665 418.06 49.4281C418.06 50.5725 418.165 51.5088 418.477 52.1331C408.697 54.526 401.414 63.3694 401.414 73.8775C401.414 86.2582 411.402 96.2461 423.783 96.2461C436.163 96.2461 446.151 86.2582 446.151 73.8775C446.047 66.6987 442.822 60.4563 437.724 56.3987Z" fill="#4D8AFF" stroke="#0056FF" stroke-width="3" stroke-linecap="round" stroke-linejoin="round"></path><path d="M381.022 107.585C392.801 107.585 402.35 98.0355 402.35 86.2563C402.35 74.4771 392.801 64.9281 381.022 64.9281C369.242 64.9281 359.693 74.4771 359.693 86.2563C359.693 98.0355 369.242 107.585 381.022 107.585Z" fill="#4D8AFF" stroke="#0056FF" stroke-width="3" stroke-linecap="round" stroke-linejoin="round"></path><path d="M391.556 81.6798C392.876 80.1624 392.013 77.251 389.628 75.1769C387.244 73.1028 384.241 72.6515 382.921 74.1688C381.601 75.6862 382.464 78.5976 384.849 80.6717C387.233 82.7458 390.236 83.1972 391.556 81.6798Z" stroke="#0056FF" stroke-width="3" stroke-linecap="round" stroke-linejoin="round"></path><path d="M410.673 120.07C421.016 120.07 429.4 111.686 429.4 101.343C429.4 91.0001 421.016 82.6156 410.673 82.6156C400.33 82.6156 391.946 91.0001 391.946 101.343C391.946 111.686 400.33 120.07 410.673 120.07Z" fill="#4D8AFF" stroke="#0056FF" stroke-width="3" stroke-linecap="round" stroke-linejoin="round"></path><path d="M417.955 106.543C417.955 106.543 415.875 111.745 412.753 111.745" stroke="#0056FF" stroke-width="3" stroke-linecap="round" stroke-linejoin="round"></path><path d="M498.586 87.5062C498.586 87.5062 497.129 76.3739 492.239 69.4032C485.893 60.3517 474.136 55.774 459.571 57.6467C445.109 59.4154 436.89 68.5709 433.249 73.0446C429.607 77.6224 424.197 86.6738 423.261 94.789C422.324 102.904 424.197 114.765 432.312 122.88C440.635 131.203 450.415 133.804 461.339 132.868C472.368 131.931 498.586 121.943 498.586 87.5062Z" fill="#2968FF" stroke="#0047CC" stroke-width="3" stroke-miterlimit="10" stroke-linecap="round" stroke-linejoin="round"></path><path d="M463.42 78.2477C463.42 78.2477 470.807 66.9074 476.217 60.4569C481.627 54.0064 488.494 45.7873 497.337 37.8802C506.181 29.9732 518.354 21.65 518.354 21.65C518.354 21.65 517.729 19.4651 518.874 18.5288C520.122 17.6965 534.272 9.68537 538.329 10.5177C542.387 11.35 539.057 18.0086 536.665 19.7773C535.832 20.4015 523.66 26.956 521.891 25.4995C519.706 26.3318 508.366 35.6954 500.771 42.7701C494.216 48.8044 486.517 57.0236 482.252 62.6417C476.633 70.0286 469.455 80.4326 469.455 80.4326" fill="#2968FF"></path><path d="M463.42 78.2477C463.42 78.2477 470.807 66.9074 476.217 60.4569C481.627 54.0064 488.494 45.7873 497.337 37.8802C506.181 29.9732 518.354 21.65 518.354 21.65C518.354 21.65 517.729 19.4651 518.874 18.5288C520.122 17.6965 534.272 9.68537 538.329 10.5177C542.387 11.35 539.057 18.0086 536.665 19.7773C535.832 20.4015 523.66 26.956 521.891 25.4995C519.706 26.3318 508.366 35.6954 500.771 42.7701C494.216 48.8044 486.517 57.0236 482.252 62.6417C476.633 70.0286 469.455 80.4326 469.455 80.4326" stroke="#0047CC" stroke-width="3" stroke-miterlimit="10" stroke-linecap="round" stroke-linejoin="round"></path><path d="M478.819 86.3374C478.819 86.3374 468.832 79.0546 459.78 79.0546C450.729 79.0546 446.151 81.7596 446.151 81.7596" stroke="#0047CC" stroke-width="3" stroke-miterlimit="10" stroke-linecap="round" stroke-linejoin="round"></path><path d="M504.517 72.0034C504.517 72.0034 502.228 70.6509 500.459 73.3559C498.691 76.061 494.529 91.0427 490.992 94.1639C487.35 97.2851 477.883 102.071 474.241 103.423C470.6 104.776 461.757 106.545 458.427 113.203C456.763 116.428 458.427 123.191 458.427 123.191C458.427 123.191 453.433 125.896 453.433 132.243C453.433 138.589 459.364 140.878 459.364 140.878C459.364 140.878 457.075 148.161 459.78 152.218C462.485 156.276 467.895 157.212 467.895 157.212C467.895 157.212 470.184 162.206 472.473 164.495C474.762 166.784 479.755 166.264 481.524 167.2C483.293 168.136 484.645 173.13 488.287 173.963C491.928 174.795 497.338 172.194 499.627 172.194C501.916 172.194 506.91 175.315 510.447 175.315C513.985 175.315 516.378 170.737 519.083 170.321C521.788 169.905 525.013 171.986 528.55 170.737C535.313 168.448 536.249 163.455 536.249 163.455C536.249 163.455 542.18 164.807 546.237 162.102C550.815 159.085 550.295 152.114 550.295 152.114C552.063 149.825 554.872 148.577 554.872 143.479C554.872 138.485 552.167 135.364 552.167 135.364C552.167 135.364 554.872 127.249 553.52 121.735C551.959 115.492 543.636 112.995 543.532 113.099C543.532 113.099 543.532 108.521 540.827 105.4C538.122 102.279 522.724 100.822 518.666 98.1175C514.609 95.4124 510.967 91.771 509.615 88.6498C508.575 86.2569 506.286 77.9337 505.245 73.9802C504.725 72.8357 504.517 72.0034 504.517 72.0034Z" fill="#D6E6FF" stroke="#0056FF" stroke-width="3" stroke-miterlimit="10" stroke-linecap="round" stroke-linejoin="round"></path><path d="M503.268 72.2117C503.268 74.9167 503.164 86.4651 505.452 93.2277C507.741 99.9903 518.978 114.452 523.035 122.151C527.093 129.85 533.127 140.462 534.48 148.161C535.832 155.86 536.248 163.455 536.248 163.455" stroke="#0056FF" stroke-width="3" stroke-miterlimit="10" stroke-linecap="round" stroke-linejoin="round"></path><path d="M552.062 135.366C552.062 135.366 549.773 131.724 544.779 126.73C539.786 121.736 531.254 114.974 527.613 112.269C524.075 109.668 521.266 107.275 521.266 107.275" stroke="#0056FF" stroke-width="3" stroke-miterlimit="10" stroke-linecap="round" stroke-linejoin="round"></path><path d="M543.428 113.202C543.428 113.202 536.353 110.289 531.359 107.584C526.365 104.879 518.562 98.2202 518.562 98.2202" stroke="#0056FF" stroke-width="3" stroke-miterlimit="10" stroke-linecap="round" stroke-linejoin="round"></path><path d="M480.484 105.503C480.484 105.503 473.721 112.265 470.496 114.554C467.375 116.843 458.219 123.189 458.219 123.189" stroke="#0056FF" stroke-width="3" stroke-miterlimit="10" stroke-linecap="round" stroke-linejoin="round"></path><path d="M481.835 113.203C481.835 113.203 475.073 122.255 472.368 124.96C469.663 127.665 461.027 135.78 459.259 140.774" stroke="#0056FF" stroke-width="3" stroke-miterlimit="10" stroke-linecap="round" stroke-linejoin="round"></path><path d="M495.986 101.343C495.986 101.343 494.945 112.787 482.773 130.37C479.651 134.948 465.086 146.704 467.791 157.108" stroke="#0056FF" stroke-width="3" stroke-miterlimit="10" stroke-linecap="round" stroke-linejoin="round"></path><path d="M499.107 121.111C499.107 121.111 498.067 130.475 493.905 137.758C490.16 144.208 476.219 157.525 482.461 167.929" stroke="#0056FF" stroke-width="3" stroke-miterlimit="10" stroke-linecap="round" stroke-linejoin="round"></path><path d="M508.159 113.203C510.864 120.486 512.737 131.306 513.153 142.23C513.673 156.588 511.072 168.969 510.552 175.315" stroke="#0056FF" stroke-width="3" stroke-miterlimit="10" stroke-linecap="round" stroke-linejoin="round"></path><path d="M160.248 102.799C170.016 102.799 177.935 94.8801 177.935 85.112C177.935 75.3438 170.016 67.4252 160.248 67.4252C150.48 67.4252 142.561 75.3438 142.561 85.112C142.561 94.8801 150.48 102.799 160.248 102.799Z" fill="#4D8AFF" stroke="#0056FF" stroke-width="3" stroke-miterlimit="10" stroke-linecap="round" stroke-linejoin="round"></path><path d="M190.627 95.1004C202.406 95.1004 211.955 85.5514 211.955 73.7722C211.955 61.9929 202.406 52.444 190.627 52.444C178.848 52.444 169.299 61.9929 169.299 73.7722C169.299 85.5514 178.848 95.1004 190.627 95.1004Z" fill="#4D8AFF" stroke="#0056FF" stroke-width="3" stroke-miterlimit="10" stroke-linecap="round" stroke-linejoin="round"></path><path d="M219.24 77.413C215.078 74.2918 211.957 73.2514 208.836 74.2918C210.917 66.4888 206.755 65.9686 202.594 61.807C200.513 64.9282 194.27 63.8878 196.143 69.506C184.387 69.506 174.815 79.0776 174.815 90.8342C174.815 102.591 184.387 112.162 196.143 112.162C207.9 112.162 217.471 102.591 217.471 90.8342C217.471 89.3776 217.367 88.0251 217.055 86.6726C219.24 84.6958 219.344 80.9504 219.24 77.413Z" fill="#4D8AFF" stroke="#0056FF" stroke-width="3" stroke-linecap="round" stroke-linejoin="round"></path><path d="M199.891 76.3717C199.578 81.5737 204.78 84.2787 208.63 83.1343" stroke="#0056FF" stroke-width="3" stroke-linecap="round" stroke-linejoin="round"></path><path d="M196.142 84.4889C193.541 86.4656 190.836 85.2172 189.276 83.5525C187.611 81.8879 183.345 82.304 183.345 82.304C183.345 82.304 185.114 78.1424 186.883 76.6859C192.189 72.2122 195.31 74.293 195.31 74.293" stroke="#0056FF" stroke-width="3" stroke-linecap="round" stroke-linejoin="round"></path><path d="M217.472 86.1531C217.472 86.1531 216.432 88.2339 212.27 88.2339C215.391 92.3955 211.23 95.5167 210.189 98.6379C208.108 96.5571 201.866 97.5975 201.866 93.4359" stroke="#0056FF" stroke-width="3" stroke-linecap="round" stroke-linejoin="round"></path><path d="M160.353 78.1422C160.978 77.2058 161.082 76.2695 160.665 75.4372C159.833 73.8766 157.128 73.7725 154.631 75.021C152.03 76.3735 150.678 78.6624 151.406 80.223C151.822 81.0553 152.862 81.4715 154.215 81.4715" stroke="#0056FF" stroke-width="3" stroke-linecap="round" stroke-linejoin="round"></path><path d="M147.452 157.525C147.452 157.525 150.573 153.468 150.573 145.04C150.573 138.798 149.532 134.636 147.452 129.434" stroke="#0056FF" stroke-width="3" stroke-miterlimit="10" stroke-linecap="round" stroke-linejoin="round"></path><path d="M120.401 79.4946C119.361 78.4542 116.24 74.2926 115.199 74.2926C114.159 74.2926 112.078 74.2926 111.038 76.3734C109.997 78.4542 112.078 79.5986 111.038 85.737C109.997 91.9794 107.188 98.3258 98.5527 105.505C86.0679 115.909 85.0275 125.272 86.0679 133.595C87.0043 140.878 87.1083 146.08 89.1891 151.282C91.478 156.9 96.4719 160.646 100.634 161.686C104.795 162.727 106.876 166.888 112.078 166.888C117.28 166.888 121.442 166.888 124.563 165.848C127.684 164.807 127.684 163.767 128.724 162.727C129.765 161.686 130.805 161.686 131.846 162.727C132.886 163.767 134.967 165.848 137.048 165.848C139.128 165.848 140.169 165.848 141.209 164.807C142.25 163.767 142.25 159.605 144.33 158.565C146.411 157.525 148.492 157.525 150.573 158.565C152.654 159.605 156.815 157.525 156.815 156.484C156.815 155.444 156.815 153.363 157.856 152.323C158.896 151.282 163.058 153.363 165.138 153.363C167.219 153.363 168.26 150.242 168.26 148.161C170.34 148.161 174.398 148.057 177.623 146.08C182.825 142.959 183.866 137.757 183.866 135.676C183.866 129.434 179.704 123.191 179.704 123.191C179.704 123.191 183.657 117.989 182.825 112.787C181.785 106.545 176.583 103.424 176.583 103.424C176.583 103.424 176.583 99.2622 173.462 95.1006C170.34 90.939 164.306 89.8986 160.977 89.8986C156.815 89.8986 141.209 90.939 130.805 86.7774C127.788 85.5289 120.401 79.4946 120.401 79.4946Z" fill="#D6E6FF" stroke="#0056FF" stroke-width="3" stroke-miterlimit="10" stroke-linecap="round" stroke-linejoin="round"></path><path d="M130.805 86.7782C139.129 94.061 154.839 94.8933 164.098 97.1822C172.421 99.263 176.583 103.425 176.583 103.425" stroke="#0056FF" stroke-width="3" stroke-miterlimit="10" stroke-linecap="round" stroke-linejoin="round"></path><path d="M152.653 101.343C152.653 101.343 164.097 105.505 169.299 110.707C174.501 115.909 179.703 123.191 179.703 123.191" stroke="#0056FF" stroke-width="3" stroke-miterlimit="10" stroke-linecap="round" stroke-linejoin="round"></path><path d="M111.039 78.4537C111.039 78.4537 117.281 95.1001 107.918 105.504C102.195 111.851 96.4731 117.989 93.3519 126.312C90.7509 133.387 91.2712 150.241 100.323 162.206" stroke="#0056FF" stroke-width="3" stroke-miterlimit="10" stroke-linecap="round" stroke-linejoin="round"></path><path d="M168.259 148.16C168.259 148.16 168.987 139.941 166.178 133.595C162.017 124.231 156.815 120.069 152.653 115.908" stroke="#0056FF" stroke-width="3" stroke-miterlimit="10" stroke-linecap="round" stroke-linejoin="round"></path><path d="M157.855 152.322C157.855 152.322 159.936 143.999 154.734 131.514C151.197 122.879 139.128 106.545 139.128 106.545" stroke="#0056FF" stroke-width="3" stroke-miterlimit="10" stroke-linecap="round" stroke-linejoin="round"></path><path d="M134.967 164.808C134.967 164.808 134.967 154.404 134.967 141.919C134.967 129.434 133.511 119.759 129.765 112.788C123.523 101.343 121.442 93.0203 121.442 93.0203" stroke="#0056FF" stroke-width="3" stroke-miterlimit="10" stroke-linecap="round" stroke-linejoin="round"></path><path d="M121.441 114.867C121.441 114.867 114.158 137.444 115.198 147.016C116.239 156.587 120.4 164.807 124.562 165.847" stroke="#0056FF" stroke-width="3" stroke-miterlimit="10" stroke-linecap="round" stroke-linejoin="round"></path><path d="M252.805 106.916C253.659 96.6083 245.206 87.4948 233.925 86.5603C222.644 85.6258 212.807 93.2242 211.953 103.532C211.099 113.839 219.552 122.953 230.833 123.887C242.114 124.822 251.952 117.223 252.805 106.916Z" fill="#4D8AFF" stroke="#0056FF" stroke-width="3" stroke-miterlimit="10" stroke-linecap="round" stroke-linejoin="round"></path><path d="M197.391 132.554C206.585 132.554 214.037 125.101 214.037 115.907C214.037 106.714 206.585 99.261 197.391 99.261C188.197 99.261 180.745 106.714 180.745 115.907C180.745 125.101 188.197 132.554 197.391 132.554Z" fill="#4D8AFF" stroke="#0056FF" stroke-width="3" stroke-miterlimit="10" stroke-linecap="round" stroke-linejoin="round"></path><path d="M231.412 117.26C234.687 117.26 237.343 115.257 237.343 112.786C237.343 110.315 234.687 108.312 231.412 108.312C228.137 108.312 225.482 110.315 225.482 112.786C225.482 115.257 228.137 117.26 231.412 117.26Z" stroke="#0056FF" stroke-width="3" stroke-linecap="round" stroke-linejoin="round"></path><path d="M568.814 147.12C574.536 152.842 577.554 158.46 578.178 162.726C579.218 170.009 576.097 178.332 576.097 178.332C576.097 178.332 581.299 187.696 578.178 196.019C575.057 204.342 564.653 217.867 546.966 216.827C529.279 215.786 521.996 200.18 518.875 193.938C515.754 187.696 511.592 168.968 519.915 156.484C528.239 143.999 540.723 139.837 549.047 139.837C557.37 139.837 564.653 142.958 568.814 147.12Z" fill="#2968FF" stroke="#0047CC" stroke-width="3" stroke-miterlimit="10" stroke-linecap="round" stroke-linejoin="round"></path><path d="M551.127 155.446C551.127 155.446 552.167 161.688 556.329 163.769C560.49 165.85 563.612 165.85 568.814 168.971C572.559 171.26 576.096 178.335 576.096 178.335" fill="#2968FF"></path><path d="M551.127 155.446C551.127 155.446 552.167 161.688 556.329 163.769C560.49 165.85 563.612 165.85 568.814 168.971C572.559 171.26 576.096 178.335 576.096 178.335" stroke="#0047CC" stroke-width="3" stroke-miterlimit="10" stroke-linecap="round" stroke-linejoin="round"></path><path d="M559.45 163.766C559.45 163.766 561.531 159.605 564.652 160.645C567.774 161.686 565.797 166.783 565.797 166.783" fill="#2968FF"></path><path d="M559.45 163.766C559.45 163.766 561.531 159.605 564.652 160.645C567.774 161.686 565.797 166.783 565.797 166.783" stroke="#0047CC" stroke-width="3" stroke-miterlimit="10" stroke-linecap="round" stroke-linejoin="round"></path><path d="M570.374 199.66C576.824 182.077 597.008 176.147 597.008 176.147C597.008 176.147 603.146 197.787 587.228 212.353C578.281 220.468 567.461 223.797 567.461 223.797C567.461 223.797 566.732 209.648 570.374 199.66Z" fill="#6BA3FF" stroke="#0056FF" stroke-width="3" stroke-miterlimit="10" stroke-linecap="round" stroke-linejoin="round"></path><path d="M558.098 213.913C553 195.914 566.005 179.268 566.005 179.268C566.005 179.268 583.692 193.209 579.218 214.329C576.721 226.19 569.855 235.137 569.855 235.137C569.855 235.137 561.011 224.109 558.098 213.913Z" fill="#6BA3FF" stroke="#0056FF" stroke-width="3" stroke-miterlimit="10" stroke-linecap="round" stroke-linejoin="round"></path><path d="M567.462 223.797C567.462 223.797 575.889 206.735 580.259 199.348C584.628 191.961 597.009 176.147 597.009 176.147" stroke="#0056FF" stroke-width="3" stroke-miterlimit="10" stroke-linecap="round" stroke-linejoin="round"></path><path d="M544.677 182.703C547.07 178.437 542.596 177.189 542.18 175.212C542.18 175.212 535.313 176.668 534.585 180.518C532.92 175.108 526.366 175.004 526.366 175.004C525.741 178.125 523.036 179.165 522.932 181.662C522.828 183.743 524.285 187.072 525.533 190.194C517.626 194.043 512.216 202.054 512.216 211.418C512.216 224.423 522.724 235.035 535.729 235.035C548.734 235.035 559.242 224.527 559.242 211.418C559.242 203.719 555.601 196.956 549.879 192.586C549.879 192.586 558.098 186.24 556.329 181.558C553 182.078 548.11 178.957 544.677 182.703Z" fill="#4D8AFF" stroke="#0056FF" stroke-width="3" stroke-miterlimit="10" stroke-linecap="round" stroke-linejoin="round"></path><path d="M538.575 255.398C551.358 249.499 557.29 235.116 551.824 223.273C546.359 211.43 531.567 206.61 518.784 212.509C506.002 218.408 500.07 232.79 505.535 244.634C511 256.477 525.793 261.296 538.575 255.398Z" fill="#4D8AFF" stroke="#0056FF" stroke-width="3" stroke-miterlimit="10" stroke-linecap="round" stroke-linejoin="round"></path><path d="M573.079 248.454C586.065 248.454 596.592 237.88 596.592 224.837C596.592 211.794 586.065 201.22 573.079 201.22C560.093 201.22 549.566 211.794 549.566 224.837C549.566 237.88 560.093 248.454 573.079 248.454Z" fill="#4D8AFF" stroke="#0056FF" stroke-width="3" stroke-miterlimit="10" stroke-linecap="round" stroke-linejoin="round"></path><path d="M577.28 234.815C579.027 233.068 578.566 229.775 576.25 227.459C573.934 225.143 570.641 224.682 568.894 226.429C567.146 228.176 567.608 231.469 569.924 233.785C572.239 236.101 575.533 236.562 577.28 234.815Z" stroke="#0056FF" stroke-width="3" stroke-linecap="round" stroke-linejoin="round"></path><path d="M550.191 216.93C550.191 216.93 549.255 223.797 550.607 226.502C551.96 229.207 553.312 230.56 553.312 230.56C553.312 230.56 558.306 234.513 562.468 234.617C565.797 234.721 569.75 234.201 572.976 235.554C576.201 236.906 577.033 242.42 577.033 242.42C577.033 242.42 584.316 242.836 587.958 246.478C590.246 248.871 590.246 255.113 590.246 255.113C590.246 255.113 597.009 258.442 597.841 262.5C598.778 266.558 594.72 270.615 594.72 270.615C594.72 270.615 600.442 276.129 600.65 280.187C600.962 287.574 595.136 292.047 595.136 292.047C595.136 292.047 596.697 297.978 593.576 302.139C587.645 310.046 579.634 308.07 579.634 308.07C579.634 308.07 580.987 311.711 577.762 312.127C574.536 312.543 569.126 312.127 565.901 313.48C562.676 314.832 563.196 319.826 559.555 320.346C555.913 320.762 550.399 315.352 547.694 315.352C544.989 315.352 540.411 318.994 536.77 318.578C533.128 318.161 534.065 311.295 530.423 310.358C526.782 309.422 524.909 309.422 521.268 309.006C517.626 308.59 518.043 302.659 516.274 301.307C514.505 299.954 508.055 299.018 505.766 293.608C503.477 288.094 505.35 283.1 505.35 283.1C505.35 283.1 499.419 279.042 499.836 271.76C500.252 264.477 506.182 261.251 506.182 261.251C506.182 261.251 503.997 255.425 507.118 250.223C511.904 242.212 523.869 238.675 530.007 234.617C533.128 232.536 535.209 230.456 538.33 226.294C540.099 224.005 543.532 219.011 546.758 216.618C549.567 214.538 550.191 216.93 550.191 216.93Z" fill="#D6E6FF" stroke="#0056FF" stroke-width="3" stroke-miterlimit="10" stroke-linecap="round" stroke-linejoin="round"></path><path d="M545.612 249.183C545.508 257.402 545.092 269.887 542.803 281.332C538.537 302.66 539.057 311.503 539.057 311.503" stroke="#0056FF" stroke-width="3" stroke-miterlimit="10" stroke-linecap="round" stroke-linejoin="round"></path><path d="M550.087 225.147C550.087 225.147 550.087 242.834 564.653 266.763C567.982 272.173 574.016 277.167 577.138 286.531C580.363 296.207 578.178 309.42 578.178 309.42" stroke="#0056FF" stroke-width="3" stroke-miterlimit="10" stroke-linecap="round" stroke-linejoin="round"></path><path d="M554.04 262.812C555.913 269.679 558.618 276.962 559.97 284.661C561.323 292.359 562.259 301.515 562.259 306.509C562.259 311.503 561.843 316.081 561.843 316.081" stroke="#0056FF" stroke-width="3" stroke-miterlimit="10" stroke-linecap="round" stroke-linejoin="round"></path><path d="M516.482 301.201C516.482 301.201 513.672 296.936 514.713 289.653C515.753 282.37 518.874 276.128 521.996 273.007C526.573 268.429 531.359 264.683 534.689 256.984C536.353 253.135 539.682 240.754 539.682 240.754" stroke="#0056FF" stroke-width="3" stroke-miterlimit="10" stroke-linecap="round" stroke-linejoin="round"></path><path d="M505.557 282.998C505.557 282.998 506.078 276.547 508.47 273.01C512.632 266.767 515.753 265.727 519.915 262.606C524.389 259.276 528.238 255.323 531.359 249.08" stroke="#0056FF" stroke-width="3" stroke-miterlimit="10" stroke-linecap="round" stroke-linejoin="round"></path><path d="M530.32 240.754C530.32 240.754 523.037 250.118 516.482 254.279C513.673 256.048 509.199 258.857 506.494 261.146" stroke="#0056FF" stroke-width="3" stroke-miterlimit="10" stroke-linecap="round" stroke-linejoin="round"></path><path d="M595.343 292.046C595.343 292.046 593.47 284.867 588.58 279.249C582.338 271.967 577.136 269.886 571.934 264.684" stroke="#0056FF" stroke-width="3" stroke-miterlimit="10" stroke-linecap="round" stroke-linejoin="round"></path><path d="M594.927 270.72C594.927 270.72 591.597 266.35 584.419 263.021C577.136 259.587 566.836 252.408 563.611 249.183" stroke="#0056FF" stroke-width="3" stroke-miterlimit="10" stroke-linecap="round" stroke-linejoin="round"></path><path d="M590.349 255.218C590.349 255.218 581.922 251.576 578.072 250.224C572.038 248.143 567.356 244.606 563.715 241.901C560.073 239.196 553.519 230.664 553.519 230.664" stroke="#0056FF" stroke-width="3" stroke-miterlimit="10" stroke-linecap="round" stroke-linejoin="round"></path><path d="M577.136 242.421C577.136 242.421 570.79 242.004 566.628 240.548C562.571 239.195 555.288 232.329 555.288 232.329" stroke="#0056FF" stroke-width="3" stroke-miterlimit="10" stroke-linecap="round" stroke-linejoin="round"></path><path d="M586.776 324.354C587.63 314.046 579.177 304.933 567.896 303.998C556.615 303.064 546.778 310.662 545.924 320.97C545.07 331.277 553.523 340.391 564.804 341.325C576.085 342.26 585.922 334.661 586.776 324.354Z" fill="#4D8AFF" stroke="#0056FF" stroke-width="3" stroke-miterlimit="10" stroke-linecap="round" stroke-linejoin="round"></path><path d="M113.118 189.776C124.035 189.776 132.886 180.926 132.886 170.009C132.886 159.091 124.035 150.241 113.118 150.241C102.201 150.241 93.3503 159.091 93.3503 170.009C93.3503 180.926 102.201 189.776 113.118 189.776Z" fill="#4D8AFF" stroke="#0056FF" stroke-width="3" stroke-miterlimit="10" stroke-linecap="round" stroke-linejoin="round"></path><path d="M527.822 195.186C526.99 193.001 526.158 191.857 525.325 189.776Z" fill="#4D8AFF"></path><path d="M527.822 195.186C526.99 193.001 526.158 191.857 525.325 189.776" stroke="#0056FF" stroke-width="3" stroke-miterlimit="10" stroke-linecap="round" stroke-linejoin="round"></path><path d="M530.318 183.536C530.318 183.536 536.561 186.657 536.561 190.818C538.641 187.697 545.924 187.697 545.924 187.697" fill="#4D8AFF"></path><path d="M530.318 183.536C530.318 183.536 536.561 186.657 536.561 190.818C538.641 187.697 545.924 187.697 545.924 187.697" stroke="#0056FF" stroke-width="3" stroke-miterlimit="10" stroke-linecap="round" stroke-linejoin="round"></path><path d="M546.965 196.019C547.797 194.043 549.878 192.482 549.878 192.482Z" fill="#4D8AFF"></path><path d="M546.965 196.019C547.797 194.043 549.878 192.482 549.878 192.482" stroke="#0056FF" stroke-width="3" stroke-miterlimit="10" stroke-linecap="round" stroke-linejoin="round"></path></svg> 