<?xml version="1.0" encoding="UTF-8"?> <svg xmlns="http://www.w3.org/2000/svg" width="572" height="576" viewBox="0 0 572 576" fill="none"><path d="M305.994 119.392L248.949 177.387C233.331 197.814 229.087 227.15 239.468 250.717C259.172 305.748 260.291 304.611 261.556 319.248C260.583 336.159 255.095 353.112 246.21 368.969L286.498 330.285C286.498 330.285 304.373 309.837 288.15 264.915C278.867 237.957 263.908 207.672 272.626 173.787C279.212 153.444 291.453 134.175 305.994 119.392Z" fill="#5C8DFF" stroke="#0047CC" stroke-width="3" stroke-linecap="round" stroke-linejoin="round"></path><path d="M546.985 172.369C509.509 149.053 467.58 132.538 424.595 123.921C314.885 103.526 271.325 154.635 271.325 154.635L319.422 105.738C319.422 105.738 364.247 69.2656 442.304 85.4462C520.36 101.627 555.641 131.724 555.641 131.724L546.985 172.369Z" fill="#2968FF" stroke="#0047CC" stroke-width="3" stroke-linecap="round" stroke-linejoin="round"></path><path d="M286.051 330.687C270.329 339.846 252.737 341.851 234.652 339.764C188.27 330.052 171.199 315.561 144.041 309.051C122.538 303.616 115.827 310.439 115.827 310.439L82.3965 358.074C95.8189 344.428 116.099 339.733 134.225 346.327C165.92 355.048 215.993 397.404 245.095 370.091L286.051 330.687Z" fill="#2968FF" stroke="#0047CC" stroke-width="3" stroke-linecap="round" stroke-linejoin="round"></path><path d="M146.229 468.735C153.295 500.22 143.228 510.454 143.228 510.454L113.007 538.904C118.474 519.698 116.028 499.438 109.087 481.473C100.944 455.632 89.3405 421.935 81.2391 400.6C73.0959 374.759 79.7446 361.176 79.7446 361.176C79.7446 361.176 102.032 329.419 114.294 312.404C106.547 329.377 105.533 341.782 107.875 350.775C110.196 357.514 146.187 464.228 146.229 468.735Z" fill="#5C8DFF" stroke="#0047CC" stroke-width="3" stroke-linecap="round" stroke-linejoin="round"></path></svg> 