<?xml version="1.0" encoding="UTF-8"?> <svg xmlns="http://www.w3.org/2000/svg" width="445" height="367" viewBox="0 0 445 367" fill="none"><g opacity="0.5"><path d="M188.806 1.5L396.493 129.45L392.785 206.405L236.092 364.952L19.1335 218.459L17.2792 155.411L188.806 1.5Z" fill="#0056FF" stroke="#003DB3" stroke-width="3" stroke-miterlimit="10" stroke-linecap="round" stroke-linejoin="round"></path><path d="M200.86 142.431C200.86 142.431 163.773 126.669 152.647 120.178C141.521 113.688 91.3611 88.2836 91.3611 88.2836L86.6325 92.6413C86.6325 92.6413 81.2549 89.6744 86.818 85.0385C92.381 80.4027 99.7984 74.8396 103.507 71.1309C107.216 67.4222 115.746 59.4485 118.342 58.1505C122.051 56.2961 125.018 56.018 129.097 57.965C133.177 60.0048 218.477 124.907 218.477 124.907L200.86 142.431Z" fill="#3B7AFF" stroke="#003DB3" stroke-width="3" stroke-miterlimit="10" stroke-linecap="round" stroke-linejoin="round"></path><path d="M207.35 138.721C207.35 138.721 202.529 128.337 193.442 126.668C173.045 122.959 150.978 136.774 136.885 138.721C116.487 141.503 94.4203 131.768 86.8175 128.523C67.3468 120.178 59.9294 91.4355 59.9294 91.4355L1.51749 94.2171C0.590313 110.906 36.7501 142.43 58.0751 150.775C79.4001 159.119 106.195 160.232 122.977 159.119C151.72 157.265 198.078 140.576 198.078 140.576L207.35 138.721Z" fill="#3B7AFF" stroke="#003DB3" stroke-width="3" stroke-miterlimit="10" stroke-linecap="round" stroke-linejoin="round"></path><path d="M212.913 124.814C212.913 124.814 224.966 107.198 234.238 93.2906C243.51 79.383 268.543 50.6406 271.325 49.7134C274.106 48.7862 290.795 61.7666 293.577 62.6938C296.358 63.621 312.12 70.1112 313.975 71.9656C315.829 73.8199 315.458 80.032 315.458 80.032L311.101 77.4359C311.101 77.4359 298.213 95.1449 289.868 102.562C281.524 109.98 222.185 139.649 222.185 139.649L212.913 124.814Z" fill="#3B7AFF" stroke="#003DB3" stroke-width="3" stroke-miterlimit="10" stroke-linecap="round" stroke-linejoin="round"></path><path d="M17.2792 155.411L234.238 296.341L396.493 129.45C396.493 129.45 370.903 217.995 360.055 238.114" fill="#0056FF"></path><path d="M17.2792 155.411L234.238 296.341L396.493 129.45C396.493 129.45 370.903 217.995 360.055 238.114" stroke="#003DB3" stroke-width="3" stroke-miterlimit="10" stroke-linecap="round" stroke-linejoin="round"></path><path d="M307.485 292.632C307.485 292.632 286.16 297.546 275.961 298.195C262.053 299.123 234.238 296.341 234.238 296.341L236.092 364.952C235.907 365.137 257.417 331.574 263.907 321.375C270.119 311.547 275.961 298.195 275.961 298.195" fill="#0056FF"></path><path d="M307.485 292.632C307.485 292.632 286.16 297.546 275.961 298.195M275.961 298.195C262.053 299.123 234.238 296.341 234.238 296.341L236.092 364.952C235.907 365.137 257.417 331.574 263.907 321.375C270.119 311.547 275.961 298.195 275.961 298.195Z" stroke="#003DB3" stroke-width="3" stroke-miterlimit="10" stroke-linecap="round" stroke-linejoin="round"></path><path d="M392.785 206.407C392.785 206.407 385.553 198.34 376.652 196.393Z" fill="#3B7AFF"></path><path d="M392.785 206.407C392.785 206.407 385.553 198.34 376.652 196.393" stroke="#003DB3" stroke-width="3" stroke-miterlimit="10" stroke-linecap="round" stroke-linejoin="round"></path><path d="M235.165 150.775C235.165 150.775 268.543 173.027 280.597 185.08C292.65 197.133 309.988 211.876 312.399 216.604C314.902 221.24 317.684 243.492 317.684 250.91C317.684 258.327 315.551 284.381 315.551 284.381L313.326 286.606C313.326 286.606 315.736 288.924 318.518 287.997C321.299 287.069 333.353 273.162 336.134 270.38C338.916 267.599 350.969 260.181 351.896 256.473C352.823 252.764 354.678 238.856 354.678 228.657C354.678 218.458 346.982 184.617 345.313 182.113C343.552 179.517 305.538 155.411 293.484 149.848C281.431 144.285 248.98 136.867 248.98 136.867L235.165 150.775Z" fill="#3B7AFF" stroke="#003DB3" stroke-width="3" stroke-miterlimit="10" stroke-linecap="round" stroke-linejoin="round"></path><path d="M222.185 148.921C222.185 148.921 190.661 176.736 185.098 184.153C179.535 191.571 145.786 230.419 142.726 235.055C139.666 239.691 139.666 272.235 139.666 277.798C139.666 283.361 141.892 301.626 141.892 301.626L145.229 304.13C145.229 304.13 137.812 306.54 134.103 304.686C131.507 303.388 119.269 290.778 115.56 287.997C112.222 285.493 100.725 280.579 97.9436 277.798C95.1621 275.016 94.1422 272.235 94.1422 268.99C94.2349 265.745 97.1092 214.194 99.798 210.114C102.487 206.035 121.865 184.802 141.521 172.1C173.045 151.702 207.35 138.722 207.35 138.722L222.185 148.921Z" fill="#3B7AFF" stroke="#003DB3" stroke-width="3" stroke-miterlimit="10" stroke-linecap="round" stroke-linejoin="round"></path><path d="M232.384 129.45C232.384 129.45 250 122.033 259.272 118.324C268.543 114.615 291.166 109.052 300.994 103.489C315.829 95.1447 325.935 82.4424 329.737 72.8925C333.445 63.6208 329.737 52.4947 326.955 49.7131C326.955 49.7131 320.465 47.8588 313.975 51.5675C307.485 55.2762 292.65 77.5284 286.16 86.8001C280.689 94.5884 267.616 108.125 261.126 113.688C255.656 118.417 237.019 129.45 237.019 129.45L225.893 133.159L224.966 125.741C224.966 125.741 238.874 116.47 245.364 108.125C251.854 99.7805 274.106 64.5479 277.815 59.9121C281.524 55.2762 288.941 47.8588 298.213 44.1501C305.538 41.1831 313.048 40.4414 316.756 40.4414C318.054 40.4414 329.737 41.3686 339.936 48.786C347.446 54.2563 351.989 61.7664 353.843 70.111C354.77 74.1905 356.625 92.3631 343.644 108.125C330.293 124.351 300.067 128.523 300.067 128.523H257.417L232.384 129.45Z" fill="#3B7AFF" stroke="#003DB3" stroke-width="3" stroke-miterlimit="10" stroke-linecap="round" stroke-linejoin="round"></path><path d="M221.257 132.231C221.257 132.231 232.384 127.595 240.728 125.741C249.073 123.887 306.557 124.814 317.684 124.814C328.81 124.814 359.406 124.814 371.46 122.959C383.513 121.105 394.639 115.542 410.401 111.833C426.163 108.125 442.852 109.052 442.852 109.052C442.852 109.052 443.779 129.45 440.998 135.94C438.216 142.43 428.944 158.192 428.944 158.192C428.944 158.192 399.275 165.609 389.076 167.464C378.877 169.318 344.572 170.245 328.81 167.464C313.048 164.682 293.577 157.265 287.087 154.483C280.597 151.702 265.762 146.139 260.199 145.212C254.636 144.284 231.456 145.212 231.456 145.212L221.257 132.231Z" fill="#3B7AFF" stroke="#003DB3" stroke-width="3" stroke-miterlimit="10" stroke-linecap="round" stroke-linejoin="round"></path><path d="M280.597 135.941C280.597 135.941 259.272 133.16 251.854 134.087C243.51 135.107 226.82 138.63 226.82 138.63" fill="#3B7AFF"></path><path d="M280.597 135.941C280.597 135.941 259.272 133.16 251.854 134.087C243.51 135.107 226.82 138.63 226.82 138.63" stroke="#003DB3" stroke-width="3" stroke-miterlimit="10" stroke-linecap="round" stroke-linejoin="round"></path><path d="M326.955 49.7129C326.955 49.7129 314.902 37.6596 300.994 43.2227Z" fill="#3B7AFF"></path><path d="M326.955 49.7129C326.955 49.7129 314.902 37.6596 300.994 43.2227" stroke="#003DB3" stroke-width="3" stroke-miterlimit="10" stroke-linecap="round" stroke-linejoin="round"></path><path d="M222.185 143.358C222.185 143.358 216.622 147.066 210.131 145.212C203.641 143.358 199.005 137.795 196.224 135.013C193.442 132.232 186.025 119.251 183.243 116.47C180.462 113.688 164.7 103.489 164.7 103.489C164.7 103.489 149.865 107.198 142.448 112.761C135.03 118.324 122.977 136.867 119.268 145.212C115.56 153.557 110.924 166.537 110.924 170.246C110.924 173.954 118.341 173.027 122.05 171.173C125.758 169.319 151.719 160.974 156.355 158.192C160.991 155.411 164.7 150.775 168.408 147.994C172.117 145.212 177.68 139.649 183.243 137.795C188.806 135.94 196.224 135.013 196.224 135.013C205.032 145.676 214.86 147.715 224.966 147.066C224.966 147.066 219.403 147.994 212.913 149.848C206.423 151.702 192.515 160.047 188.806 163.756C185.098 167.464 170.263 182.299 162.845 184.153C155.428 186.008 135.03 192.498 127.613 190.644C120.195 188.789 109.997 182.299 105.361 178.59C100.725 174.882 92.3802 169.319 85.89 165.61C79.3998 161.901 76.6183 152.629 77.5454 147.066C78.4726 141.503 85.89 120.178 91.453 113.688C97.0161 107.198 109.069 95.1447 118.341 91.436C127.613 87.7273 142.448 88.6544 148.011 90.5088C153.574 92.3631 161.918 95.1447 166.554 95.1447C171.19 95.1447 184.17 99.7805 189.733 103.489C195.297 107.198 201.787 112.761 203.641 117.397C205.495 122.033 204.568 129.45 208.277 133.159C211.986 136.867 222.185 143.358 222.185 143.358Z" fill="#3B7AFF"></path><path d="M196.224 135.013C199.005 137.795 203.641 143.358 210.131 145.212C216.622 147.066 222.185 143.358 222.185 143.358C222.185 143.358 211.986 136.867 208.277 133.159C204.568 129.45 205.495 122.033 203.641 117.397C201.787 112.761 195.297 107.198 189.733 103.489C184.17 99.7805 171.19 95.1447 166.554 95.1447C161.918 95.1447 153.574 92.3631 148.011 90.5088C142.448 88.6544 127.613 87.7273 118.341 91.436C109.069 95.1447 97.0161 107.198 91.453 113.688C85.89 120.178 78.4726 141.503 77.5454 147.066C76.6183 152.629 79.3998 161.901 85.89 165.61C92.3802 169.319 100.725 174.882 105.361 178.59C109.997 182.299 120.195 188.789 127.613 190.644C135.03 192.498 155.428 186.008 162.845 184.153C170.263 182.299 185.098 167.464 188.806 163.756C192.515 160.047 206.423 151.702 212.913 149.848C219.403 147.994 224.966 147.066 224.966 147.066C214.86 147.715 205.032 145.676 196.224 135.013ZM196.224 135.013C193.442 132.232 186.025 119.251 183.243 116.47C180.462 113.688 164.7 103.489 164.7 103.489C164.7 103.489 149.865 107.198 142.448 112.761C135.03 118.324 122.977 136.867 119.268 145.212C115.56 153.557 110.924 166.537 110.924 170.246C110.924 173.954 118.341 173.027 122.05 171.173C125.758 169.319 151.719 160.974 156.355 158.192C160.991 155.411 164.7 150.775 168.408 147.994C172.117 145.212 177.68 139.649 183.243 137.795C188.806 135.94 196.224 135.013 196.224 135.013Z" stroke="#003DB3" stroke-width="3" stroke-miterlimit="10" stroke-linecap="round" stroke-linejoin="round"></path><path d="M238.874 146.139C238.874 146.139 232.384 152.908 226.82 153.557C218.476 154.484 213.84 149.848 213.84 149.848C213.84 149.848 207.35 142.431 209.204 136.868C206.423 135.013 206.423 131.397 206.423 127.596C206.423 122.96 208.555 121.106 210.224 119.251C211.986 117.397 216.251 117.212 218.754 118.232C221.257 119.251 225.986 124.258 225.986 124.258C225.986 124.258 231.827 124.351 234.145 126.669C237.947 130.378 241.841 134.272 238.874 146.139Z" fill="#3B7AFF" stroke="#003DB3" stroke-width="3" stroke-miterlimit="10" stroke-linecap="round" stroke-linejoin="round"></path><path d="M225.893 123.888C225.893 123.888 219.496 123.702 215.694 126.669C211.059 130.378 209.204 136.868 209.204 136.868" fill="#3B7AFF"></path><path d="M225.893 123.888C225.893 123.888 219.496 123.702 215.694 126.669C211.059 130.378 209.204 136.868 209.204 136.868" stroke="#003DB3" stroke-width="3" stroke-miterlimit="10" stroke-linecap="round" stroke-linejoin="round"></path><path d="M209.111 139.556C209.111 139.556 203.641 136.867 201.787 133.159C199.932 129.45 199.005 118.324 195.297 114.615C191.588 110.906 174.899 100.708 164.7 103.489" stroke="#003DB3" stroke-width="3" stroke-miterlimit="10" stroke-linecap="round" stroke-linejoin="round"></path><path d="M110.924 170.246C110.924 170.246 110.275 179.981 115.745 185.266Z" fill="#3B7AFF"></path><path d="M110.924 170.246C110.924 170.246 110.275 179.981 115.745 185.266" stroke="#003DB3" stroke-width="3" stroke-miterlimit="10" stroke-linecap="round" stroke-linejoin="round"></path><path d="M297.286 177.663C297.286 177.663 267.616 147.066 238.874 146.139Z" fill="#3B7AFF"></path><path d="M297.286 177.663C297.286 177.663 267.616 147.066 238.874 146.139" stroke="#003DB3" stroke-width="3" stroke-miterlimit="10" stroke-linecap="round" stroke-linejoin="round"></path><path d="M151.719 142.43C151.719 142.43 183.243 130.377 196.224 135.013Z" fill="#3B7AFF"></path><path d="M151.719 142.43C151.719 142.43 183.243 130.377 196.224 135.013" stroke="#003DB3" stroke-width="3" stroke-miterlimit="10" stroke-linecap="round" stroke-linejoin="round"></path></g></svg> 