<?xml version="1.0" encoding="UTF-8"?> <svg xmlns="http://www.w3.org/2000/svg" width="745" height="537" viewBox="0 0 745 537" fill="none"><g opacity="0.5"><path d="M546.209 343.745L649.917 370.372C652.563 377.713 647.895 383.846 647.502 384.999C647.187 385.922 584.237 441.614 552.801 469.344C545.616 435.304 531.616 365.084 533.094 356.524C534.572 347.964 542.454 344.438 546.209 343.745Z" fill="#0056FF" stroke="#003DB3" stroke-width="3" stroke-miterlimit="10" stroke-linecap="round" stroke-linejoin="round"></path><path d="M368.888 281.755L468.975 319.794C470.784 327.384 465.461 332.957 464.942 334.06C464.526 334.941 395.752 383.258 361.417 407.305C358.077 372.676 352.003 301.332 354.428 292.99C356.852 284.649 365.078 282.025 368.888 281.755Z" fill="#0056FF" stroke="#003DB3" stroke-width="3" stroke-miterlimit="10" stroke-linecap="round" stroke-linejoin="round"></path><path d="M209.806 194.799L302.511 248.371C303.082 256.153 296.936 260.802 296.246 261.807C295.694 262.611 220.072 299.293 182.329 317.533C184.577 282.816 190.004 211.419 193.733 203.574C197.462 195.728 206.002 194.455 209.806 194.799Z" fill="#0056FF" stroke="#003DB3" stroke-width="3" stroke-miterlimit="10" stroke-linecap="round" stroke-linejoin="round"></path><path d="M74.7425 96.3582L157.882 163.828C157.224 171.603 150.423 175.229 149.584 176.113C148.913 176.82 68.4673 201.168 28.3282 213.253C36.0013 179.319 52.5762 109.662 57.4914 102.499C62.4066 95.3368 71.0402 95.4209 74.7425 96.3582Z" fill="#0056FF" stroke="#003DB3" stroke-width="3" stroke-miterlimit="10" stroke-linecap="round" stroke-linejoin="round"></path><path fill-rule="evenodd" clip-rule="evenodd" d="M94.4186 111.991C286.239 287.035 603.015 369.121 737.424 388.283L735.356 397.363C600.947 378.201 284.171 296.116 92.3507 121.071L94.4186 111.991Z" fill="#0056FF" stroke="#003DB3" stroke-width="3" stroke-miterlimit="10" stroke-linecap="round" stroke-linejoin="round"></path><path d="M537.368 340.627L641.075 367.254C643.721 374.595 639.053 380.728 638.66 381.881C638.345 382.804 575.395 438.496 543.959 466.226C536.774 432.186 522.774 361.966 524.252 353.406C525.73 344.846 533.612 341.32 537.368 340.627Z" fill="#0056FF" stroke="#003DB3" stroke-width="3" stroke-miterlimit="10" stroke-linecap="round" stroke-linejoin="round"></path><path d="M359.353 277.984L459.44 316.022C461.25 323.612 455.927 329.186 455.407 330.288C454.991 331.17 386.217 379.486 351.882 403.534C348.542 368.905 342.468 297.56 344.893 289.219C347.318 280.877 355.543 278.253 359.353 277.984Z" fill="#0056FF" stroke="#003DB3" stroke-width="3" stroke-miterlimit="10" stroke-linecap="round" stroke-linejoin="round"></path><path d="M201.5 189.678L294.206 243.25C294.777 251.032 288.631 255.681 287.941 256.686C287.389 257.49 211.767 294.172 174.024 312.412C176.272 277.695 181.699 206.298 185.428 198.453C189.157 190.607 197.697 189.334 201.5 189.678Z" fill="#0056FF" stroke="#003DB3" stroke-width="3" stroke-miterlimit="10" stroke-linecap="round" stroke-linejoin="round"></path><path d="M66.6642 90.3899L149.804 157.859C149.145 165.634 142.345 169.261 141.506 170.145C140.835 170.852 60.3889 195.199 20.2499 207.285C27.9229 173.351 44.4978 103.694 49.413 96.5311C54.3283 89.3685 62.9618 89.4526 66.6642 90.3899Z" fill="#0056FF" stroke="#003DB3" stroke-width="3" stroke-miterlimit="10" stroke-linecap="round" stroke-linejoin="round"></path></g></svg> 