<?xml version="1.0" encoding="UTF-8"?> <svg xmlns="http://www.w3.org/2000/svg" width="539" height="412" viewBox="0 0 539 412" fill="none"><path d="M361.772 278.203C361.772 278.203 363.849 267.816 371.12 258.468C376.106 252.028 393.971 240.81 393.971 240.81C393.971 240.81 398.126 258.468 393.971 269.893C390.128 280.384 382.545 287.551 379.429 288.589L361.772 278.203Z" fill="#6BA3FF" stroke="#0056FF" stroke-width="3" stroke-miterlimit="10" stroke-linecap="round" stroke-linejoin="round"></path><path d="M393.972 240.81C393.972 240.81 380.469 270.932 369.771 283.396" stroke="#0056FF" stroke-width="3" stroke-miterlimit="10" stroke-linecap="round" stroke-linejoin="round"></path><path d="M38.2589 39.931C48.8714 39.931 57.4744 31.3279 57.4744 20.7155C57.4744 10.1031 48.8714 1.5 38.2589 1.5C27.6465 1.5 19.0435 10.1031 19.0435 20.7155C19.0435 31.3279 27.6465 39.931 38.2589 39.931Z" fill="#4D8AFF" stroke="#0056FF" stroke-width="3" stroke-miterlimit="10" stroke-linecap="round" stroke-linejoin="round"></path><path d="M77.7329 69.2854C80.9143 60.7372 76.738 51.2934 68.4049 48.1921C60.0718 45.0907 50.7375 49.5063 47.5561 58.0544C44.3747 66.6026 48.551 76.0464 56.8841 79.1477C65.2172 82.2491 74.5515 77.8335 77.7329 69.2854Z" fill="#4D8AFF" stroke="#0056FF" stroke-width="3" stroke-miterlimit="10" stroke-linecap="round" stroke-linejoin="round"></path><path d="M26.833 74.2053C39.1663 74.2053 49.1645 64.2071 49.1645 51.8738C49.1645 39.5404 39.1663 29.5422 26.833 29.5422C14.4996 29.5422 4.50146 39.5404 4.50146 51.8738C4.50146 64.2071 14.4996 74.2053 26.833 74.2053Z" fill="#4D8AFF" stroke="#0056FF" stroke-width="3" stroke-miterlimit="10" stroke-linecap="round" stroke-linejoin="round"></path><path d="M75.1303 103.289C78.2463 90.8247 77.2076 78.3606 67.8596 71.0899C58.7192 63.9231 51.2408 66.9352 45.0087 64.8579C38.7767 62.7805 31.2982 60.7032 23.1965 62.7805C14.8871 64.8579 5.64291 70.8822 2.42302 85.6314C-0.693011 100.173 4.50037 110.56 11.7711 117.83C20.5998 126.659 36.6993 127.178 47.0861 126.14C61.9391 124.686 72.8452 112.429 75.1303 103.289Z" fill="#2968FF" stroke="#0047CC" stroke-width="3" stroke-miterlimit="10" stroke-linecap="round" stroke-linejoin="round"></path><path d="M52.2785 72.1273C52.2785 72.1273 48.2276 74.5163 46.0464 75.2433C42.9304 76.282 39.3989 75.8665 37.737 74.2047C35.6597 72.1273 35.6597 69.0113 35.6597 69.0113" stroke="#0047CC" stroke-width="3" stroke-miterlimit="10" stroke-linecap="round" stroke-linejoin="round"></path><path d="M31.509 93.9402C40.8571 90.8242 51.2439 90.8242 61.6306 98.0949C80.7422 111.494 78.2494 145.874 53.3212 155.222C29.951 163.947 18.1101 155.326 13.8515 151.067C7.61948 144.835 -0.378316 137.668 2.42611 119.907C5.54213 100.172 21.4339 97.264 31.509 93.9402Z" fill="#2968FF" stroke="#0047CC" stroke-width="3" stroke-miterlimit="10" stroke-linecap="round" stroke-linejoin="round"></path><path d="M34.6231 107.442C34.6231 107.442 31.5071 87.7073 31.5071 76.2818C31.5071 64.8564 34.6231 47.1989 40.8552 35.7735C46.6718 25.179 53.3193 21.232 53.3193 21.232C53.3193 21.232 54.358 22.2707 55.3966 22.2707C56.4353 22.2707 73.0541 17.0773 73.0541 16.0387C73.0541 15 73.0541 10.8453 70.9768 9.80662C68.8994 8.76794 53.3193 13.9613 52.2806 15C51.2419 16.0387 51.2419 17.0773 51.2419 17.0773C51.2419 17.0773 41.8939 23.3094 36.7005 32.6575C31.9226 41.1746 26.3137 57.5857 26.3137 75.2432C26.3137 89.7846 28.3911 105.365 29.4297 109.519" fill="#2968FF"></path><path d="M34.6231 107.442C34.6231 107.442 31.5071 87.7073 31.5071 76.2818C31.5071 64.8564 34.6231 47.1989 40.8552 35.7735C46.6718 25.179 53.3193 21.232 53.3193 21.232C53.3193 21.232 54.358 22.2707 55.3966 22.2707C56.4353 22.2707 73.0541 17.0773 73.0541 16.0387C73.0541 15 73.0541 10.8453 70.9768 9.80662C68.8994 8.76794 53.3193 13.9613 52.2806 15C51.2419 16.0387 51.2419 17.0773 51.2419 17.0773C51.2419 17.0773 41.8939 23.3094 36.7005 32.6575C31.9226 41.1746 26.3137 57.5857 26.3137 75.2432C26.3137 89.7846 28.3911 105.365 29.4297 109.519" stroke="#0047CC" stroke-width="3" stroke-miterlimit="10" stroke-linecap="round" stroke-linejoin="round"></path><path d="M20.0835 109.522C20.0835 109.522 28.3929 111.599 32.5476 109.522C36.7023 107.444 39.8183 103.29 39.8183 103.29" stroke="#0047CC" stroke-width="3" stroke-miterlimit="10" stroke-linecap="round" stroke-linejoin="round"></path><path d="M86.5582 146.395C97.5682 134.139 93.6212 115.858 93.6212 115.858C93.6212 115.858 74.198 120.013 69.6278 138.501C67.0311 148.888 69.0046 158.652 69.0046 158.652C69.0046 158.652 80.3262 153.354 86.5582 146.395Z" fill="#6BA3FF" stroke="#0056FF" stroke-width="3" stroke-miterlimit="10" stroke-linecap="round" stroke-linejoin="round"></path><path d="M66.8254 131.337C65.7868 112.641 48.1293 101.216 48.1293 101.216C48.1293 101.216 35.9768 120.119 47.0906 138.608C53.3227 148.995 62.6707 155.227 62.6707 155.227C62.6707 155.227 67.4486 141.932 66.8254 131.337Z" fill="#6BA3FF" stroke="#0056FF" stroke-width="3" stroke-miterlimit="10" stroke-linecap="round" stroke-linejoin="round"></path><path d="M62.6689 155.227C62.6689 155.227 59.5529 136.53 57.4755 128.221C55.3982 119.912 48.1274 101.216 48.1274 101.216" stroke="#0056FF" stroke-width="3" stroke-miterlimit="10" stroke-linecap="round" stroke-linejoin="round"></path><path d="M363.065 279.543C373.242 271.697 374.677 256.497 366.271 245.593C357.864 234.689 342.8 232.211 332.623 240.057C322.446 247.902 321.011 263.102 329.417 274.006C337.823 284.91 352.888 287.389 363.065 279.543Z" fill="#4D8AFF" stroke="#0056FF" stroke-width="3" stroke-miterlimit="10" stroke-linecap="round" stroke-linejoin="round"></path><path d="M89.6715 175.993C101.144 175.993 110.445 166.692 110.445 155.219C110.445 143.746 101.144 134.446 89.6715 134.446C78.1986 134.446 68.8979 143.746 68.8979 155.219C68.8979 166.692 78.1986 175.993 89.6715 175.993Z" fill="#4D8AFF" stroke="#0056FF" stroke-width="3" stroke-miterlimit="10" stroke-linecap="round" stroke-linejoin="round"></path><path d="M34.6224 173.919C46.0953 173.919 55.3959 164.619 55.3959 153.146C55.3959 141.673 46.0953 132.372 34.6224 132.372C23.1495 132.372 13.8489 141.673 13.8489 153.146C13.8489 164.619 23.1495 173.919 34.6224 173.919Z" fill="#4D8AFF" stroke="#0056FF" stroke-width="3" stroke-miterlimit="10" stroke-linecap="round" stroke-linejoin="round"></path><path d="M81.3639 157.3C81.3639 168.725 72.0159 178.073 60.5904 178.073C50.2037 178.073 41.4788 170.387 40.0247 160.312C36.0777 162.597 33.2733 160.831 29.4302 160.416C30.4689 154.184 34.1042 153.872 34.1042 153.872C34.1042 153.872 30.4689 151.379 30.4689 146.601C33.481 142.966 38.4667 144.524 38.4667 144.524C38.4667 144.524 36.7009 141.72 39.8169 137.565C40.8556 140.681 43.9716 141.72 45.0103 143.589C48.8534 139.227 54.3584 136.526 60.5904 136.526C72.1197 136.526 81.3639 145.874 81.3639 157.3Z" fill="#4D8AFF" stroke="#0056FF" stroke-width="3" stroke-miterlimit="10" stroke-linecap="round" stroke-linejoin="round"></path><path d="M46.0482 147.956C46.0482 147.956 45.5289 144.944 45.0095 143.593Z" fill="white"></path><path d="M46.0482 147.956C46.0482 147.956 45.5289 144.944 45.0095 143.593" stroke="#0056FF" stroke-width="3" stroke-miterlimit="10" stroke-linecap="round" stroke-linejoin="round"></path><path d="M43.3487 158.03C43.3487 158.03 41.8945 159.38 40.0249 160.315" stroke="#0056FF" stroke-width="3" stroke-miterlimit="10" stroke-linecap="round" stroke-linejoin="round"></path><path d="M34.6258 211.314C47.2459 211.314 57.4766 201.083 57.4766 188.463C57.4766 175.843 47.2459 165.612 34.6258 165.612C22.0056 165.612 11.7749 175.843 11.7749 188.463C11.7749 201.083 22.0056 211.314 34.6258 211.314Z" fill="#4D8AFF" stroke="#0056FF" stroke-width="3" stroke-miterlimit="10" stroke-linecap="round" stroke-linejoin="round"></path><path d="M28.7024 187.007C28.7024 187.007 22.782 190.642 25.0671 198.224" stroke="#0056FF" stroke-width="3" stroke-miterlimit="10" stroke-linecap="round" stroke-linejoin="round"></path><path d="M38.4679 180.568C38.4679 180.568 39.4027 177.452 37.0137 175.686C34.6248 173.92 32.4435 175.167 30.2623 172.57C30.2623 174.647 28.3927 174.855 27.2502 177.556C26.0038 180.36 27.4579 181.71 27.4579 181.71C27.4579 181.71 24.6535 180.049 22.5762 182.126C20.4988 184.203 20.1872 185.138 16.9673 186.488C19.6678 188.254 18.3176 190.228 19.9795 191.474C21.0181 192.201 24.1342 191.993 25.4844 190.435" stroke="#0056FF" stroke-width="3" stroke-miterlimit="10" stroke-linecap="round" stroke-linejoin="round"></path><path d="M33.8948 183.375C40.3346 177.454 46.0473 182.232 46.0473 182.232C46.0473 182.232 44.697 184.933 43.8661 186.802C41.8926 191.061 38.7765 191.165 34.7257 189.918" stroke="#0056FF" stroke-width="3" stroke-miterlimit="10" stroke-linecap="round" stroke-linejoin="round"></path><path d="M385.861 303.059C387.116 287.909 376.964 274.702 363.186 273.561C349.409 272.42 337.222 283.776 335.967 298.926C334.712 314.076 344.864 327.282 358.642 328.424C372.42 329.565 384.606 318.209 385.861 303.059Z" fill="#4D8AFF" stroke="#0056FF" stroke-width="3" stroke-miterlimit="10" stroke-linecap="round" stroke-linejoin="round"></path><path d="M82.4048 144.833C82.4048 144.833 84.4821 151.065 87.5982 153.143C90.7142 155.22 102.243 158.648 107.333 159.375C114.604 160.413 122.913 162.491 133.3 167.684C143.375 172.67 150.957 187.419 151.996 193.651C153.035 199.883 153.97 207.154 151.996 217.541C148.88 234.159 135.377 242.469 123.952 245.585C112.526 248.701 101.101 245.585 101.101 245.585C101.101 245.585 100.062 250.778 96.9462 252.856C93.8302 254.933 91.7529 253.894 90.7142 252.856C89.6755 251.817 88.6368 250.778 86.5595 250.778C84.4821 250.778 84.4821 252.856 82.4048 253.894C80.5352 254.829 77.2114 254.933 74.0954 252.856C70.9793 250.778 68.902 244.546 68.902 244.546C68.902 244.546 64.0202 244.858 60.5926 243.508C55.3992 241.43 54.3605 235.198 54.3605 235.198C54.3605 235.198 46.6743 232.29 45.0125 228.966C41.8964 222.734 42.9351 216.502 42.9351 216.502C42.9351 216.502 37.7417 208.193 38.7804 201.96C39.8191 195.728 43.9738 191.574 43.9738 191.574C43.9738 191.574 41.8964 184.303 47.0898 177.032C50.6213 172.151 61.6313 166.646 66.8246 161.452C73.0567 155.22 77.8346 147.534 78.5617 145.664C79.2887 143.795 81.3661 142.756 82.4048 144.833Z" fill="#A3C4FF" stroke="#0056FF" stroke-width="3" stroke-miterlimit="10" stroke-linecap="round" stroke-linejoin="round"></path><path d="M81.3647 165.609C81.3647 170.802 83.9614 183.474 86.5581 189.498C89.6742 196.769 95.1791 205.286 97.9836 212.349C102.138 222.736 104.216 231.045 101.1 245.587" stroke="#0056FF" stroke-width="3" stroke-miterlimit="10" stroke-linecap="round" stroke-linejoin="round"></path><path d="M74.0953 190.536C74.0953 190.536 72.0179 199.988 69.9406 210.271C67.8632 220.657 64.7472 236.238 68.9019 244.547" stroke="#0056FF" stroke-width="3" stroke-miterlimit="10" stroke-linecap="round" stroke-linejoin="round"></path><path d="M75.1331 165.609C74.0945 168.725 69.9398 180.15 66.8237 186.382C63.7077 192.614 57.4757 204.04 55.3983 213.388C53.321 222.736 52.2823 228.968 54.3596 235.2" stroke="#0056FF" stroke-width="3" stroke-miterlimit="10" stroke-linecap="round" stroke-linejoin="round"></path><path d="M66.8236 173.918C66.8236 173.918 56.4369 189.498 52.2822 195.73C48.1275 201.962 42.9341 209.233 42.9341 216.504" stroke="#0056FF" stroke-width="3" stroke-miterlimit="10" stroke-linecap="round" stroke-linejoin="round"></path><path d="M82.4008 144.836C81.3622 153.146 89.6716 173.919 94.8649 181.19C100.058 188.461 110.445 198.847 115.638 209.234C120.001 218.063 119.793 225.853 117.716 234.162C115.95 241.225 110.445 244.549 110.445 244.549" stroke="#0056FF" stroke-width="3" stroke-miterlimit="10" stroke-linecap="round" stroke-linejoin="round"></path><path d="M95.9058 170.805C99.0218 173.921 101.099 174.96 106.293 179.115C111.694 183.477 117.718 186.385 123.95 191.579C128.624 195.422 132.675 200.2 135.375 209.236C138.491 219.623 135.895 226.79 132.467 236.138" stroke="#0056FF" stroke-width="3" stroke-miterlimit="10" stroke-linecap="round" stroke-linejoin="round"></path><path d="M84.4802 152.106C84.4802 152.106 88.6349 161.454 103.176 165.609C111.382 167.998 121.665 171.218 128.105 174.957C140.569 182.228 145.762 192.615 145.762 201.963" stroke="#0056FF" stroke-width="3" stroke-miterlimit="10" stroke-linecap="round" stroke-linejoin="round"></path><path d="M54.7742 180.88C54.7742 180.88 47.0879 187.424 43.9719 191.579Z" fill="white"></path><path d="M54.7742 180.88C54.7742 180.88 47.0879 187.424 43.9719 191.579" stroke="#0056FF" stroke-width="3" stroke-miterlimit="10" stroke-linecap="round" stroke-linejoin="round"></path><path d="M237.164 233.125C236.126 235.202 231.971 236.241 231.971 236.241Z" fill="white"></path><path d="M237.164 233.125C236.126 235.202 231.971 236.241 231.971 236.241" stroke="#0056FF" stroke-width="3" stroke-miterlimit="10" stroke-linecap="round" stroke-linejoin="round"></path><path d="M156.146 200.922C163.417 200.299 175.466 204.557 181.074 209.231C187.307 214.425 195.616 222.734 198.732 237.276C201.225 248.805 200.809 258.049 193.539 269.475C186.268 280.9 174.842 288.171 161.34 292.326C147.318 296.688 135.373 294.403 127.063 290.248C118.754 286.093 110.445 278.823 106.29 267.397C102.135 255.972 105.667 237.587 111.483 227.928C117.715 217.541 131.218 202.999 156.146 200.922Z" fill="#2968FF" stroke="#0047CC" stroke-width="3" stroke-miterlimit="10" stroke-linecap="round" stroke-linejoin="round"></path><path d="M144.721 230.006C144.721 230.006 144.721 199.885 144.721 192.614C144.721 185.343 146.798 154.183 149.915 145.874C153.031 137.564 155.108 133.41 158.224 129.255C161.34 125.1 164.456 123.023 163.417 118.868C162.379 114.713 159.263 112.221 157.185 112.636C151.992 113.675 154.069 120.945 154.069 120.945C154.069 120.945 146.798 131.332 142.644 150.028C138.489 168.725 139.528 230.006 139.528 230.006" fill="#2968FF"></path><path d="M144.721 230.006C144.721 230.006 144.721 199.885 144.721 192.614C144.721 185.343 146.798 154.183 149.915 145.874C153.031 137.564 155.108 133.41 158.224 129.255C161.34 125.1 164.456 123.023 163.417 118.868C162.379 114.713 159.263 112.221 157.185 112.636C151.992 113.675 154.069 120.945 154.069 120.945C154.069 120.945 146.798 131.332 142.644 150.028C138.489 168.725 139.528 230.006 139.528 230.006" stroke="#0047CC" stroke-width="3" stroke-miterlimit="10" stroke-linecap="round" stroke-linejoin="round"></path><path d="M156.146 124.061L154.069 120.945" stroke="#0047CC" stroke-width="3" stroke-miterlimit="10" stroke-linecap="round" stroke-linejoin="round"></path><path d="M122.912 232.083C122.912 232.083 129.144 230.005 134.337 230.005C139.53 230.005 143.685 231.044 148.879 230.005C154.072 228.967 158.227 222.735 158.227 222.735" stroke="#0047CC" stroke-width="3" stroke-miterlimit="10" stroke-linecap="round" stroke-linejoin="round"></path><path d="M199.771 255.976C199.771 255.976 184.191 249.744 182.113 242.473C180.036 235.202 181.075 223.777 183.152 217.545C185.229 211.313 195.616 189.501 195.616 189.501C195.616 189.501 207.041 208.197 209.119 216.506C211.196 224.816 213.274 233.125 211.196 240.396C209.119 247.667 199.771 255.976 199.771 255.976Z" fill="#6BA3FF" stroke="#0056FF" stroke-width="3" stroke-miterlimit="10" stroke-linecap="round" stroke-linejoin="round"></path><path d="M195.615 189.501C195.615 189.501 198.315 214.533 196.653 227.932C194.576 244.551 199.769 255.976 199.769 255.976" stroke="#0056FF" stroke-width="3" stroke-miterlimit="10" stroke-linecap="round" stroke-linejoin="round"></path><path d="M237.167 233.126C237.167 233.126 242.152 237.384 243.399 242.474C245.476 250.783 242.36 261.17 234.051 266.363C226.988 270.829 214.316 267.402 208.084 262.208C201.852 257.015 198.736 243.512 206.006 234.164C213.277 224.816 224.703 227.932 224.703 227.932C224.703 227.932 225.741 223.778 226.78 219.623C227.819 219.623 231.973 224.816 230.935 228.971C233.012 225.855 237.167 223.778 241.321 224.816C239.244 227.932 237.167 233.126 237.167 233.126Z" fill="#4D8AFF" stroke="#0056FF" stroke-width="3" stroke-miterlimit="10" stroke-linecap="round" stroke-linejoin="round"></path><path d="M225.738 233.124C225.738 233.124 223.661 231.046 224.7 227.93Z" fill="white"></path><path d="M225.738 233.124C225.738 233.124 223.661 231.046 224.7 227.93" stroke="#0056FF" stroke-width="3" stroke-miterlimit="10" stroke-linecap="round" stroke-linejoin="round"></path><path d="M201.101 293.308C204.678 280.31 198.385 267.244 187.047 264.124C175.708 261.004 163.617 269.012 160.04 282.01C156.464 295.008 162.757 308.074 174.095 311.194C185.434 314.314 197.525 306.306 201.101 293.308Z" fill="#4D8AFF" stroke="#0056FF" stroke-width="3" stroke-miterlimit="10" stroke-linecap="round" stroke-linejoin="round"></path><path d="M230.461 266.512C232.773 254.981 223.932 243.486 210.715 240.835C197.497 238.185 184.908 245.384 182.596 256.914C180.284 268.445 189.125 279.94 202.342 282.591C215.56 285.241 228.149 278.042 230.461 266.512Z" fill="#4D8AFF" stroke="#0056FF" stroke-width="3" stroke-miterlimit="10" stroke-linecap="round" stroke-linejoin="round"></path><path d="M205.589 274.568C208.859 274.568 211.509 272.568 211.509 270.102C211.509 267.635 208.859 265.635 205.589 265.635C202.319 265.635 199.668 267.635 199.668 270.102C199.668 272.568 202.319 274.568 205.589 274.568Z" stroke="#0056FF" stroke-width="3" stroke-linecap="round" stroke-linejoin="round"></path><path d="M224.818 316.731C237.328 311.709 243.918 298.792 239.538 287.879C235.157 276.966 221.465 272.19 208.955 277.211C196.445 282.233 189.854 295.15 194.235 306.063C198.615 316.976 212.308 321.752 224.818 316.731Z" fill="#4D8AFF" stroke="#0056FF" stroke-width="3" stroke-miterlimit="10" stroke-linecap="round" stroke-linejoin="round"></path><path d="M265.208 238.32C265.208 238.32 265.208 236.242 267.285 235.204C269.362 234.165 274.556 237.281 277.672 237.281C280.788 237.281 296.368 236.242 301.561 236.242C306.755 236.242 309.871 242.475 309.871 242.475C309.871 242.475 315.064 242.475 320.258 243.513C324.828 244.448 327.528 245.591 329.606 249.745C331.683 253.9 331.579 261.275 331.579 261.275C331.579 261.275 341.031 264.287 342.485 271.35C344.355 279.971 340.927 290.15 340.927 290.15C340.927 290.15 341.966 295.343 340.927 298.459C339.889 301.575 333.657 304.691 333.657 304.691C333.657 304.691 332.618 311.962 329.502 314.039C326.386 316.117 320.154 317.155 320.154 317.155C320.154 317.155 319.115 324.426 314.96 326.503C310.806 328.581 305.612 324.426 302.496 323.387C299.38 322.349 298.342 323.387 298.342 323.387C298.342 323.387 297.303 328.581 295.226 330.658C293.564 332.32 290.032 333.774 286.916 332.735C284.735 332.008 282.761 330.658 280.684 330.658C276.529 330.658 274.452 334.813 270.297 333.774C264.169 332.216 263.027 327.542 263.027 327.542C259.911 328.581 254.302 329.723 249.524 327.542C241.734 324.011 241.214 318.194 241.214 318.194C241.214 318.194 236.021 318.194 232.905 316.117C229.789 314.039 226.673 310.923 226.673 303.653C226.673 296.382 230.828 290.15 230.828 290.15C230.828 290.15 225.634 285.995 225.634 279.763C225.634 273.531 228.439 270.311 228.439 270.311C228.439 270.311 224.596 262.106 233.944 258.989C233.944 255.873 236.021 253.796 238.098 252.757C242.253 250.68 249.004 249.849 253.679 247.564C257.937 245.591 264.169 242.475 265.208 238.32Z" fill="#A3C4FF" stroke="#0056FF" stroke-width="3" stroke-miterlimit="10" stroke-linecap="round" stroke-linejoin="round"></path><path d="M298.448 323.487C298.448 323.487 299.486 314.139 298.448 304.791C297.617 297.521 294.293 287.134 292.216 281.94C290.138 276.747 274.558 246.625 274.558 246.625" stroke="#0056FF" stroke-width="3" stroke-miterlimit="10" stroke-linecap="round" stroke-linejoin="round"></path><path d="M270.4 253.895C270.4 253.895 271.438 268.437 269.361 277.785C267.595 285.99 263.025 294.611 261.052 300.636C258.974 306.868 258.974 312.061 260.013 318.293C261.052 324.525 263.129 327.641 263.129 327.641" stroke="#0056FF" stroke-width="3" stroke-miterlimit="10" stroke-linecap="round" stroke-linejoin="round"></path><path d="M265.208 238.318C265.208 238.318 262.715 250.574 260.014 257.014C256.898 264.285 252.744 269.478 249.628 272.594C244.434 277.787 235.086 281.942 230.931 290.252" stroke="#0056FF" stroke-width="3" stroke-miterlimit="10" stroke-linecap="round" stroke-linejoin="round"></path><path d="M264.169 240.395C264.169 240.395 260.014 253.898 250.666 260.13C241.318 266.362 235.086 263.246 227.815 271.556" stroke="#0056FF" stroke-width="3" stroke-miterlimit="10" stroke-linecap="round" stroke-linejoin="round"></path><path d="M244.434 255.975C244.434 255.975 238.202 258.052 234.047 259.091Z" fill="white"></path><path d="M244.434 255.975C244.434 255.975 238.202 258.052 234.047 259.091" stroke="#0056FF" stroke-width="3" stroke-miterlimit="10" stroke-linecap="round" stroke-linejoin="round"></path><path d="M264.17 262.207C264.17 262.207 262.093 271.555 260.015 276.749C257.938 281.942 254.822 286.097 249.629 291.29C245.474 295.445 242.358 300.638 241.319 304.793C240.073 309.882 240.28 315.18 241.319 318.296" stroke="#0056FF" stroke-width="3" stroke-miterlimit="10" stroke-linecap="round" stroke-linejoin="round"></path><path d="M320.258 317.257C320.258 317.257 320.258 311.024 317.142 301.676C314.026 292.328 310.91 290.251 307.794 286.096C304.678 281.942 295.33 273.632 295.33 273.632" stroke="#0056FF" stroke-width="3" stroke-miterlimit="10" stroke-linecap="round" stroke-linejoin="round"></path><path d="M333.762 304.794C333.762 304.794 335.839 298.562 331.685 290.253C328.569 284.02 324.102 280.697 318.182 277.788C311.95 274.672 302.602 271.556 294.292 263.247" stroke="#0056FF" stroke-width="3" stroke-miterlimit="10" stroke-linecap="round" stroke-linejoin="round"></path><path d="M341.031 290.251C341.031 290.251 339.992 284.019 335.214 278.514C331.787 274.567 320.984 269.166 315.064 266.362C309.559 263.765 296.368 255.975 296.368 255.975" stroke="#0056FF" stroke-width="3" stroke-miterlimit="10" stroke-linecap="round" stroke-linejoin="round"></path><path d="M331.685 261.17C331.685 261.17 321.298 257.015 311.95 254.938C302.29 252.757 290.138 247.667 285.983 245.59" fill="white"></path><path d="M331.685 261.17C331.685 261.17 321.298 257.015 311.95 254.938C302.29 252.757 290.138 247.667 285.983 245.59" stroke="#0056FF" stroke-width="3" stroke-miterlimit="10" stroke-linecap="round" stroke-linejoin="round"></path><path d="M295.33 241.433C295.33 241.433 303.639 242.472 309.871 242.472Z" fill="white"></path><path d="M295.33 241.433C295.33 241.433 303.639 242.472 309.871 242.472" stroke="#0056FF" stroke-width="3" stroke-miterlimit="10" stroke-linecap="round" stroke-linejoin="round"></path><path d="M355.26 299.601C358.273 290.149 350.067 289.525 353.702 281.735C356.818 283.293 359.519 279.658 363.466 283.189C363.674 278.412 372.087 275.607 372.606 277.165C373.645 280.177 378.215 281.528 374.476 289.006C377.904 289.733 377.696 294.927 381.123 297.419C374.476 305.313 370.217 303.444 365.647 301.055" fill="#4D8AFF"></path><path d="M355.26 299.601C358.273 290.149 350.067 289.525 353.702 281.735C356.818 283.293 359.519 279.658 363.466 283.189C363.674 278.412 372.087 275.607 372.606 277.165C373.645 280.177 378.215 281.528 374.476 289.006C377.904 289.733 377.696 294.927 381.123 297.419C374.476 305.313 370.217 303.444 365.647 301.055" stroke="#0056FF" stroke-width="3" stroke-miterlimit="10" stroke-linecap="round" stroke-linejoin="round"></path><path d="M359.625 287.862C364.091 291.394 365.441 300.949 361.91 305.312Z" fill="#4D8AFF"></path><path d="M359.625 287.862C364.091 291.394 365.441 300.949 361.91 305.312" stroke="#0056FF" stroke-width="3" stroke-miterlimit="10" stroke-linecap="round" stroke-linejoin="round"></path><path d="M34.7256 20.4062C37.9953 20.4062 40.646 18.4066 40.646 15.9399C40.646 13.4733 37.9953 11.4736 34.7256 11.4736C31.4558 11.4736 28.8052 13.4733 28.8052 15.9399C28.8052 18.4066 31.4558 20.4062 34.7256 20.4062Z" stroke="#0056FF" stroke-width="3" stroke-linecap="round" stroke-linejoin="round"></path><path d="M152.047 303.715C152.047 303.715 149.294 298.269 138.249 291.477C132.052 287.547 120.471 283.063 109.992 284.703" fill="#A3C4FF"></path><path d="M152.047 303.715C152.047 303.715 149.294 298.269 138.249 291.477C132.052 287.547 120.471 283.063 109.992 284.703" stroke="#0056FF" stroke-width="3" stroke-linecap="round" stroke-linejoin="round"></path><path d="M423.435 180.533C423.435 180.533 426.099 185.639 434.869 189.768C439.805 192.213 448.665 193.678 455.957 188.816" fill="#A3C4FF"></path><path d="M423.435 180.533C423.435 180.533 426.099 185.639 434.869 189.768C439.805 192.213 448.665 193.678 455.957 188.816" stroke="#0056FF" stroke-width="3" stroke-linecap="round" stroke-linejoin="round"></path><path d="M253.909 162.4C253.909 162.4 257.553 158.903 268.042 156.629C273.96 155.26 284.234 154.935 291.967 159.091" fill="#A3C4FF"></path><path d="M253.909 162.4C253.909 162.4 257.553 158.903 268.042 156.629C273.96 155.26 284.234 154.935 291.967 159.091" stroke="#0056FF" stroke-width="3" stroke-linecap="round" stroke-linejoin="round"></path><path d="M186.908 152.081C186.908 152.081 189.472 150.193 195.691 149.962C199.212 149.774 205.019 150.819 208.734 154.543" fill="#A3C4FF"></path><path d="M186.908 152.081C186.908 152.081 189.472 150.193 195.691 149.962C199.212 149.774 205.019 150.819 208.734 154.543" stroke="#0056FF" stroke-width="3" stroke-linecap="round" stroke-linejoin="round"></path><path d="M430.776 108.05C430.776 108.05 428.509 106.298 422.479 105.669C419.071 105.266 413.285 105.727 409.209 108.566" fill="#A3C4FF"></path><path d="M430.776 108.05C430.776 108.05 428.509 106.298 422.479 105.669C419.071 105.266 413.285 105.727 409.209 108.566" stroke="#0056FF" stroke-width="3" stroke-linecap="round" stroke-linejoin="round"></path><path d="M394.464 79.6012C394.464 79.6012 391.493 77.3051 383.591 76.4807C379.125 75.952 371.543 76.5563 366.202 80.2767" fill="#A3C4FF"></path><path d="M394.464 79.6012C394.464 79.6012 391.493 77.3051 383.591 76.4807C379.125 75.952 371.543 76.5563 366.202 80.2767" stroke="#0056FF" stroke-width="3" stroke-linecap="round" stroke-linejoin="round"></path></svg> 