<?xml version="1.0" encoding="UTF-8"?> <svg xmlns="http://www.w3.org/2000/svg" width="151" height="156" viewBox="0 0 151 156" fill="none"><path d="M131.196 153.931C131.196 153.931 125.736 150.175 128.466 134.127C131.196 118.078 144.162 92.4694 147.233 75.0895C154.398 47.0904 136.655 40.6027 136.655 40.6027L92.6383 13.9695C107.311 24.5545 114.476 51.1878 106.628 66.8604C94.0032 95.8839 81.037 116.678 95.368 128.629C100.827 132.385 131.537 154.238 131.537 154.238L131.196 153.897V153.931Z" fill="#4D8AFF" stroke="#003DB3" stroke-width="3" stroke-linecap="round" stroke-linejoin="round"></path><path d="M12.453 53.9202C78.3075 10.5558 140.068 42.6182 140.068 42.6182L93.6622 11.8191C65.6826 -3.88774 28.1148 -1.01947 1.5 16.0532C6.27701 26.2967 12.4189 53.9543 12.4189 53.9543L12.453 53.9202Z" fill="#6BA3FF" stroke="#003DB3" stroke-width="3" stroke-linecap="round" stroke-linejoin="round"></path></svg> 