<?xml version="1.0" encoding="UTF-8"?> <svg xmlns="http://www.w3.org/2000/svg" width="31" height="177" viewBox="0 0 31 177" fill="none"><path d="M8.56909 153.903V168.94V170.623C8.56909 171.745 11.4866 174.55 15.0774 174.55C18.6682 174.55 21.5857 171.745 21.5857 170.623V168.94V153.903" fill="#E6F0FF"></path><path d="M8.56909 153.903V168.94V170.623C8.56909 171.745 11.4866 174.55 15.0774 174.55C18.6682 174.55 21.5857 171.745 21.5857 170.623V168.94V153.903" stroke="#0047CC" stroke-width="3" stroke-linecap="round" stroke-linejoin="round"></path><path d="M15.0777 123.27C7.55949 123.27 1.5 125.626 1.5 127.983V131.574V136.062V153.006V157.495V161.085C1.5 163.442 7.55949 167.481 15.0777 167.481C22.5959 167.481 28.6553 163.442 28.6553 161.085V157.495V153.006V136.062V131.574V127.983C28.6553 125.626 22.5959 123.27 15.0777 123.27Z" fill="#E6F0FF" stroke="#0047CC" stroke-width="3" stroke-linecap="round" stroke-linejoin="round"></path><path d="M4.41626 44.1394V128.431V128.879C4.41626 133.368 9.12916 134.939 15.0764 134.939C20.9114 134.939 25.7365 133.256 25.7365 128.879V128.431V44.1394" fill="#CCE0FF"></path><path d="M4.41626 44.1394V128.431V128.879C4.41626 133.368 9.12916 134.939 15.0764 134.939C20.9114 134.939 25.7365 133.256 25.7365 128.879V128.431V44.1394" stroke="#0047CC" stroke-width="3" stroke-linecap="round" stroke-linejoin="round"></path><path d="M18.4446 30.6751C18.4446 27.0843 18.4446 5.42742 18.4446 5.42742C18.4446 4.52972 17.8835 1.5 14.966 1.5C11.7118 1.5 11.3752 4.52972 11.3752 5.42742C11.3752 5.42742 11.3752 27.421 11.3752 30.6751C11.3752 33.9293 4.53027 39.8765 4.53027 44.1405C4.53027 46.7214 11.263 48.4046 14.966 48.4046C18.669 48.4046 25.7384 46.7214 25.7384 44.1405C25.7384 38.9788 18.4446 34.1537 18.4446 30.6751Z" fill="#E6F0FF" stroke="#0047CC" stroke-width="3" stroke-linecap="round" stroke-linejoin="round"></path><path d="M18.4443 26.1866C18.4443 22.5958 18.4443 5.42742 18.4443 5.42742C18.4443 4.52972 17.8832 1.5 14.9657 1.5C11.7116 1.5 11.375 4.52972 11.375 5.42742C11.375 5.42742 11.375 22.9325 11.375 26.1866C11.375 29.4408 18.4443 29.6652 18.4443 26.1866Z" fill="#E6F0FF" stroke="#0047CC" stroke-width="3" stroke-linecap="round" stroke-linejoin="round"></path></svg> 