<?xml version="1.0" encoding="UTF-8"?> <svg xmlns="http://www.w3.org/2000/svg" width="302" height="264" viewBox="0 0 302 264" fill="none"><path d="M1.69394 256.377C2.9404 253.262 4.24751 249.465 5.76347 245.074C14.5628 219.541 29.298 176.813 69.845 164.537C87.565 159.172 103.944 159.679 118.282 163.807C119.885 151.618 125.518 142.558 134.809 137.383C144.39 132.038 155.79 132.106 167.662 137.396C164.711 119.181 165.088 97.8642 172.392 77.6287C179.641 57.5553 192.658 41.0155 211.086 28.4688C232.545 13.8614 261.322 4.81452 296.6 1.58495C299.201 1.34847 300.049 10.7669 297.455 11.0034C256.855 14.7195 225.74 26.2595 204.975 45.2991C188.427 60.4741 178.691 80.0543 176.03 103.499C174.231 119.329 176.104 133.437 178.408 143.551C191.062 152.423 203.095 167.145 201.855 177.138C201.404 180.779 199.187 183.583 195.765 184.82C193.413 185.671 189.674 185.752 185.213 181.279C179.931 175.975 174.049 164.368 170.188 149.483C162.15 144.504 150.137 139.653 139.384 145.646C130.949 150.348 128.112 159.206 127.418 167.03C150.36 176.631 166.833 195.4 173.247 212.014C178.193 224.811 176.246 235.169 168.167 239.033C155.548 245.08 139.984 234.594 128.516 212.325C122.082 199.826 118.241 185.84 117.83 173.563C105.817 169.685 90.5026 168.165 72.5603 173.597C36.6285 184.475 23.4093 222.804 14.6706 248.168C13.1142 252.681 11.7734 256.573 10.4394 259.904C9.69825 261.748 0.717001 258.809 1.68722 256.384L1.69394 256.377ZM127.553 177.469C128.543 187.306 131.831 198.116 136.911 207.981C145.421 224.5 156.861 233.973 164.118 230.493C167.716 228.77 166.88 221.683 164.468 215.426C160.486 205.116 150.131 190.502 133.004 180.394C131.326 179.401 129.507 178.421 127.56 177.469H127.553ZM183.792 160.746C187.275 169.172 190.698 173.611 192.53 175.185C192.268 172.739 189.6 167.097 183.792 160.746Z" fill="white" stroke="#0047CC" stroke-width="3" stroke-linecap="round" stroke-linejoin="round"></path><path d="M117.837 173.557C121.698 174.732 125.74 176.557 127.553 177.469" stroke="#0047CC" stroke-width="3" stroke-linecap="round" stroke-linejoin="round"></path><path d="M118.281 163.801C121.192 164.544 125.942 166.382 127.424 167.023" stroke="#0047CC" stroke-width="3" stroke-linecap="round" stroke-linejoin="round"></path><path d="M167.663 137.389C171.213 139.106 176.57 142.2 178.416 143.545" stroke="#0047CC" stroke-width="3" stroke-linecap="round" stroke-linejoin="round"></path><path d="M170.196 149.477C173.807 151.76 179.864 156.071 183.786 160.753" stroke="#0047CC" stroke-width="3" stroke-linecap="round" stroke-linejoin="round"></path><path d="M297.565 10.9249C299.206 10.7668 300.334 8.53081 300.085 5.93076C299.836 3.3307 298.304 1.35115 296.663 1.5093C295.022 1.66745 293.894 3.90341 294.143 6.50347C294.392 9.10352 295.924 11.0831 297.565 10.9249Z" fill="white" stroke="#0047CC" stroke-width="3" stroke-linecap="round" stroke-linejoin="round"></path><path d="M192.523 175.192C192.84 177.637 191.85 178.475 191.142 178.948" stroke="#0047CC" stroke-width="3" stroke-linecap="round" stroke-linejoin="round"></path><path d="M10.4058 259.98C11.0146 258.444 9.54542 256.417 7.12438 255.453C4.70335 254.49 2.24723 254.954 1.63849 256.49C1.02975 258.026 2.49889 260.053 4.91992 261.016C7.34096 261.98 9.79708 261.516 10.4058 259.98Z" fill="white" stroke="#0047CC" stroke-width="3" stroke-linecap="round" stroke-linejoin="round"></path></svg> 