<?xml version="1.0" encoding="UTF-8"?> <svg xmlns="http://www.w3.org/2000/svg" width="258" height="228" viewBox="0 0 258 228" fill="none"><path d="M49.0765 210.027L73.4433 194.196C82.3572 188.757 91.5334 175.789 89.8685 154.695C87.6728 129.661 76.3363 113.007 66.5413 107.993C58.4815 103.949 55.0956 105.8 53.4173 107.914C48.2331 114.444 40.4294 125.787 40.4294 125.787C40.4294 125.787 63.219 142.094 66.8047 162.954C72.4374 189.877 49.0275 210.06 49.0275 210.06L49.0765 210.027Z" fill="#A3C4FF" stroke="#0056FF" stroke-width="2" stroke-linecap="round" stroke-linejoin="round"></path><path d="M135.026 172.68L150.248 155.259C150.248 155.259 155.968 148.873 146.331 136.295C140.161 128.811 126.246 119.22 113.986 107.425C107.082 100.442 105.54 88.8012 105.54 88.8012C105.54 88.8012 94.563 97.738 88.646 104.544C85.6683 107.969 87.4855 113.796 103.948 130.184C113.505 139.59 122.351 142.36 129.205 150.116C138.576 160.724 135.026 172.68 135.026 172.68Z" fill="#A3C4FF" stroke="#0056FF" stroke-width="2" stroke-linecap="round" stroke-linejoin="round"></path><path d="M190.571 129.552C190.571 129.552 201.87 116.547 207.311 101.151C212.518 86.9914 215.182 59.7207 196.706 37.3188C184.867 23.0863 156.528 29.7057 156.528 29.7057L177.557 16.1441C185.577 10.285 199.05 11.9893 208.157 20.6267C232.991 46.1533 233.809 77.0336 230.705 88.9631C227.601 100.893 221.431 108.621 216.529 112.203C206.725 119.365 190.571 129.552 190.571 129.552Z" fill="#A3C4FF" stroke="#0056FF" stroke-width="2" stroke-linecap="round" stroke-linejoin="round"></path><path d="M171.919 94.3531C171.185 94.8539 191.281 82.2353 191.281 82.2353C183.409 73.8319 176.974 64.3781 174.012 53.7049C172.78 50.3141 171.733 45.7212 171.236 41.8297C168.117 21.655 178.575 15.401 178.575 15.401L156.555 29.5334C156.555 29.5334 150.305 35.9436 150.66 47.3175C150.811 63.1326 163.195 84.3801 172.017 94.2864L171.919 94.3531Z" fill="#F0F5FF" stroke="#0056FF" stroke-width="2" stroke-linecap="round" stroke-linejoin="round"></path><path d="M158.448 129.131C181.581 136.671 191.722 129.761 191.722 129.761C191.722 129.761 207.158 119.049 216.53 112.202C210.653 116.482 192.694 124.868 144.536 99.3164C115.968 83.7915 107.661 83.6705 105.201 86.1837C97.8193 93.7236 88.6587 104.71 88.6587 104.71C92.382 100.985 96.635 102.272 100.807 103.66C117.847 110.046 142.341 124.116 158.414 129.082L158.448 129.131Z" fill="#F0F5FF" stroke="#0056FF" stroke-width="2" stroke-linecap="round" stroke-linejoin="round"></path><path d="M135.024 172.681L150.248 155.259C146.444 158.038 130.247 157.866 121.032 156.76C104.489 154.266 88.6541 148.129 75.3915 138.021C53.6155 121.425 50.5341 116.102 53.417 107.913C49.1903 112.789 45.145 117.176 40.1871 125.094C37.7081 129.052 43.7459 144.676 69.926 159.748C114.193 185.8 134.975 172.714 134.975 172.714L135.024 172.681Z" fill="#F0F5FF" stroke="#0056FF" stroke-width="2" stroke-linecap="round" stroke-linejoin="round"></path></svg> 