<?xml version="1.0" encoding="UTF-8"?> <svg xmlns="http://www.w3.org/2000/svg" width="602" height="559" viewBox="0 0 602 559" fill="none"><path d="M588.467 392.484C588.467 334.118 588.779 217.177 588.779 217.177C536.551 163.284 382.468 124.685 301.317 124.685C214.235 124.685 67.1226 158.186 14.4784 218.217C14.4784 218.217 14.2703 338.592 14.2703 392.484C14.2703 474.156 142.76 557.076 301.421 557.076C446.244 557.076 588.467 466.873 588.467 392.484Z" fill="#6BA3FF" stroke="#0056FF" stroke-width="3" stroke-miterlimit="10" stroke-linecap="round" stroke-linejoin="round"></path><path d="M587.739 192.207C590.86 199.489 593.877 213.014 596.062 230.701C598.143 247.348 597.207 272.837 596.062 288.964C595.022 303.529 596.062 324.337 596.062 334.741C596.062 345.145 601.472 357.526 600.224 369.074C599.183 378.438 588.779 386.865 588.779 386.865L587.843 352.636L587.635 331.724C586.594 337.967 583.473 347.33 578.271 349.411C578.271 352.532 584.514 368.138 572.029 366.057C566.827 365.225 568.908 354.613 567.867 349.411C566.827 344.209 562.665 345.249 559.544 348.371C554.342 353.573 551.845 364.705 550.18 377.502C548.1 393.108 548.1 422.239 548.1 429.522C548.1 436.805 548.1 466.976 548.1 466.976C548.1 466.976 549.14 480.501 544.978 481.542C540.817 482.582 532.494 482.582 532.494 478.421C532.494 474.259 534.574 460.734 534.574 447.209C534.574 433.683 534.574 419.118 534.574 410.795C534.574 402.471 534.574 391.027 529.372 387.906C524.17 384.785 515.847 387.906 511.686 389.987C507.524 392.067 493.999 402.471 488.797 410.795C483.595 419.118 475.272 435.764 474.231 439.926C473.191 444.087 469.029 462.815 467.989 469.057C466.948 475.299 465.908 482.582 465.908 486.744C465.908 490.905 470.07 498.188 469.029 503.39C467.989 508.592 462.787 510.673 459.666 510.673C455.504 510.673 452.903 507.552 452.383 504.431C451.342 498.188 454.36 492.882 455.504 484.663C456.544 477.38 455.4 452.411 454.464 446.168C453.423 438.885 452.383 427.441 446.14 423.279C439.898 419.118 432.615 422.239 427.413 425.36C421.691 428.793 414.928 435.764 410.767 443.047C406.605 450.33 404.524 461.774 405.565 468.017C406.293 472.074 409.726 479.461 404.524 483.623C399.322 487.784 394.12 485.703 392.04 480.501C390.271 476.132 393.08 471.138 393.08 464.895C393.08 458.653 393.08 454.491 389.959 448.249C386.838 442.007 382.676 438.885 379.555 437.845C376.434 436.805 369.151 434.724 358.747 438.885C348.343 443.047 342.1 447.209 335.858 455.532C328.783 464.999 326.494 475.299 325.454 484.663C324.414 494.027 325.454 507.552 326.494 512.754C327.535 517.956 330.24 525.03 327.535 530.441C325.454 534.602 318.171 536.683 312.969 535.643C307.767 534.602 306.727 528.36 306.727 524.198C306.727 520.037 310.264 512.754 310.888 508.592C311.929 501.309 314.218 493.506 310.888 483.623C294.242 433.683 249.089 431.915 231.818 442.007C219.333 449.289 221.414 460.526 221.414 469.057C221.414 474.259 217.252 481.542 207.889 479.461C198.733 477.38 196.444 469.057 197.485 461.774C198.941 451.474 196.444 445.128 192.283 436.805C184.48 421.199 155.869 408.714 145.465 422.239C137.558 432.539 141.303 436.805 134.02 440.966C127.154 444.92 118.414 442.007 117.374 433.683C116.542 426.713 117.374 423.279 115.293 417.037C112.276 407.985 108.01 399.35 98.6469 400.391C87.0984 401.639 91.3641 408.714 86.1621 420.158C83.1449 426.817 74.7177 427.441 74.7177 433.683C74.7177 439.926 72.5328 444.712 67.4349 446.168C60.1521 448.249 57.0309 442.007 55.9905 437.845C54.9501 433.683 57.0309 422.239 57.0309 422.239C57.0309 422.239 50.9965 421.407 49.7481 414.956C48.7077 409.754 49.0198 406.425 51.8289 399.35C55.9905 388.946 53.1814 374.277 51.8289 368.138C49.7481 358.775 46.939 347.85 42.4653 337.967C37.2633 326.522 31.0209 318.199 25.8189 311.957C21.5532 306.859 13.8543 299.264 13.8543 299.264V376.669C13.8543 376.669 8.13206 378.542 5.01086 374.381C1.88966 370.219 0.849262 365.017 1.88966 358.775C2.93006 352.532 6.05126 348.371 6.05126 344.209C6.05126 329.643 2.93006 294.27 2.93006 271.381C2.93006 258.896 6.46742 225.499 8.13206 215.199C10.2129 202.715 18.5361 177.745 22.6977 168.381" fill="#A3C4FF"></path><path d="M587.739 192.207C590.86 199.489 593.877 213.014 596.062 230.701C598.143 247.348 597.207 272.837 596.062 288.964C595.022 303.529 596.062 324.337 596.062 334.741C596.062 345.145 601.472 357.526 600.224 369.074C599.183 378.438 588.779 386.865 588.779 386.865L587.843 352.636L587.635 331.724C586.594 337.967 583.473 347.33 578.271 349.411C578.271 352.532 584.514 368.138 572.029 366.057C566.827 365.225 568.908 354.613 567.867 349.411C566.827 344.209 562.665 345.249 559.544 348.371C554.342 353.573 551.845 364.705 550.18 377.502C548.1 393.108 548.1 422.239 548.1 429.522C548.1 436.805 548.1 466.976 548.1 466.976C548.1 466.976 549.14 480.501 544.978 481.542C540.817 482.582 532.494 482.582 532.494 478.421C532.494 474.259 534.574 460.734 534.574 447.209C534.574 433.683 534.574 419.118 534.574 410.795C534.574 402.471 534.574 391.027 529.372 387.906C524.17 384.785 515.847 387.906 511.686 389.987C507.524 392.067 493.999 402.471 488.797 410.795C483.595 419.118 475.272 435.764 474.231 439.926C473.191 444.087 469.029 462.815 467.989 469.057C466.948 475.299 465.908 482.582 465.908 486.744C465.908 490.905 470.07 498.188 469.029 503.39C467.989 508.592 462.787 510.673 459.666 510.673C455.504 510.673 452.903 507.552 452.383 504.431C451.342 498.188 454.36 492.882 455.504 484.663C456.544 477.38 455.4 452.411 454.464 446.168C453.423 438.885 452.383 427.441 446.14 423.279C439.898 419.118 432.615 422.239 427.413 425.36C421.691 428.793 414.928 435.764 410.767 443.047C406.605 450.33 404.524 461.774 405.565 468.017C406.293 472.074 409.726 479.461 404.524 483.623C399.322 487.784 394.12 485.703 392.04 480.501C390.271 476.132 393.08 471.138 393.08 464.895C393.08 458.653 393.08 454.491 389.959 448.249C386.838 442.007 382.676 438.885 379.555 437.845C376.434 436.805 369.151 434.724 358.747 438.885C348.343 443.047 342.1 447.209 335.858 455.532C328.783 464.999 326.494 475.299 325.454 484.663C324.414 494.027 325.454 507.552 326.494 512.754C327.535 517.956 330.24 525.03 327.535 530.441C325.454 534.602 318.171 536.683 312.969 535.643C307.767 534.602 306.727 528.36 306.727 524.198C306.727 520.037 310.264 512.754 310.888 508.592C311.929 501.309 314.218 493.506 310.888 483.623C294.242 433.683 249.089 431.915 231.818 442.007C219.333 449.289 221.414 460.526 221.414 469.057C221.414 474.259 217.252 481.542 207.889 479.461C198.733 477.38 196.444 469.057 197.485 461.774C198.941 451.474 196.444 445.128 192.283 436.805C184.48 421.199 155.869 408.714 145.465 422.239C137.558 432.539 141.303 436.805 134.02 440.966C127.154 444.92 118.414 442.007 117.374 433.683C116.542 426.713 117.374 423.279 115.293 417.037C112.276 407.985 108.01 399.35 98.6469 400.391C87.0984 401.639 91.3641 408.714 86.1621 420.158C83.1449 426.817 74.7177 427.441 74.7177 433.683C74.7177 439.926 72.5328 444.712 67.4349 446.168C60.1521 448.249 57.0309 442.007 55.9905 437.845C54.9501 433.683 57.0309 422.239 57.0309 422.239C57.0309 422.239 50.9965 421.407 49.7481 414.956C48.7077 409.754 49.0198 406.425 51.8289 399.35C55.9905 388.946 53.1814 374.277 51.8289 368.138C49.7481 358.775 46.939 347.85 42.4653 337.967C37.2633 326.522 31.0209 318.199 25.8189 311.957C21.5532 306.859 13.8543 299.264 13.8543 299.264V376.669C13.8543 376.669 8.13206 378.542 5.01086 374.381C1.88966 370.219 0.849262 365.017 1.88966 358.775C2.93006 352.532 6.05126 348.371 6.05126 344.209C6.05126 329.643 2.93006 294.27 2.93006 271.381C2.93006 258.896 6.46742 225.499 8.13206 215.199C10.2129 202.715 18.5361 177.745 22.6977 168.381" stroke="#0056FF" stroke-width="3" stroke-miterlimit="10" stroke-linecap="round" stroke-linejoin="round"></path><path d="M62.3368 370.115C62.3368 370.115 59.2156 409.65 57.1348 422.135" stroke="#0056FF" stroke-width="3" stroke-miterlimit="10" stroke-linecap="round" stroke-linejoin="round"></path><path d="M578.377 350.347C577.337 344.105 574.84 333.805 576.608 321.008" stroke="#0056FF" stroke-width="3" stroke-miterlimit="10" stroke-linecap="round" stroke-linejoin="round"></path><path d="M587.739 332.66C587.739 332.66 588.987 324.129 588.987 319.967C588.987 315.805 586.699 302.488 587.739 292.084" stroke="#0056FF" stroke-width="3" stroke-miterlimit="10" stroke-linecap="round" stroke-linejoin="round"></path><path d="M70.6615 404.448C70.6615 404.448 69.6211 412.771 71.7019 420.054C73.7827 427.337 74.8231 432.539 74.8231 432.539" stroke="#0056FF" stroke-width="3" stroke-miterlimit="10" stroke-linecap="round" stroke-linejoin="round"></path><path d="M302.15 433.89C460.739 433.89 589.301 337.096 589.301 217.695C589.301 98.2938 460.739 1.5 302.15 1.5C143.561 1.5 14.9998 98.2938 14.9998 217.695C14.9998 271.435 41.0421 320.595 84.1434 358.411C87.1192 361.022 90.1763 363.579 93.3118 366.08C96.2285 368.406 99.2131 370.683 102.263 372.91C153.958 410.655 224.45 433.89 302.15 433.89Z" fill="#A3C4FF"></path><path d="M84.1434 358.411C41.0421 320.595 14.9998 271.435 14.9998 217.695C14.9998 98.2938 143.561 1.5 302.15 1.5C460.739 1.5 589.301 98.2938 589.301 217.695C589.301 258.095 574.582 295.907 548.962 328.257M224.497 425.892C177.879 416.056 136.055 397.583 102.263 372.91M238.071 428.487C258.676 432.023 280.123 433.89 302.15 433.89C402.239 433.89 490.368 395.336 541.766 336.876" stroke="#0056FF" stroke-width="3" stroke-miterlimit="10" stroke-linecap="round" stroke-linejoin="round"></path></svg> 