<?xml version="1.0" encoding="UTF-8"?> <svg xmlns="http://www.w3.org/2000/svg" width="693" height="448" viewBox="0 0 693 448" fill="none"><path d="M185.938 320.756L86.7516 361.084C85.1166 368.714 90.5664 374.164 91.1114 375.254C91.5474 376.126 161.414 422.849 196.292 446.101C198.836 411.404 203.268 339.939 200.652 331.655C198.036 323.372 189.753 320.938 185.938 320.756Z" fill="#0056FF" stroke="#003DB3" stroke-width="3" stroke-miterlimit="10" stroke-linecap="round" stroke-linejoin="round"></path><path d="M352.369 236.732L258.304 287.881C257.531 295.646 263.556 300.453 264.219 301.475C264.749 302.293 339.395 340.925 376.651 360.138C375.305 325.374 371.732 253.861 368.208 245.921C364.684 237.981 356.18 236.487 352.369 236.732Z" fill="#0056FF" stroke="#003DB3" stroke-width="3" stroke-miterlimit="10" stroke-linecap="round" stroke-linejoin="round"></path><path d="M499.004 128.145L414.343 193.695C414.823 201.483 421.539 205.263 422.358 206.166C423.012 206.889 502.88 233.071 542.732 246.071C535.837 211.971 520.861 141.953 516.111 134.679C511.36 127.406 502.727 127.293 499.004 128.145Z" fill="#0056FF" stroke="#003DB3" stroke-width="3" stroke-miterlimit="10" stroke-linecap="round" stroke-linejoin="round"></path><path d="M618.917 13.4743L545.603 91.5087C547.3 99.1247 554.527 101.804 555.477 102.567C556.237 103.177 639.226 116.488 680.625 123.068C668.46 90.4739 642.671 23.6772 636.837 17.2404C631.003 10.8037 622.46 12.0477 618.917 13.4743Z" fill="#0056FF" stroke="#003DB3" stroke-width="3" stroke-miterlimit="10" stroke-linecap="round" stroke-linejoin="round"></path><path fill-rule="evenodd" clip-rule="evenodd" d="M601.522 31.6089C434.977 230.853 132.113 354.782 1.5 391.84L4.76988 400.56C135.383 363.501 438.247 239.573 604.792 40.3286L601.522 31.6089Z" fill="#4D8AFF" stroke="#003DB3" stroke-width="3" stroke-miterlimit="10" stroke-linecap="round" stroke-linejoin="round"></path><path d="M193.333 317.72L94.1468 358.048C92.5119 365.678 97.9617 371.128 98.5067 372.218C98.9426 373.09 168.809 419.813 203.688 443.065C206.231 408.368 210.663 336.903 208.048 328.619C205.432 320.336 197.148 317.901 193.333 317.72Z" fill="#4D8AFF" stroke="#003DB3" stroke-width="3" stroke-miterlimit="10" stroke-linecap="round" stroke-linejoin="round"></path><path d="M361.309 231.714L267.245 282.863C266.472 290.627 272.496 295.435 273.159 296.457C273.69 297.275 348.335 335.906 385.592 355.12C384.246 320.356 380.673 248.842 377.148 240.903C373.624 232.963 365.12 231.468 361.309 231.714Z" fill="#4D8AFF" stroke="#003DB3" stroke-width="3" stroke-miterlimit="10" stroke-linecap="round" stroke-linejoin="round"></path><path d="M505.856 122.987L421.195 188.536C421.675 196.324 428.391 200.105 429.209 201.008C429.864 201.731 509.732 227.912 549.584 240.913C542.689 206.813 527.713 136.794 522.962 129.521C518.212 122.248 509.579 122.134 505.856 122.987Z" fill="#4D8AFF" stroke="#003DB3" stroke-width="3" stroke-miterlimit="10" stroke-linecap="round" stroke-linejoin="round"></path><path d="M626.12 6.4728L552.806 84.5072C554.503 92.1232 561.73 94.8022 562.68 95.5653C563.44 96.1759 646.429 109.487 687.828 116.066C675.663 83.4724 649.873 16.6757 644.04 10.239C638.206 3.8022 629.662 5.0462 626.12 6.4728Z" fill="#4D8AFF" stroke="#003DB3" stroke-width="3" stroke-miterlimit="10" stroke-linecap="round" stroke-linejoin="round"></path></svg> 