<?xml version="1.0" encoding="UTF-8"?> <svg xmlns="http://www.w3.org/2000/svg" width="302" height="264" viewBox="0 0 302 264" fill="none"><path d="M299.925 6.64265C298.679 9.75739 297.372 13.5545 295.856 17.9462C287.057 43.4788 272.321 86.2065 231.774 98.483C214.054 103.848 197.675 103.341 183.338 99.2127C181.734 111.401 176.101 120.462 166.81 125.637C157.229 130.981 145.829 130.914 133.958 125.624C136.909 143.839 136.531 165.156 129.228 185.391C121.978 205.464 108.961 222.004 90.5335 234.551C69.0742 249.158 40.2978 258.205 5.01961 261.435C2.4189 261.671 1.56993 252.253 4.16393 252.016C44.7648 248.3 75.8792 236.76 96.6446 217.721C113.192 202.546 122.928 182.966 125.589 159.521C127.388 143.69 125.515 129.583 123.211 119.468C110.558 110.597 98.5244 95.875 99.7641 85.8822C100.216 82.2405 102.432 79.4366 105.855 78.2001C108.206 77.3488 111.946 77.2677 116.406 81.7405C121.688 87.0443 127.57 98.6519 131.431 113.536C139.469 118.516 151.482 123.367 162.235 117.374C170.671 112.671 173.507 103.814 174.201 95.9899C151.26 86.3889 134.786 67.6196 128.372 51.0055C123.427 38.2088 125.374 27.8511 133.452 23.9865C146.072 17.9394 161.636 28.4254 173.103 50.6947C179.538 63.1941 183.378 77.1799 183.789 89.4564C195.802 93.3346 211.117 94.8548 229.059 89.4226C264.991 78.5447 278.21 40.2154 286.949 14.8517C288.505 10.3384 289.846 6.44672 291.18 3.11578C291.921 1.2713 300.902 4.21033 299.932 6.63589L299.925 6.64265ZM174.067 85.5511C173.076 75.7138 169.788 64.9035 164.708 55.039C156.198 38.5195 144.758 29.047 137.502 32.5266C133.904 34.2495 134.739 41.337 137.151 47.5935C141.133 57.9038 151.489 72.518 168.616 82.6256C170.294 83.6188 172.113 84.5985 174.06 85.5511H174.067ZM117.828 102.273C114.344 93.8481 110.922 89.4091 109.089 87.8348C109.352 90.2807 112.02 95.9223 117.828 102.273Z" fill="white" stroke="#0047CC" stroke-width="3" stroke-linecap="round" stroke-linejoin="round"></path><path d="M183.783 89.4631C179.922 88.2875 175.879 86.4633 174.067 85.5511" stroke="#0047CC" stroke-width="3" stroke-linecap="round" stroke-linejoin="round"></path><path d="M183.338 99.2192C180.427 98.476 175.677 96.6383 174.195 95.9964" stroke="#0047CC" stroke-width="3" stroke-linecap="round" stroke-linejoin="round"></path><path d="M133.957 125.63C130.406 123.914 125.05 120.82 123.204 119.475" stroke="#0047CC" stroke-width="3" stroke-linecap="round" stroke-linejoin="round"></path><path d="M131.423 113.543C127.812 111.26 121.755 106.949 117.834 102.267" stroke="#0047CC" stroke-width="3" stroke-linecap="round" stroke-linejoin="round"></path><path d="M4.0542 252.095C2.41332 252.253 1.28515 254.489 1.53435 257.089C1.78356 259.689 3.31577 261.669 4.95665 261.51C6.59753 261.352 7.7257 259.116 7.4765 256.516C7.22729 253.916 5.69508 251.937 4.0542 252.095Z" fill="white" stroke="#0047CC" stroke-width="3" stroke-linecap="round" stroke-linejoin="round"></path><path d="M109.096 87.8281C108.779 85.3823 109.77 84.5445 110.477 84.0715" stroke="#0047CC" stroke-width="3" stroke-linecap="round" stroke-linejoin="round"></path><path d="M291.214 3.04006C290.605 4.57626 292.074 6.60276 294.495 7.56637C296.916 8.52998 299.372 8.0658 299.981 6.5296C300.59 4.9934 299.121 2.96689 296.699 2.00328C294.278 1.03967 291.822 1.50386 291.214 3.04006Z" fill="white" stroke="#0047CC" stroke-width="3" stroke-linecap="round" stroke-linejoin="round"></path></svg> 