<?xml version="1.0" encoding="UTF-8"?> <svg xmlns="http://www.w3.org/2000/svg" width="31" height="177" viewBox="0 0 31 177" fill="none"><path d="M8.56934 153.905V168.941V170.625C8.56934 171.747 11.4869 174.552 15.0777 174.552C18.6685 174.552 21.586 171.747 21.586 170.625V168.941V153.905" fill="#E6F0FF"></path><path d="M8.56934 153.905V168.941V170.625C8.56934 171.747 11.4869 174.552 15.0777 174.552C18.6685 174.552 21.586 171.747 21.586 170.625V168.941V153.905" stroke="#0047CC" stroke-width="3" stroke-linecap="round" stroke-linejoin="round"></path><path d="M15.0777 123.27C7.55949 123.27 1.5 125.626 1.5 127.983V131.574V136.062V153.006V157.495V161.085C1.5 163.442 7.55949 167.482 15.0777 167.482C22.5959 167.482 28.6553 163.442 28.6553 161.085V157.495V153.006V136.062V131.574V127.983C28.6553 125.626 22.4837 123.27 15.0777 123.27Z" fill="#E6F0FF" stroke="#0047CC" stroke-width="3" stroke-linecap="round" stroke-linejoin="round"></path><path d="M4.41724 44.2531V128.544V128.993C4.41724 133.482 9.13014 135.052 15.0774 135.052C20.9124 135.052 25.7375 133.369 25.7375 128.993V128.544V44.2531" fill="#CCE0FF"></path><path d="M4.41724 44.2531V128.544V128.993C4.41724 133.482 9.13014 135.052 15.0774 135.052C20.9124 135.052 25.7375 133.369 25.7375 128.993V128.544V44.2531" stroke="#0047CC" stroke-width="3" stroke-linecap="round" stroke-linejoin="round"></path><path d="M18.3315 30.6751C18.3315 27.0843 18.3315 5.42742 18.3315 5.42742C18.3315 4.52972 17.7704 1.5 14.8529 1.5C11.5988 1.5 11.2621 4.52972 11.2621 5.42742C11.2621 5.42742 11.2621 27.421 11.2621 30.6751C11.2621 33.9293 4.41724 39.8765 4.41724 44.1405C4.41724 46.7214 11.1499 48.4046 14.8529 48.4046C18.5559 48.4046 25.6253 46.7214 25.6253 44.1405C25.6253 39.091 18.3315 34.2659 18.3315 30.6751Z" fill="#E6F0FF" stroke="#0047CC" stroke-width="3" stroke-linecap="round" stroke-linejoin="round"></path><path d="M18.3328 26.1866C18.3328 22.5958 18.3328 5.42742 18.3328 5.42742C18.3328 4.52972 17.7717 1.5 14.8542 1.5C11.6001 1.5 11.2634 4.52972 11.2634 5.42742C11.2634 5.42742 11.2634 22.9325 11.2634 26.1866C11.2634 29.4408 18.3328 29.7774 18.3328 26.1866Z" fill="#E6F0FF" stroke="#0047CC" stroke-width="3" stroke-linecap="round" stroke-linejoin="round"></path></svg> 