<?xml version="1.0" encoding="UTF-8"?> <svg xmlns="http://www.w3.org/2000/svg" width="393" height="514" viewBox="0 0 393 514" fill="none"><path d="M213.711 18.5138L185.507 80.2341C174.747 102.12 172.925 139.158 202.702 178.606C238.476 225.147 281.764 243.728 307.39 241.319C328.374 239.178 332.731 231.287 333.388 225.021C335.418 205.664 336.572 173.546 336.572 173.546C336.572 173.546 271.119 170.008 237.844 133.428C192.916 87.4768 213.766 18.3866 213.766 18.3866L213.711 18.5138Z" fill="#D6E6FF" stroke="#0056FF" stroke-width="3" stroke-linecap="round" stroke-linejoin="round"></path><path d="M91.0053 199.784L82.8457 253.176C82.8457 253.176 79.5766 272.923 114.393 285.608C135.968 292.609 175.475 294.049 214.483 301.903C236.88 306.997 254.543 327.988 254.543 327.988C254.543 327.988 264.982 296.626 268.111 275.806C269.686 265.328 258.781 256.132 205.71 244.501C175.036 237.963 154.099 243.6 130.832 236.918C99.0142 227.78 91.0053 199.784 91.0053 199.784Z" fill="#D6E6FF" stroke="#0056FF" stroke-width="3" stroke-linecap="round" stroke-linejoin="round"></path><path d="M99.4925 314.903C44.3726 329.057 33.0391 355.377 33.0391 355.377C33.0391 355.377 16.0312 395.822 6.13606 421.053C12.3588 405.259 37.2656 366.231 164.388 356.166C240.261 350.92 256.806 340.743 258.505 332.71C263.602 308.609 267.881 275.492 267.881 275.492C265.213 287.495 255.204 290.293 245.228 292.791C203.581 301.58 137.575 304.583 99.6198 314.957L99.4925 314.903Z" fill="#F0F5FF" stroke="#0056FF" stroke-width="3" stroke-linecap="round" stroke-linejoin="round"></path><path d="M91.0082 199.795L82.8462 253.187C86.8628 242.945 119.041 222.977 138.615 213.601C174.394 197.773 213.351 190.004 252.218 193.279C316.034 198.656 328.801 205.275 333.396 225.013C335.613 210.113 338.087 196.403 337.927 174.597C337.847 163.694 306.31 140.499 235.716 143.644C115.64 147.845 91.0629 199.668 91.0629 199.668L91.0082 199.795Z" fill="#F0F5FF" stroke="#0056FF" stroke-width="3" stroke-linecap="round" stroke-linejoin="round"></path></svg> 