<?xml version="1.0" encoding="UTF-8"?> <svg xmlns="http://www.w3.org/2000/svg" width="693" height="449" viewBox="0 0 693 449" fill="none"><g opacity="0.5"><path d="M184.991 321.999L85.8044 362.327C84.1695 369.957 89.6193 375.407 90.1642 376.497C90.6002 377.369 160.467 424.092 195.345 447.344C197.889 412.647 202.321 341.182 199.705 332.898C197.089 324.615 188.806 322.18 184.991 321.999Z" fill="#0056FF" stroke="#003DB3" stroke-width="3" stroke-miterlimit="10" stroke-linecap="round" stroke-linejoin="round"></path><path d="M352.369 236.732L258.305 287.881C257.532 295.646 263.556 300.453 264.219 301.475C264.749 302.293 339.395 340.925 376.651 360.138C375.305 325.374 371.732 253.861 368.208 245.921C364.684 237.981 356.18 236.487 352.369 236.732Z" fill="#0056FF" stroke="#003DB3" stroke-width="3" stroke-miterlimit="10" stroke-linecap="round" stroke-linejoin="round"></path><path d="M498.315 129.178L413.654 194.727C414.134 202.516 420.85 206.296 421.668 207.199C422.323 207.922 502.191 234.104 542.043 247.104C535.148 213.004 520.171 142.986 515.421 135.712C510.671 128.439 502.038 128.326 498.315 129.178Z" fill="#0056FF" stroke="#003DB3" stroke-width="3" stroke-miterlimit="10" stroke-linecap="round" stroke-linejoin="round"></path><path d="M618.917 13.4728L545.603 91.5072C547.301 99.1232 554.527 101.802 555.477 102.565C556.237 103.176 639.226 116.487 680.626 123.066C668.46 90.4724 642.671 23.6757 636.837 17.239C631.004 10.8022 622.46 12.0462 618.917 13.4728Z" fill="#0056FF" stroke="#003DB3" stroke-width="3" stroke-miterlimit="10" stroke-linecap="round" stroke-linejoin="round"></path><path fill-rule="evenodd" clip-rule="evenodd" d="M601.522 31.6089C434.977 230.853 132.113 354.782 1.5 391.84L4.76988 400.56C135.383 363.501 438.247 239.573 604.792 40.3286L601.522 31.6089Z" fill="#0056FF" stroke="#003DB3" stroke-width="3" stroke-miterlimit="10" stroke-linecap="round" stroke-linejoin="round"></path><path d="M193.333 317.72L94.1469 358.048C92.5119 365.678 97.9617 371.128 98.5067 372.218C98.9427 373.09 168.809 419.813 203.688 443.065C206.231 408.368 210.663 336.903 208.048 328.62C205.432 320.336 197.148 317.902 193.333 317.72Z" fill="#0056FF" stroke="#003DB3" stroke-width="3" stroke-miterlimit="10" stroke-linecap="round" stroke-linejoin="round"></path><path d="M361.309 231.714L267.245 282.862C266.472 290.627 272.496 295.434 273.159 296.457C273.69 297.274 348.335 335.906 385.592 355.119C384.246 320.355 380.673 248.842 377.148 240.902C373.624 232.962 365.12 231.468 361.309 231.714Z" fill="#0056FF" stroke="#003DB3" stroke-width="3" stroke-miterlimit="10" stroke-linecap="round" stroke-linejoin="round"></path><path d="M505.856 122.987L421.195 188.536C421.675 196.324 428.391 200.105 429.209 201.008C429.864 201.731 509.732 227.912 549.584 240.913C542.689 206.813 527.713 136.794 522.962 129.521C518.212 122.248 509.579 122.134 505.856 122.987Z" fill="#0056FF" stroke="#003DB3" stroke-width="3" stroke-miterlimit="10" stroke-linecap="round" stroke-linejoin="round"></path><path d="M626.12 6.47256L552.806 84.507C554.503 92.123 561.73 94.8019 562.68 95.5651C563.44 96.1756 646.429 109.487 687.828 116.066C675.663 83.4722 649.873 16.6755 644.04 10.2387C638.206 3.80196 629.662 5.04596 626.12 6.47256Z" fill="#0056FF" stroke="#003DB3" stroke-width="3" stroke-miterlimit="10" stroke-linecap="round" stroke-linejoin="round"></path></g></svg> 