<?xml version="1.0" encoding="UTF-8"?> <svg xmlns="http://www.w3.org/2000/svg" width="603" height="557" viewBox="0 0 603 557" fill="none"><path d="M589.5 389.566C589.5 331.118 589.5 218.097 589.5 218.097C537.199 164.129 382.9 125.476 301.635 125.476C214.432 125.476 67.1138 159.024 14.396 219.139C14.396 219.139 14.3959 341.443 14.3959 395.411C14.3959 457.457 142.752 555.18 301.635 555.18C343.935 555.18 386.025 547.47 424.47 534.759L423.884 422.446C423.858 417.495 422.607 412.627 420.243 408.276L406.851 383.637L564.704 447.285C580.436 428.115 589.5 408.32 589.5 389.566Z" fill="#7AA3FF" stroke="#0056FF" stroke-width="3" stroke-miterlimit="10" stroke-linecap="round" stroke-linejoin="round"></path><path d="M564.389 306.55V447.159L408.384 384.256L329.236 231.356L564.389 306.55Z" fill="#6BA3FF" stroke="#0056FF" stroke-width="3" stroke-miterlimit="10" stroke-linecap="round" stroke-linejoin="round"></path><path d="M348.832 269.666L564.079 340.824V404.087L380.119 330.599L348.832 269.666Z" fill="#4D8AFF" stroke="#0056FF" stroke-width="3" stroke-miterlimit="10" stroke-linecap="round" stroke-linejoin="round"></path><path d="M387.819 316.499C387.819 319.498 389.02 320.998 390.222 322.197" stroke="#0056FF" stroke-width="3" stroke-linecap="round" stroke-linejoin="round"></path><path d="M508.46 329.731C508.518 331.872 507.984 333.046 507.116 333.696" stroke="#0056FF" stroke-width="3" stroke-linecap="round" stroke-linejoin="round"></path><path d="M554.388 321.765C554.388 323.614 555.582 324.798 555.582 324.798" stroke="#0056FF" stroke-width="3" stroke-linecap="round" stroke-linejoin="round"></path><path d="M479.684 290.874C479.684 291.932 479.951 292.457 480.477 292.723" stroke="#0056FF" stroke-width="3" stroke-linecap="round" stroke-linejoin="round"></path><path d="M533.379 379.37C533.379 381.078 532.637 381.82 531.569 382.245" stroke="#0056FF" stroke-width="3" stroke-linecap="round" stroke-linejoin="round"></path><path d="M440.178 372.713C440.02 375.054 442.364 377.853 442.364 377.853" stroke="#0056FF" stroke-width="3" stroke-linecap="round" stroke-linejoin="round"></path><path d="M436.991 310.426V312.417" stroke="#0056FF" stroke-width="3" stroke-linecap="round" stroke-linejoin="round"></path><path d="M596.789 335.825C596.789 325.407 595.747 304.569 596.789 289.983C597.935 273.835 598.873 248.309 596.789 231.64C594.601 213.928 590.33 205.281 588.142 194.55C572.306 86.3009 450.409 2.01489 302.361 2.01489C165.149 2.01489 50.3364 74.4238 21.7896 171.316C17.4138 181.943 10.1209 204.343 8.14133 216.012C6.47437 226.326 2.93206 259.77 2.93206 272.272C2.93206 295.193 6.05763 330.616 6.05763 345.202C6.05763 349.369 2.93206 353.537 1.89021 359.788C0.848353 366.039 1.89021 371.248 5.01577 375.416C8.14133 379.583 13.8715 377.708 13.8715 377.708V300.194C13.8715 300.194 21.5813 307.799 25.8529 312.904C31.0622 319.155 37.3133 327.49 42.5226 338.951C47.0025 348.848 49.8155 359.788 51.8993 369.164C53.2537 375.311 56.0667 390.001 51.8993 400.42C49.0862 407.505 48.7737 410.839 49.8155 416.048C51.0658 422.507 57.1085 423.341 57.1085 423.341C57.1085 423.341 55.0248 434.801 56.0667 438.969C57.1085 443.136 60.2341 449.387 67.5271 447.303C72.6322 445.845 74.8201 441.052 74.8201 434.801C74.8201 428.55 83.2591 427.925 86.2805 421.257C91.4897 409.797 87.2181 402.712 98.7827 401.462C108.159 400.42 112.431 409.067 115.452 418.132C117.536 424.383 116.703 427.821 117.536 434.801C118.578 443.136 127.33 446.053 134.206 442.094C141.499 437.927 137.748 433.655 145.666 423.341C156.085 409.797 184.736 422.299 192.55 437.927C196.717 446.262 199.217 452.617 197.759 462.931C196.717 470.224 199.009 478.559 208.177 480.643C217.554 482.727 221.722 475.434 221.722 470.224C221.722 461.681 219.638 450.429 232.14 443.136C249.435 433.03 294.651 434.801 311.321 484.81C314.655 494.708 312.363 502.522 311.321 509.815C310.696 513.982 307.154 521.275 307.154 525.443C307.154 529.61 308.195 535.861 313.405 536.903C318.614 537.945 325.907 535.861 327.991 531.694C330.7 526.276 327.991 519.191 326.949 513.982C325.907 508.773 324.865 495.229 325.907 485.852C326.949 476.475 329.241 466.161 336.326 456.68C342.577 448.345 348.828 444.178 359.246 440.011C369.665 435.843 376.958 437.927 380.083 438.969C383.209 440.01 387.376 443.136 390.502 449.387C393.628 455.638 393.628 459.806 393.628 466.057C393.628 472.308 390.815 477.309 392.586 481.685C394.669 486.894 399.879 488.978 405.088 484.81C410.297 480.643 406.859 473.246 406.13 469.182C405.088 462.931 407.172 451.471 411.339 444.178C413.633 440.125 418.266 436.099 422.381 432.76C424.991 430.644 426.516 427.484 426.516 424.124V423.216C426.516 417.721 425.169 412.309 422.591 407.455L329.345 231.848L549.116 301.665C558.3 304.582 564.59 313.039 564.732 322.674C564.908 334.681 565.117 349.317 565.117 351.244C565.117 356.454 564.7 366.56 569.909 367.497C582.412 369.581 579.078 353.537 579.078 350.411C584.287 348.327 587.412 338.951 588.454 332.699L588.663 353.641L589.6 387.918C589.6 387.918 600.019 379.479 601.061 370.102C602.207 358.538 596.789 346.244 596.789 335.825Z" fill="#A3C4FF" stroke="#0056FF" stroke-width="3" stroke-miterlimit="10" stroke-linecap="round" stroke-linejoin="round"></path><path d="M578.904 350.956C577.865 344.724 575.372 334.441 577.138 321.665" stroke="#0056FF" stroke-width="3" stroke-miterlimit="10" stroke-linecap="round" stroke-linejoin="round"></path><path d="M588.253 333.294C588.253 333.294 589.499 324.777 589.499 320.623C589.499 316.468 587.214 303.173 588.253 292.786" stroke="#0056FF" stroke-width="3" stroke-miterlimit="10" stroke-linecap="round" stroke-linejoin="round"></path><path d="M83.9953 357.82C40.9655 320.066 14.9663 270.987 14.9663 217.337C14.9663 98.1334 143.315 1.5 301.641 1.5C459.967 1.5 588.315 98.1334 588.315 217.337C588.315 246.916 580.412 275.105 566.11 300.773M224.116 425.189C177.575 415.369 135.821 396.927 102.085 372.295M237.668 427.779C258.238 431.309 279.65 433.174 301.641 433.174C340.078 433.174 376.748 427.478 410.244 417.147" stroke="#0056FF" stroke-width="3" stroke-miterlimit="10" stroke-linecap="round" stroke-linejoin="round"></path></svg> 