<?xml version="1.0" encoding="UTF-8"?> <svg xmlns="http://www.w3.org/2000/svg" width="552" height="552" viewBox="0 0 552 552" fill="none"><path d="M270.844 110.567L274.583 141.868" stroke="#003DB3" stroke-width="3" stroke-miterlimit="10" stroke-linecap="round" stroke-linejoin="round"></path><path d="M280.281 25.4012C280.281 25.4012 33.5495 326.129 32.6275 328.574C31.9268 330.525 36.806 363.558 36.806 363.558L64.3431 375.209C64.3431 375.209 74.649 383.316 77.6308 384.827C80.6126 386.339 240.999 478.3 240.999 478.3L245.492 476.829C245.492 476.829 279.432 495.186 281.274 494.966C283.115 494.746 511.599 163.982 511.599 163.982L509.44 138.095C509.44 138.095 425.328 93.7027 405.888 84.166C386.046 74.397 315.403 38.0139 280.281 25.4012Z" fill="#0056FF" stroke="#003DB3" stroke-width="3" stroke-miterlimit="10" stroke-linecap="round" stroke-linejoin="round"></path><path d="M64.3431 375.208C47.5238 359.476 32.6276 328.573 32.6276 328.573L279.486 464.364L281.274 494.965C281.274 494.965 261.249 476.627 257.119 472.545" fill="#0056FF"></path><path d="M64.3431 375.208C47.5238 359.476 32.6276 328.573 32.6276 328.573L279.486 464.364L281.274 494.965C281.274 494.965 261.249 476.627 257.119 472.545" stroke="#003DB3" stroke-width="3" stroke-miterlimit="10" stroke-linecap="round" stroke-linejoin="round"></path><path d="M36.8061 363.557C36.8061 363.557 41.6578 359.616 49.5904 358.015Z" fill="#4D8AFF"></path><path d="M36.8061 363.557C36.8061 363.557 41.6578 359.616 49.5904 358.015" stroke="#003DB3" stroke-width="3" stroke-miterlimit="10" stroke-linecap="round" stroke-linejoin="round"></path><path d="M245.492 476.829C249.985 475.359 279.486 464.365 279.486 464.365L509.44 138.094" fill="#0056FF"></path><path d="M245.492 476.829C249.985 475.359 279.486 464.365 279.486 464.365L509.44 138.094" stroke="#003DB3" stroke-width="3" stroke-miterlimit="10" stroke-linecap="round" stroke-linejoin="round"></path><path d="M305.914 216.562C305.914 216.562 317.21 232.955 321.442 237.118C325.674 241.281 331.047 247.176 337.011 250.199C342.975 253.221 363.037 264.832 372.092 270.286C381.147 275.741 395.717 284.366 401.833 291.012C408.053 297.739 407.48 314.055 407.48 314.055L404.001 319.326C404.001 319.326 409.728 317.241 412.812 314.912C417.085 311.6 422.637 299.452 425.343 294.74C428.048 290.028 430.097 287.636 433.339 283.514C437.393 278.361 440.086 269.635 439.536 265.032C438.986 260.429 438.917 252.033 433.345 246.816C429.341 242.999 381.012 220.665 372.287 217.972C363.561 215.279 338.415 208.011 330.61 205.209C322.805 202.406 315.481 195.81 315.481 195.81L305.914 216.562Z" fill="#4D8AFF" stroke="#003DB3" stroke-width="3" stroke-miterlimit="10" stroke-linecap="round" stroke-linejoin="round"></path><path d="M303.593 220.575C303.593 220.575 269.394 270.414 258.745 282.891C248.097 295.368 167.062 392.447 164.319 399.965C161.575 407.483 164.727 434.652 165.356 435.231C165.904 435.912 170.252 437.914 170.252 437.914C170.252 437.914 166.535 440.412 161.602 438.2C156.669 435.988 144.412 427.181 141.43 425.669C138.448 424.158 123.649 417.522 120.557 415.09C117.466 412.658 114.374 410.226 113.384 401.94C112.395 393.654 111.226 376.052 114.359 371.009C117.491 365.966 182.964 296.518 206.322 273.185C229.681 249.852 273.746 204.437 273.746 204.437L303.593 220.575Z" fill="#4D8AFF" stroke="#003DB3" stroke-width="3" stroke-miterlimit="10" stroke-linecap="round" stroke-linejoin="round"></path><path d="M300.994 191.004C300.994 191.004 287.76 150.566 277.455 142.459C267.149 134.352 249.258 125.284 233.978 122.44C218.698 119.597 205.149 115.612 199.846 118.113C194.542 120.614 190.447 133.242 186.174 136.554C181.901 139.866 174.715 150.062 170.332 152.453C165.948 154.844 168.312 162.125 168.312 162.125C168.312 162.125 170.406 157.766 173.86 156.98C177.315 156.194 187.783 157.838 195.587 160.641C203.392 163.444 215.32 169.49 224.966 172.072C234.612 174.655 253.354 175.218 261.97 176.99C270.585 178.763 287.735 197.257 287.735 197.257L300.994 191.004Z" fill="#4D8AFF" stroke="#003DB3" stroke-width="3" stroke-miterlimit="10" stroke-linecap="round" stroke-linejoin="round"></path><path d="M313.993 190.386L405.888 84.1662L410.566 86.5954C410.566 86.5954 412.332 83.3965 408.21 80.1538C404.087 76.9111 394.551 75.2488 390.539 72.9268C386.526 70.6047 376.22 62.4981 372.318 61.0966C368.415 59.6952 365.838 60.0031 362.633 61.3196C359.429 62.6361 348.78 75.1131 339.492 91.1628C330.204 107.212 296.102 181.318 296.102 181.318L313.993 190.386Z" fill="#4D8AFF" stroke="#003DB3" stroke-width="3" stroke-miterlimit="10" stroke-linecap="round" stroke-linejoin="round"></path><path d="M313.993 190.386C313.993 190.386 328.82 212.892 330.649 236.018C331.508 247.121 318.956 271.03 299.02 299.557C284.75 320.03 280.952 343.734 282.272 354.782C283.393 364.172 286.381 381.37 293.444 393.599C300.747 406.267 320.529 424.913 330.093 442.446C339.657 459.979 347.779 488.89 347.779 488.89L324.38 519.697C324.38 519.697 317.476 490.828 311.846 477.308C301.402 452.41 280.241 431.593 276.379 422.717C272.518 413.84 259.601 399.509 254.832 367.397C250.062 335.285 257.167 318.936 263.816 301.894C269.531 287.205 286.127 261.972 289.179 248.441C292.834 232.131 288.642 220.493 288.642 220.493L313.993 190.386Z" fill="#4D8AFF" stroke="#003DB3" stroke-width="3" stroke-miterlimit="10" stroke-linecap="round" stroke-linejoin="round"></path><path d="M341.405 161.901C341.405 161.901 368.226 136.287 372.952 113.312C376.013 98.2863 374.847 82.2714 371.315 76.1569C367.784 70.0424 334.283 55.3684 330.381 53.967C326.478 52.5656 321.545 50.3535 313.589 54.1051C303.777 58.732 295.576 67.4618 289.681 72.8347C283.786 78.2076 278.702 82.5498 272.918 88.8433C267.133 95.1368 262.379 102.241 262.668 112.478C262.957 122.715 271.294 141.702 275.682 151.075C285.686 172.291 285.934 190.003 285.934 190.003L305.956 187.985C305.956 187.985 311.203 174.846 312.224 166.974C313.148 159.86 306.694 137.1 305.265 125.132C302.846 104.878 337.403 73.6711 337.403 73.6711C337.403 73.6711 339.863 86.45 340.743 93.815C341.512 100.259 342.101 108.313 339.809 117.271C335.344 134.612 310.763 171.163 310.763 171.163L341.405 161.901Z" fill="#4D8AFF" stroke="#003DB3" stroke-width="3" stroke-miterlimit="10" stroke-linecap="round" stroke-linejoin="round"></path><path d="M300.845 182.712C300.845 182.712 303.259 178.689 308.823 170.554C313.68 163.531 327.024 152.506 343.71 142.109C358.481 132.875 379.106 125.743 399.14 121.482C410.066 119.15 446.793 113.923 459.132 107.78C465.22 104.812 487.643 88.501 487.643 88.501L498.32 91.8946C498.32 91.8946 475.442 111.435 459.311 117.097C443.179 122.758 428.229 122.677 411.768 125.577C397.954 127.973 382.967 134.619 373.72 143.194C361.109 154.878 350.911 171.13 341.444 177.863C331.977 184.596 314.004 190.478 314.004 190.478L300.845 182.712Z" fill="#4D8AFF" stroke="#003DB3" stroke-width="3" stroke-miterlimit="10" stroke-linecap="round" stroke-linejoin="round"></path><path d="M278.528 198.357C278.528 198.357 278.818 193.747 282.142 189.521C285.384 185.399 292.09 178.996 301.406 178.817C313.609 178.573 318.967 185.123 321.358 189.506C323.613 193.532 322.969 206.122 311.369 207.507C311.369 207.507 311.328 214.982 306.354 220.245C302.294 224.558 296.667 225.137 293.685 223.626C291.804 222.73 288.642 220.493 288.642 220.493L284.821 225.245C284.821 225.245 285.909 236.693 280.454 245.749C273.676 257.017 252.355 271.609 243.135 277.285C231.826 284.239 207.038 295.603 207.038 295.603L172.932 244.585C172.932 244.585 187.263 231.668 198.352 222.873C209.44 214.079 221.119 202.413 233.458 196.27C237.252 194.416 246.017 191.969 252.792 193.961C257.246 195.296 263.688 199.196 263.688 199.196C263.688 199.196 276.687 198.577 278.528 198.357Z" fill="#4D8AFF" stroke="#003DB3" stroke-width="3" stroke-miterlimit="10" stroke-linecap="round" stroke-linejoin="round"></path><path d="M288.463 211.176C288.463 211.176 283.159 213.677 282.788 218.391C282.492 222.161 284.369 223.804 284.589 225.646" fill="#4D8AFF"></path><path d="M288.463 211.176C288.463 211.176 283.159 213.677 282.788 218.391C282.492 222.161 284.369 223.804 284.589 225.646" stroke="#003DB3" stroke-width="3" stroke-miterlimit="10" stroke-linecap="round" stroke-linejoin="round"></path><path d="M263.688 199.195C257.244 199.965 246.306 202.205 236.619 207.097C226.932 211.989 207.297 227.407 201.182 230.939C194.722 234.699 180.187 242.784 172.932 244.584" fill="#4D8AFF"></path><path d="M263.688 199.195C257.244 199.965 246.306 202.205 236.619 207.097C226.932 211.989 207.297 227.407 201.182 230.939C194.722 234.699 180.187 242.784 172.932 244.584" stroke="#003DB3" stroke-width="3" stroke-miterlimit="10" stroke-linecap="round" stroke-linejoin="round"></path><path d="M278.528 198.357C278.528 198.357 282.924 199.979 286.041 204.182C289.157 208.386 290.964 216.48 288.642 220.493" fill="#4D8AFF"></path><path d="M278.528 198.357C278.528 198.357 282.924 199.979 286.041 204.182C289.157 208.386 290.964 216.48 288.642 220.493" stroke="#003DB3" stroke-width="3" stroke-miterlimit="10" stroke-linecap="round" stroke-linejoin="round"></path><path d="M310.27 198.3C310.27 198.3 311.85 203.714 311.369 207.507Z" fill="#4D8AFF"></path><path d="M310.27 198.3C310.27 198.3 311.85 203.714 311.369 207.507" stroke="#003DB3" stroke-width="3" stroke-miterlimit="10" stroke-linecap="round" stroke-linejoin="round"></path><path d="M337.404 73.6705C335.713 67.336 334.255 54.3441 323.239 52.0182Z" fill="#4D8AFF"></path><path d="M337.404 73.6705C335.713 67.336 334.255 54.3441 323.239 52.0182" stroke="#003DB3" stroke-width="3" stroke-miterlimit="10" stroke-linecap="round" stroke-linejoin="round"></path><path d="M293.528 180.878C293.528 180.878 292.868 169.098 288.985 160.037C285.101 150.977 267.885 134.264 264.908 123.415" fill="#4D8AFF"></path><path d="M293.528 180.878C293.528 180.878 292.868 169.098 288.985 160.037C285.101 150.977 267.885 134.264 264.908 123.415" stroke="#003DB3" stroke-width="3" stroke-miterlimit="10" stroke-linecap="round" stroke-linejoin="round"></path></svg> 