<?xml version="1.0" encoding="UTF-8"?> <svg xmlns="http://www.w3.org/2000/svg" width="860" height="838" viewBox="0 0 860 838" fill="none"><path d="M90.5951 241.491C112.094 267.511 147.254 279.306 180.573 270.238C227.729 255.301 267.938 241.905 297.04 231.533C345.563 215.173 379.534 236.748 379.534 236.748C379.534 236.748 339.802 206.935 321.332 191.998C298.763 181.329 266.81 188.975 221.079 205.275C189.185 215.707 159.014 241.431 108.531 231.355C77.7072 226.436 52.0508 201.898 52.0508 201.898L90.5951 241.491Z" fill="#7AA3FF" stroke="#0056FF" stroke-width="3" stroke-linecap="round" stroke-linejoin="round"></path><path d="M209.076 35.5203C210.739 48.0267 206.819 60.6516 201.474 71.9132C188.051 97.2816 166.076 114.471 133.173 143.04C70.1584 200.119 95.0497 246.404 95.0497 246.404L51.8959 202.041C45.8977 182.66 51.2132 162.896 63.448 147.308C86.3735 109.196 118.148 93.192 149.566 60.4738C163.167 43.4627 171.126 23.7846 170.651 1.49843L209.076 35.5203Z" fill="#6BA3FF" stroke="#0056FF" stroke-width="3" stroke-linecap="round" stroke-linejoin="round"></path><path d="M325.129 435.788L375.076 486.287C386.42 494.407 420.332 513.196 466.123 499.682C509.719 477.287 543.139 451.381 550.277 418.028C556.119 399.247 547.683 395.361 547.683 395.361L506.475 378.199C506.475 378.199 481.506 435.254 437.2 452.917C380.481 477.811 325.129 435.788 325.129 435.788Z" fill="#7AA3FF" stroke="#0056FF" stroke-width="3" stroke-linecap="round" stroke-linejoin="round"></path><path d="M447.473 607.379L489.877 631.562C489.877 631.562 509.655 642.29 532.817 615.321C546.418 598.31 561.029 563.162 581.282 530.681C593.457 512.307 618.402 503.416 618.402 503.416L576.24 474.047C576.24 474.047 562.288 462.39 526.583 519.302C510.369 544.729 502.293 567.653 488.633 581.878C469.627 607.365 447.473 607.379 447.473 607.379Z" fill="#7AA3FF" stroke="#0056FF" stroke-width="3" stroke-linecap="round" stroke-linejoin="round"></path><path d="M568.33 709.329C568.33 709.329 602.242 728.118 638.649 732.919C672.264 737.779 733.556 730.903 774.358 679.87C800.194 647.27 772.4 587.939 772.4 587.939L806.668 623.443C829.355 639.684 835.591 670.208 820.743 694.214C776.08 760.658 701.068 778.973 674.461 775.357C647.854 771.742 621.009 756.983 621.009 756.983L568.33 709.329Z" fill="#7AA3FF" stroke="#0056FF" stroke-width="3" stroke-linecap="round" stroke-linejoin="round"></path><path d="M637.739 652.761C636.313 651.397 673.432 689.628 673.432 689.628C688.34 668.408 706.098 649.916 728.192 638.298C735.081 633.971 744.762 629.585 753.077 626.621C796.017 610.381 817.457 633.615 817.457 633.615L773.211 588.569C773.211 588.569 756.225 577.781 731.221 583.886C696.477 591.592 655.378 628.696 637.739 652.761Z" fill="#6BA3FF" stroke="#0056FF" stroke-width="3" stroke-linecap="round" stroke-linejoin="round"></path><path d="M554.248 638.556C548.427 693.027 568.383 712.112 568.383 712.112L618.739 755.12C618.739 755.12 579.548 711.875 613.344 594.101C634.191 523.983 621.185 503.356 621.185 503.356L575.913 473.723C584.348 478.257 584.6 490.198 583.412 499.978C577.294 540.52 557.634 600.859 554.248 638.556Z" fill="#6BA3FF" stroke="#0056FF" stroke-width="3" stroke-linecap="round" stroke-linejoin="round"></path><path d="M323.692 434.422L370.789 482.195C357.605 453.212 354.16 422.627 359.09 391.865C364.02 361.103 381.6 334.253 386.352 295.133C391.104 256.013 380.948 238.113 380.948 238.113L322.745 193.363C337.058 209.781 344.482 230.527 343.591 254.235C344.363 290.451 328.089 313.093 315.26 366.319C308.726 387.361 312.052 412.373 323.692 434.422Z" fill="#6BA3FF" stroke="#0056FF" stroke-width="3" stroke-linecap="round" stroke-linejoin="round"></path><path d="M447.472 607.378L491.879 632.395C478.901 626.89 477.821 590.011 475.98 569.147C473.783 531.569 478.654 498.021 494.69 464.236C524.327 381.437 548.338 395.684 548.338 395.684L502.59 376.276C502.59 376.276 466.658 393.762 445.692 458.309C408.928 567.785 447.472 607.378 447.472 607.378Z" fill="#6BA3FF" stroke="#0056FF" stroke-width="3" stroke-linecap="round" stroke-linejoin="round"></path></svg> 