<?xml version="1.0" encoding="UTF-8"?> <svg xmlns="http://www.w3.org/2000/svg" width="207" height="370" viewBox="0 0 207 370" fill="none"><path d="M1.5 359.972C19.9706 366.951 47.9262 372.434 75.3826 361.966C106.833 347.012 135.787 325.577 160.248 298.659C148.766 305.638 137.284 313.115 124.804 317.103C96.8484 329.066 56.9119 324.58 16.9754 314.112L1.5 359.473V359.972Z" fill="#CCE0FF" stroke="#0047CC" stroke-width="3" stroke-linecap="round" stroke-linejoin="round"></path><path d="M154.754 303.694C170.729 288.241 188.201 268.8 196.688 247.366C204.176 227.925 207.67 205.992 203.676 188.595C201.68 177.13 163.241 99.9159 154.255 72.0012C137.282 13.6793 155.253 -0.726658 154.255 1.76573L113.32 45.6317C113.32 45.6317 97.3455 61.0845 108.328 100.464C113.32 121.4 152.757 180.669 163.74 230.517C168.732 256.438 163.241 282.359 154.754 303.743V303.694Z" fill="#8FB8FF" stroke="#0047CC" stroke-width="3" stroke-linecap="round" stroke-linejoin="round"></path></svg> 