<?xml version="1.0" encoding="UTF-8"?> <svg xmlns="http://www.w3.org/2000/svg" width="534" height="410" viewBox="0 0 534 410" fill="none"><path d="M491.807 170.846C492.66 160.538 484.208 151.424 472.926 150.49C461.645 149.555 451.808 157.154 450.954 167.461C450.1 177.769 458.553 186.883 469.834 187.817C481.115 188.752 490.953 181.153 491.807 170.846Z" fill="#4D8AFF" stroke="#0056FF" stroke-width="3" stroke-miterlimit="10" stroke-linecap="round" stroke-linejoin="round"></path><path d="M453.958 216.863C467.748 216.863 478.927 207.547 478.927 196.055C478.927 184.563 467.748 175.247 453.958 175.247C440.168 175.247 428.988 184.563 428.988 196.055C428.988 207.547 440.168 216.863 453.958 216.863Z" fill="#4D8AFF" stroke="#0056FF" stroke-width="3" stroke-miterlimit="10" stroke-linecap="round" stroke-linejoin="round"></path><path d="M514.008 234.64C524.837 226.671 527.045 211.282 518.94 200.268C510.835 189.253 495.485 186.785 484.656 194.754C473.827 202.723 471.619 218.112 479.724 229.127C487.83 240.141 503.179 242.609 514.008 234.64Z" fill="#4D8AFF" stroke="#0056FF" stroke-width="3" stroke-miterlimit="10" stroke-linecap="round" stroke-linejoin="round"></path><path d="M490.371 164.843C490.371 164.843 482.048 160.681 474.765 163.802C467.482 166.923 462.28 172.125 461.24 180.449C460.407 186.691 461.24 197.095 469.563 203.337C477.886 209.58 492.452 209.58 497.654 204.378C502.856 199.176 505.977 190.853 504.936 184.61C503.896 178.368 500.775 173.166 500.775 173.166C500.775 173.166 502.856 166.923 505.977 166.923C500.775 164.843 498.694 165.883 496.613 167.964C496.613 164.843 497.654 162.762 491.411 159.641C491.411 162.762 490.371 164.843 490.371 164.843Z" fill="#4D8AFF" stroke="#0056FF" stroke-width="3" stroke-miterlimit="10" stroke-linecap="round" stroke-linejoin="round"></path><path d="M489.331 170.045C489.331 170.045 487.25 175.247 492.452 176.288C495.677 176.912 496.614 174.207 496.614 174.207C496.614 174.207 499.735 175.247 500.775 173.167" stroke="#0056FF" stroke-width="3" stroke-miterlimit="10" stroke-linecap="round" stroke-linejoin="round"></path><path d="M401.937 223.108C401.937 223.108 403.601 210.311 409.219 202.3C416.502 191.896 430.027 186.694 446.674 188.775C463.32 190.856 472.684 201.26 476.845 206.462C481.007 211.664 487.249 222.068 488.29 231.431C489.33 240.795 487.249 254.32 477.886 263.684C468.314 273.255 457.078 276.168 444.593 275.128C432.108 274.088 401.937 262.643 401.937 223.108Z" fill="#2968FF" stroke="#0047CC" stroke-width="3" stroke-miterlimit="10" stroke-linecap="round" stroke-linejoin="round"></path><path d="M434.189 226.228C434.189 226.228 445.633 217.905 456.037 217.905C466.441 217.905 471.643 221.026 471.643 221.026" stroke="#0047CC" stroke-width="3" stroke-miterlimit="10" stroke-linecap="round" stroke-linejoin="round"></path><path d="M388.412 249.117C388.412 249.117 390.492 238.713 397.775 229.349C402.769 222.899 420.664 211.663 420.664 211.663C420.664 211.663 424.826 229.349 420.664 240.794C416.815 251.302 409.22 258.481 406.098 259.521L388.412 249.117Z" fill="#6BA3FF" stroke="#0056FF" stroke-width="3" stroke-miterlimit="10" stroke-linecap="round" stroke-linejoin="round"></path><path d="M420.666 211.663C420.666 211.663 407.14 241.834 396.424 254.319" stroke="#0056FF" stroke-width="3" stroke-miterlimit="10" stroke-linecap="round" stroke-linejoin="round"></path><path d="M38.3182 39.9948C48.9482 39.9948 57.5656 31.3774 57.5656 20.7474C57.5656 10.1174 48.9482 1.5 38.3182 1.5C27.6882 1.5 19.0708 10.1174 19.0708 20.7474C19.0708 31.3774 27.6882 39.9948 38.3182 39.9948Z" fill="#4D8AFF" stroke="#0056FF" stroke-width="3" stroke-miterlimit="10" stroke-linecap="round" stroke-linejoin="round"></path><path d="M77.8592 69.3989C81.0459 60.8366 76.8627 51.3771 68.5157 48.2706C60.1688 45.1641 50.819 49.587 47.6323 58.1493C44.4456 66.7117 48.6288 76.1711 56.9758 79.2777C65.3227 82.3842 74.6726 77.9613 77.8592 69.3989Z" fill="#4D8AFF" stroke="#0056FF" stroke-width="3" stroke-miterlimit="10" stroke-linecap="round" stroke-linejoin="round"></path><path d="M26.8735 74.328C39.2273 74.328 49.2421 64.3133 49.2421 51.9594C49.2421 39.6056 39.2273 29.5908 26.8735 29.5908C14.5196 29.5908 4.50488 39.6056 4.50488 51.9594C4.50488 64.3133 14.5196 74.328 26.8735 74.328Z" fill="#4D8AFF" stroke="#0056FF" stroke-width="3" stroke-miterlimit="10" stroke-linecap="round" stroke-linejoin="round"></path><path d="M75.2525 103.461C78.3737 90.9761 77.3333 78.4913 67.9697 71.2085C58.8142 64.0298 51.3233 67.0469 45.0809 64.9661C38.8385 62.8853 31.3477 60.8045 23.2325 62.8853C14.9093 64.9661 5.64979 71.0005 2.42455 85.7741C-0.696653 100.34 4.50535 110.744 11.7881 118.027C20.6315 126.87 36.7577 127.39 47.1617 126.35C62.0395 124.893 72.9637 112.616 75.2525 103.461Z" fill="#2968FF" stroke="#0047CC" stroke-width="3" stroke-miterlimit="10" stroke-linecap="round" stroke-linejoin="round"></path><path d="M52.3622 72.2482C52.3622 72.2482 48.3047 74.6411 46.1198 75.3694C42.9986 76.4098 39.4613 75.9936 37.7966 74.329C35.7158 72.2482 35.7158 69.127 35.7158 69.127" stroke="#0047CC" stroke-width="3" stroke-miterlimit="10" stroke-linecap="round" stroke-linejoin="round"></path><path d="M31.5546 94.0969C40.9182 90.9757 51.3222 90.9757 61.7262 98.2585C80.8696 111.68 78.3726 146.117 53.403 155.48C29.994 164.22 18.1334 155.585 13.8678 151.319C7.6254 145.076 -0.385677 137.898 2.4234 120.107C5.5446 100.339 21.4627 97.4262 31.5546 94.0969Z" fill="#2968FF" stroke="#0047CC" stroke-width="3" stroke-miterlimit="10" stroke-linecap="round" stroke-linejoin="round"></path><path d="M34.6757 107.622C34.6757 107.622 31.5545 87.8543 31.5545 76.4099C31.5545 64.9655 34.6757 47.2787 40.9181 35.8343C46.7444 25.2222 53.4029 21.2687 53.4029 21.2687C53.4029 21.2687 54.4433 22.3091 55.4837 22.3091C56.5241 22.3091 73.1705 17.1071 73.1705 16.0667C73.1705 15.0263 73.1705 10.8647 71.0897 9.8243C69.0089 8.7839 53.4029 13.9859 52.3625 15.0263C51.3221 16.0667 51.3221 17.1071 51.3221 17.1071C51.3221 17.1071 41.9585 23.3495 36.7565 32.7131C31.9707 41.2444 26.3525 57.6827 26.3525 75.3695C26.3525 89.9351 28.4333 105.541 29.4737 109.703" fill="#2968FF"></path><path d="M34.6757 107.622C34.6757 107.622 31.5545 87.8543 31.5545 76.4099C31.5545 64.9655 34.6757 47.2787 40.9181 35.8343C46.7444 25.2222 53.4029 21.2687 53.4029 21.2687C53.4029 21.2687 54.4433 22.3091 55.4837 22.3091C56.5241 22.3091 73.1705 17.1071 73.1705 16.0667C73.1705 15.0263 73.1705 10.8647 71.0897 9.8243C69.0089 8.7839 53.4029 13.9859 52.3625 15.0263C51.3221 16.0667 51.3221 17.1071 51.3221 17.1071C51.3221 17.1071 41.9585 23.3495 36.7565 32.7131C31.9707 41.2444 26.3525 57.6827 26.3525 75.3695C26.3525 89.9351 28.4333 105.541 29.4737 109.703" stroke="#0047CC" stroke-width="3" stroke-miterlimit="10" stroke-linecap="round" stroke-linejoin="round"></path><path d="M20.1123 109.703C20.1123 109.703 28.4355 111.784 32.5971 109.703C36.7587 107.622 39.8799 103.46 39.8799 103.46" stroke="#0047CC" stroke-width="3" stroke-miterlimit="10" stroke-linecap="round" stroke-linejoin="round"></path><path d="M86.6984 146.639C97.7267 134.362 93.7731 116.051 93.7731 116.051C93.7731 116.051 74.3177 120.212 69.7399 138.731C67.1389 149.135 69.1156 158.915 69.1156 158.915C69.1156 158.915 80.456 153.609 86.6984 146.639Z" fill="#6BA3FF" stroke="#0056FF" stroke-width="3" stroke-miterlimit="10" stroke-linecap="round" stroke-linejoin="round"></path><path d="M364.483 215.826C362.402 211.664 359.281 205.422 357.2 199.179C355.12 192.937 349.918 180.452 350.958 171.089C351.998 161.725 357.2 155.483 362.402 153.402C367.604 151.321 369.685 154.442 375.928 153.402C382.17 152.361 384.251 147.159 382.17 145.079C382.17 145.079 374.887 144.038 369.685 145.079C364.483 146.119 349.918 147.159 345.756 166.927C342.011 184.718 356.16 213.745 356.16 213.745" fill="#2968FF"></path><path d="M364.483 215.826C362.402 211.664 359.281 205.422 357.2 199.179C355.12 192.937 349.918 180.452 350.958 171.089C351.998 161.725 357.2 155.483 362.402 153.402C367.604 151.321 369.685 154.442 375.928 153.402C382.17 152.361 384.251 147.159 382.17 145.079C382.17 145.079 374.887 144.038 369.685 145.079C364.483 146.119 349.918 147.159 345.756 166.927C342.011 184.718 356.16 213.745 356.16 213.745" stroke="#0047CC" stroke-width="3" stroke-miterlimit="10" stroke-linecap="round" stroke-linejoin="round"></path><path d="M332.905 265.75C327.703 259.507 315.946 238.283 328.743 222.053C340.188 207.487 360.996 215.81 360.996 215.81C360.996 215.81 366.198 206.447 378.683 205.406C391.167 204.366 399.491 210.608 403.652 218.932C407.606 226.839 413.016 242.861 405.733 256.386C398.45 269.911 378.578 274.281 370.359 276.154C356.834 279.275 338.107 271.992 332.905 265.75Z" fill="#2968FF" stroke="#0047CC" stroke-width="3" stroke-miterlimit="10" stroke-linecap="round" stroke-linejoin="round"></path><path d="M373.482 214.769C373.482 214.769 371.401 216.85 367.24 216.85C363.078 216.85 354.755 213.729 354.755 213.729" stroke="#0047CC" stroke-width="3" stroke-miterlimit="10" stroke-linecap="round" stroke-linejoin="round"></path><path d="M66.9295 131.552C65.8891 112.825 48.2023 101.38 48.2023 101.38C48.2023 101.38 36.0296 120.316 47.1619 138.835C53.4043 149.239 62.7679 155.481 62.7679 155.481C62.7679 155.481 67.5537 142.164 66.9295 131.552Z" fill="#6BA3FF" stroke="#0056FF" stroke-width="3" stroke-miterlimit="10" stroke-linecap="round" stroke-linejoin="round"></path><path d="M62.7668 155.481C62.7668 155.481 59.6456 136.754 57.5648 128.431C55.484 120.108 48.2012 101.38 48.2012 101.38" stroke="#0056FF" stroke-width="3" stroke-miterlimit="10" stroke-linecap="round" stroke-linejoin="round"></path><path d="M363.663 280.004C373.857 272.145 375.295 256.92 366.874 245.998C358.454 235.077 343.364 232.594 333.17 240.453C322.977 248.312 321.539 263.537 329.959 274.459C338.38 285.38 353.47 287.863 363.663 280.004Z" fill="#4D8AFF" stroke="#0056FF" stroke-width="3" stroke-miterlimit="10" stroke-linecap="round" stroke-linejoin="round"></path><path d="M89.8168 176.288C101.309 176.288 110.625 166.972 110.625 155.48C110.625 143.988 101.309 134.672 89.8168 134.672C78.3248 134.672 69.0088 143.988 69.0088 155.48C69.0088 166.972 78.3248 176.288 89.8168 176.288Z" fill="#4D8AFF" stroke="#0056FF" stroke-width="3" stroke-miterlimit="10" stroke-linecap="round" stroke-linejoin="round"></path><path d="M34.6757 174.208C46.1676 174.208 55.4837 164.892 55.4837 153.4C55.4837 141.908 46.1676 132.592 34.6757 132.592C23.1837 132.592 13.8677 141.908 13.8677 153.4C13.8677 164.892 23.1837 174.208 34.6757 174.208Z" fill="#4D8AFF" stroke="#0056FF" stroke-width="3" stroke-miterlimit="10" stroke-linecap="round" stroke-linejoin="round"></path><path d="M81.4931 157.562C81.4931 169.006 72.1295 178.37 60.6851 178.37C50.2811 178.37 41.5418 170.671 40.0852 160.579C36.1317 162.868 33.3226 161.099 29.4731 160.683C30.5135 154.441 34.1549 154.129 34.1549 154.129C34.1549 154.129 30.5135 151.632 30.5135 146.846C33.5307 143.204 38.5246 144.765 38.5246 144.765C38.5246 144.765 36.7559 141.956 39.8771 137.794C40.9175 140.916 44.0387 141.956 45.0791 143.829C48.9286 139.459 54.4427 136.754 60.6851 136.754C72.2336 136.754 81.4931 146.118 81.4931 157.562Z" fill="#4D8AFF" stroke="#0056FF" stroke-width="3" stroke-miterlimit="10" stroke-linecap="round" stroke-linejoin="round"></path><path d="M46.1215 148.2C46.1215 148.2 45.6013 145.183 45.0811 143.831Z" fill="white"></path><path d="M46.1215 148.2C46.1215 148.2 45.6013 145.183 45.0811 143.831" stroke="#0056FF" stroke-width="3" stroke-miterlimit="10" stroke-linecap="round" stroke-linejoin="round"></path><path d="M43.4157 158.291C43.4157 158.291 41.9591 159.644 40.0864 160.58" stroke="#0056FF" stroke-width="3" stroke-miterlimit="10" stroke-linecap="round" stroke-linejoin="round"></path><path d="M34.6764 211.663C47.3175 211.663 57.5652 201.415 57.5652 188.774C57.5652 176.133 47.3175 165.885 34.6764 165.885C22.0353 165.885 11.7876 176.133 11.7876 188.774C11.7876 201.415 22.0353 211.663 34.6764 211.663Z" fill="#4D8AFF" stroke="#0056FF" stroke-width="3" stroke-miterlimit="10" stroke-linecap="round" stroke-linejoin="round"></path><path d="M28.7459 187.318C28.7459 187.318 22.8157 190.959 25.1045 198.554" stroke="#0056FF" stroke-width="3" stroke-miterlimit="10" stroke-linecap="round" stroke-linejoin="round"></path><path d="M38.5251 180.867C38.5251 180.867 39.4614 177.746 37.0685 175.977C34.6756 174.208 32.4907 175.457 30.3059 172.856C30.3059 174.937 28.4332 175.145 27.2888 177.85C26.0403 180.659 27.4968 182.011 27.4968 182.011C27.4968 182.011 24.6878 180.347 22.607 182.428C20.5262 184.508 20.214 185.445 16.9888 186.797C19.6938 188.566 18.3413 190.543 20.006 191.791C21.0464 192.52 24.1675 192.311 25.5201 190.751" stroke="#0056FF" stroke-width="3" stroke-miterlimit="10" stroke-linecap="round" stroke-linejoin="round"></path><path d="M33.9473 183.675C40.3977 177.745 46.12 182.531 46.12 182.531C46.12 182.531 44.7675 185.236 43.9351 187.108C41.9584 191.374 38.8371 191.478 34.7796 190.23" stroke="#0056FF" stroke-width="3" stroke-miterlimit="10" stroke-linecap="round" stroke-linejoin="round"></path><path d="M414.803 279.643C420.628 267.143 415.301 252.327 402.906 246.551C390.51 240.774 375.74 246.224 369.915 258.724C364.09 271.224 369.416 286.039 381.812 291.816C394.207 297.592 408.978 292.142 414.803 279.643Z" fill="#4D8AFF" stroke="#0056FF" stroke-width="3" stroke-miterlimit="10" stroke-linecap="round" stroke-linejoin="round"></path><path d="M446.952 277.575C447.806 267.267 439.353 258.153 428.071 257.219C416.79 256.285 406.953 263.883 406.099 274.19C405.245 284.498 413.698 293.612 424.979 294.546C436.261 295.481 446.098 287.882 446.952 277.575Z" fill="#4D8AFF" stroke="#0056FF" stroke-width="3" stroke-miterlimit="10" stroke-linecap="round" stroke-linejoin="round"></path><path d="M424.097 298.319C425.112 286.065 415.072 275.23 401.673 274.12C388.273 273.01 376.587 282.045 375.572 294.299C374.557 306.554 384.597 317.388 397.996 318.498C411.396 319.608 423.082 310.574 424.097 298.319Z" fill="#4D8AFF" stroke="#0056FF" stroke-width="3" stroke-miterlimit="10" stroke-linecap="round" stroke-linejoin="round"></path><path d="M386.497 303.563C387.754 288.388 377.585 275.16 363.785 274.017C349.984 272.873 337.777 284.248 336.52 299.424C335.263 314.599 345.432 327.827 359.233 328.97C373.033 330.114 385.24 318.738 386.497 303.563Z" fill="#4D8AFF" stroke="#0056FF" stroke-width="3" stroke-miterlimit="10" stroke-linecap="round" stroke-linejoin="round"></path><path d="M82.5351 145.079C82.5351 145.079 84.6159 151.322 87.7371 153.402C90.8583 155.483 102.407 158.917 107.505 159.645C114.787 160.685 123.111 162.766 133.515 167.968C143.607 172.962 151.201 187.736 152.242 193.978C153.282 200.22 154.219 207.503 152.242 217.907C149.121 234.554 135.595 242.877 124.151 245.998C112.707 249.119 101.262 245.998 101.262 245.998C101.262 245.998 100.222 251.2 97.1007 253.281C93.9795 255.362 91.8987 254.321 90.8583 253.281C89.8179 252.24 88.7775 251.2 86.6967 251.2C84.6159 251.2 84.6159 253.281 82.5351 254.321C80.6623 255.258 77.3331 255.362 74.2119 253.281C71.0907 251.2 69.0099 244.958 69.0099 244.958C69.0099 244.958 64.12 245.27 60.6867 243.917C55.4847 241.836 54.4443 235.594 54.4443 235.594C54.4443 235.594 46.7453 232.681 45.0807 229.352C41.9595 223.109 42.9999 216.867 42.9999 216.867C42.9999 216.867 37.7979 208.544 38.8383 202.301C39.8787 196.059 44.0403 191.897 44.0403 191.897C44.0403 191.897 41.9595 184.614 47.1615 177.332C50.6988 172.442 61.7271 166.928 66.9291 161.726C73.1715 155.483 77.9573 147.784 78.6856 145.912C79.4138 144.039 81.4947 142.998 82.5351 145.079Z" fill="#D6E6FF" stroke="#0056FF" stroke-width="3" stroke-miterlimit="10" stroke-linecap="round" stroke-linejoin="round"></path><path d="M81.4951 165.888C81.4951 171.09 84.0961 183.783 86.6971 189.817C89.8183 197.1 95.3324 205.631 98.1415 212.706C102.303 223.11 104.384 231.433 101.263 245.999" stroke="#0056FF" stroke-width="3" stroke-miterlimit="10" stroke-linecap="round" stroke-linejoin="round"></path><path d="M74.2123 190.858C74.2123 190.858 72.1315 200.326 70.0507 210.626C67.9699 221.03 64.8487 236.636 69.0103 244.959" stroke="#0056FF" stroke-width="3" stroke-miterlimit="10" stroke-linecap="round" stroke-linejoin="round"></path><path d="M75.2523 165.888C74.2119 169.009 70.0503 180.454 66.9291 186.696C63.8079 192.939 57.5655 204.383 55.4847 213.747C53.4039 223.11 52.3635 229.353 54.4443 235.595" stroke="#0056FF" stroke-width="3" stroke-miterlimit="10" stroke-linecap="round" stroke-linejoin="round"></path><path d="M66.9297 174.209C66.9297 174.209 56.5257 189.815 52.3641 196.058C48.2025 202.3 43.0005 209.583 43.0005 216.866" stroke="#0056FF" stroke-width="3" stroke-miterlimit="10" stroke-linecap="round" stroke-linejoin="round"></path><path d="M82.5362 145.08C81.4958 153.403 89.819 174.211 95.021 181.494C100.223 188.776 110.627 199.18 115.829 209.584C120.199 218.428 119.991 226.231 117.91 234.554C116.141 241.629 110.627 244.958 110.627 244.958" stroke="#0056FF" stroke-width="3" stroke-miterlimit="10" stroke-linecap="round" stroke-linejoin="round"></path><path d="M96.0615 171.088C99.1827 174.21 101.264 175.25 106.466 179.412C111.876 183.781 117.91 186.694 124.152 191.896C128.834 195.746 132.892 200.532 135.597 209.583C138.718 219.987 136.117 227.166 132.684 236.53" stroke="#0056FF" stroke-width="3" stroke-miterlimit="10" stroke-linecap="round" stroke-linejoin="round"></path><path d="M84.6167 152.362C84.6167 152.362 88.7783 161.726 103.344 165.888C111.563 168.28 121.863 171.506 128.314 175.251C140.798 182.534 146 192.938 146 202.302" stroke="#0056FF" stroke-width="3" stroke-miterlimit="10" stroke-linecap="round" stroke-linejoin="round"></path><path d="M54.8612 181.182C54.8612 181.182 47.1622 187.736 44.041 191.898Z" fill="white"></path><path d="M54.8612 181.182C54.8612 181.182 47.1622 187.736 44.041 191.898" stroke="#0056FF" stroke-width="3" stroke-miterlimit="10" stroke-linecap="round" stroke-linejoin="round"></path><path d="M237.554 233.508C236.513 235.589 232.352 236.629 232.352 236.629Z" fill="white"></path><path d="M237.554 233.508C236.513 235.589 232.352 236.629 232.352 236.629" stroke="#0056FF" stroke-width="3" stroke-miterlimit="10" stroke-linecap="round" stroke-linejoin="round"></path><path d="M156.402 201.256C163.685 200.632 175.753 204.898 181.372 209.579C187.614 214.781 195.937 223.105 199.058 237.67C201.555 249.219 201.139 258.478 193.856 269.923C186.574 281.367 175.129 288.65 161.604 292.811C147.559 297.181 135.594 294.892 127.271 290.731C118.948 286.569 110.624 279.286 106.463 267.842C102.301 256.397 105.839 237.982 111.665 228.307C117.907 217.903 131.432 203.337 156.402 201.256Z" fill="#2968FF" stroke="#0047CC" stroke-width="3" stroke-miterlimit="10" stroke-linecap="round" stroke-linejoin="round"></path><path d="M144.957 230.39C144.957 230.39 144.957 200.218 144.957 192.935C144.957 185.652 147.038 154.44 150.159 146.117C153.28 137.794 155.361 133.632 158.482 129.471C161.604 125.309 164.725 123.228 163.684 119.067C162.644 114.905 159.523 112.408 157.442 112.824C152.24 113.865 154.321 121.148 154.321 121.148C154.321 121.148 147.038 131.552 142.876 150.279C138.715 169.006 139.755 230.39 139.755 230.39" fill="#2968FF"></path><path d="M144.957 230.39C144.957 230.39 144.957 200.218 144.957 192.935C144.957 185.652 147.038 154.44 150.159 146.117C153.28 137.794 155.361 133.632 158.482 129.471C161.604 125.309 164.725 123.228 163.684 119.067C162.644 114.905 159.523 112.408 157.442 112.824C152.24 113.865 154.321 121.148 154.321 121.148C154.321 121.148 147.038 131.552 142.876 150.279C138.715 169.006 139.755 230.39 139.755 230.39" stroke="#0047CC" stroke-width="3" stroke-miterlimit="10" stroke-linecap="round" stroke-linejoin="round"></path><path d="M156.401 124.268L154.32 121.147" stroke="#0047CC" stroke-width="3" stroke-miterlimit="10" stroke-linecap="round" stroke-linejoin="round"></path><path d="M123.108 232.469C123.108 232.469 129.351 230.388 134.553 230.388C139.755 230.388 143.916 231.429 149.118 230.388C154.32 229.348 158.482 223.105 158.482 223.105" stroke="#0047CC" stroke-width="3" stroke-miterlimit="10" stroke-linecap="round" stroke-linejoin="round"></path><path d="M200.1 256.399C200.1 256.399 184.494 250.156 182.413 242.873C180.332 235.591 181.373 224.146 183.453 217.904C185.534 211.661 195.938 189.813 195.938 189.813C195.938 189.813 207.383 208.54 209.463 216.863C211.544 225.187 213.625 233.51 211.544 240.793C209.463 248.075 200.1 256.399 200.1 256.399Z" fill="#6BA3FF" stroke="#0056FF" stroke-width="3" stroke-miterlimit="10" stroke-linecap="round" stroke-linejoin="round"></path><path d="M195.938 189.813C195.938 189.813 198.643 214.887 196.978 228.308C194.897 244.954 200.099 256.399 200.099 256.399" stroke="#0056FF" stroke-width="3" stroke-miterlimit="10" stroke-linecap="round" stroke-linejoin="round"></path><path d="M237.554 233.512C237.554 233.512 242.547 237.777 243.796 242.875C245.877 251.198 242.756 261.602 234.432 266.804C227.358 271.278 214.665 267.845 208.422 262.643C202.18 257.441 199.059 243.916 206.342 234.552C213.624 225.188 225.069 228.31 225.069 228.31C225.069 228.31 226.109 224.148 227.15 219.986C228.19 219.986 232.352 225.188 231.311 229.35C233.392 226.229 237.554 224.148 241.715 225.188C239.634 228.31 237.554 233.512 237.554 233.512Z" fill="#4D8AFF" stroke="#0056FF" stroke-width="3" stroke-miterlimit="10" stroke-linecap="round" stroke-linejoin="round"></path><path d="M226.109 233.511C226.109 233.511 224.028 231.43 225.068 228.309Z" fill="white"></path><path d="M226.109 233.511C226.109 233.511 224.028 231.43 225.068 228.309" stroke="#0056FF" stroke-width="3" stroke-miterlimit="10" stroke-linecap="round" stroke-linejoin="round"></path><path d="M201.43 293.791C205.013 280.772 198.71 267.684 187.352 264.559C175.994 261.434 163.883 269.455 160.301 282.475C156.719 295.494 163.022 308.582 174.379 311.707C185.737 314.832 197.848 306.811 201.43 293.791Z" fill="#4D8AFF" stroke="#0056FF" stroke-width="3" stroke-miterlimit="10" stroke-linecap="round" stroke-linejoin="round"></path><path d="M230.84 266.95C233.155 255.401 224.3 243.886 211.06 241.231C197.82 238.576 185.21 245.787 182.894 257.337C180.578 268.886 189.434 280.401 202.674 283.056C215.914 285.71 228.524 278.5 230.84 266.95Z" fill="#4D8AFF" stroke="#0056FF" stroke-width="3" stroke-miterlimit="10" stroke-linecap="round" stroke-linejoin="round"></path><path d="M205.925 275.023C209.2 275.023 211.855 273.02 211.855 270.549C211.855 268.078 209.2 266.075 205.925 266.075C202.65 266.075 199.995 268.078 199.995 270.549C199.995 273.02 202.65 275.023 205.925 275.023Z" stroke="#0056FF" stroke-width="3" stroke-linecap="round" stroke-linejoin="round"></path><path d="M225.187 317.254C237.718 312.224 244.319 299.285 239.931 288.354C235.543 277.423 221.828 272.639 209.297 277.669C196.767 282.699 190.165 295.638 194.553 306.569C198.941 317.5 212.656 322.284 225.187 317.254Z" fill="#4D8AFF" stroke="#0056FF" stroke-width="3" stroke-miterlimit="10" stroke-linecap="round" stroke-linejoin="round"></path><path d="M265.644 238.713C265.644 238.713 265.644 236.633 267.725 235.592C269.806 234.552 275.008 237.673 278.129 237.673C281.25 237.673 296.856 236.633 302.058 236.633C307.26 236.633 310.381 242.875 310.381 242.875C310.381 242.875 315.583 242.875 320.785 243.915C325.363 244.852 328.068 245.996 330.149 250.158C332.23 254.319 332.126 261.706 332.126 261.706C332.126 261.706 341.593 264.723 343.05 271.798C344.923 280.433 341.489 290.629 341.489 290.629C341.489 290.629 342.53 295.831 341.489 298.953C340.449 302.074 334.206 305.195 334.206 305.195C334.206 305.195 333.166 312.478 330.045 314.559C326.924 316.639 320.681 317.68 320.681 317.68C320.681 317.68 319.641 324.963 315.479 327.043C311.318 329.124 306.116 324.963 302.994 323.922C299.873 322.882 298.833 323.922 298.833 323.922C298.833 323.922 297.792 329.124 295.712 331.205C294.047 332.87 290.51 334.326 287.388 333.286C285.204 332.558 283.227 331.205 281.146 331.205C276.984 331.205 274.904 335.367 270.742 334.326C264.604 332.766 263.459 328.084 263.459 328.084C260.338 329.124 254.72 330.269 249.934 328.084C242.131 324.546 241.611 318.72 241.611 318.72C241.611 318.72 236.409 318.72 233.288 316.639C230.166 314.559 227.045 311.437 227.045 304.155C227.045 296.872 231.207 290.629 231.207 290.629C231.207 290.629 226.005 286.468 226.005 280.225C226.005 273.983 228.814 270.758 228.814 270.758C228.814 270.758 224.964 262.539 234.328 259.417C234.328 256.296 236.409 254.215 238.49 253.175C242.651 251.094 249.414 250.262 254.096 247.973C258.361 245.996 264.604 242.875 265.644 238.713Z" fill="#D6E6FF" stroke="#0056FF" stroke-width="3" stroke-miterlimit="10" stroke-linecap="round" stroke-linejoin="round"></path><path d="M298.936 324.026C298.936 324.026 299.976 314.662 298.936 305.299C298.104 298.016 294.774 287.612 292.694 282.41C290.613 277.208 275.007 247.036 275.007 247.036" stroke="#0056FF" stroke-width="3" stroke-miterlimit="10" stroke-linecap="round" stroke-linejoin="round"></path><path d="M270.846 254.319C270.846 254.319 271.886 268.884 269.805 278.248C268.037 286.467 263.459 295.103 261.482 301.137C259.401 307.379 259.401 312.581 260.442 318.824C261.482 325.066 263.563 328.187 263.563 328.187" stroke="#0056FF" stroke-width="3" stroke-miterlimit="10" stroke-linecap="round" stroke-linejoin="round"></path><path d="M265.643 238.712C265.643 238.712 263.146 250.989 260.441 257.439C257.32 264.722 253.158 269.924 250.037 273.045C244.835 278.247 235.472 282.409 231.31 290.732" stroke="#0056FF" stroke-width="3" stroke-miterlimit="10" stroke-linecap="round" stroke-linejoin="round"></path><path d="M264.603 240.792C264.603 240.792 260.442 254.318 251.078 260.56C241.715 266.802 235.472 263.681 228.189 272.004" stroke="#0056FF" stroke-width="3" stroke-miterlimit="10" stroke-linecap="round" stroke-linejoin="round"></path><path d="M244.837 256.397C244.837 256.397 238.594 258.478 234.433 259.519Z" fill="white"></path><path d="M244.837 256.397C244.837 256.397 238.594 258.478 234.433 259.519" stroke="#0056FF" stroke-width="3" stroke-miterlimit="10" stroke-linecap="round" stroke-linejoin="round"></path><path d="M264.604 262.641C264.604 262.641 262.523 272.005 260.442 277.207C258.361 282.409 255.24 286.57 250.038 291.772C245.877 295.934 242.755 301.136 241.715 305.298C240.467 310.395 240.675 315.702 241.715 318.823" stroke="#0056FF" stroke-width="3" stroke-miterlimit="10" stroke-linecap="round" stroke-linejoin="round"></path><path d="M320.785 317.782C320.785 317.782 320.785 311.539 317.664 302.176C314.543 292.812 311.421 290.731 308.3 286.57C305.179 282.408 295.815 274.085 295.815 274.085" stroke="#0056FF" stroke-width="3" stroke-miterlimit="10" stroke-linecap="round" stroke-linejoin="round"></path><path d="M334.311 305.298C334.311 305.298 336.392 299.055 332.23 290.732C329.109 284.49 324.635 281.16 318.705 278.247C312.463 275.126 303.099 272.005 294.776 263.682" stroke="#0056FF" stroke-width="3" stroke-miterlimit="10" stroke-linecap="round" stroke-linejoin="round"></path><path d="M341.594 290.731C341.594 290.731 340.553 284.488 335.767 278.974C332.334 275.021 321.514 269.611 315.584 266.801C310.07 264.2 296.856 256.397 296.856 256.397" stroke="#0056FF" stroke-width="3" stroke-miterlimit="10" stroke-linecap="round" stroke-linejoin="round"></path><path d="M332.231 261.6C332.231 261.6 321.827 257.439 312.463 255.358C302.787 253.173 290.615 248.075 286.453 245.994" fill="white"></path><path d="M332.231 261.6C332.231 261.6 321.827 257.439 312.463 255.358C302.787 253.173 290.615 248.075 286.453 245.994" stroke="#0056FF" stroke-width="3" stroke-miterlimit="10" stroke-linecap="round" stroke-linejoin="round"></path><path d="M295.815 241.833C295.815 241.833 304.139 242.873 310.381 242.873Z" fill="white"></path><path d="M295.815 241.833C295.815 241.833 304.139 242.873 310.381 242.873" stroke="#0056FF" stroke-width="3" stroke-miterlimit="10" stroke-linecap="round" stroke-linejoin="round"></path><path d="M355.847 300.097C358.864 290.629 350.645 290.005 354.286 282.202C357.407 283.763 360.112 280.121 364.066 283.658C364.274 278.873 372.701 276.064 373.221 277.624C374.262 280.641 378.839 281.994 375.094 289.485C378.527 290.213 378.319 295.415 381.753 297.912C375.094 305.819 370.828 303.946 366.251 301.553" fill="#4D8AFF"></path><path d="M355.847 300.097C358.864 290.629 350.645 290.005 354.286 282.202C357.407 283.763 360.112 280.121 364.066 283.658C364.274 278.873 372.701 276.064 373.221 277.624C374.262 280.641 378.839 281.994 375.094 289.485C378.527 290.213 378.319 295.415 381.753 297.912C375.094 305.819 370.828 303.946 366.251 301.553" stroke="#0056FF" stroke-width="3" stroke-miterlimit="10" stroke-linecap="round" stroke-linejoin="round"></path><path d="M360.217 288.339C364.691 291.877 366.043 301.448 362.506 305.818Z" fill="#4D8AFF"></path><path d="M360.217 288.339C364.691 291.877 366.043 301.448 362.506 305.818" stroke="#0056FF" stroke-width="3" stroke-miterlimit="10" stroke-linecap="round" stroke-linejoin="round"></path><path d="M513.883 220.505C512.635 216.343 503.479 218.008 502.959 222.794C502.647 225.707 506.601 227.372 509.514 226.955" stroke="#0056FF" stroke-width="3" stroke-linecap="round" stroke-linejoin="round"></path><path d="M34.7798 20.4381C38.055 20.4381 40.7101 18.4352 40.7101 15.9644C40.7101 13.4937 38.055 11.4907 34.7798 11.4907C31.5046 11.4907 28.8496 13.4937 28.8496 15.9644C28.8496 18.4352 31.5046 20.4381 34.7798 20.4381Z" stroke="#0056FF" stroke-width="3" stroke-linecap="round" stroke-linejoin="round"></path><path d="M424.724 285.217C427.999 285.217 430.654 283.214 430.654 280.744C430.654 278.273 427.999 276.27 424.724 276.27C421.449 276.27 418.793 278.273 418.793 280.744C418.793 283.214 421.449 285.217 424.724 285.217Z" stroke="#0056FF" stroke-width="3" stroke-linecap="round" stroke-linejoin="round"></path><path d="M501.142 408.406C508.111 408.406 513.75 402.772 513.75 395.809C513.75 388.846 508.111 383.212 501.142 383.212C494.173 383.212 488.534 388.846 488.534 395.809C488.534 402.772 494.187 408.406 501.142 408.406Z" fill="#7AA3FF" stroke="#0056FF" stroke-width="3" stroke-linecap="round" stroke-linejoin="round"></path><path d="M151.765 304.067C151.765 304.067 149.007 298.611 137.943 291.808C131.736 287.872 120.136 283.38 109.64 285.023" fill="#A3C4FF"></path><path d="M151.765 304.067C151.765 304.067 149.007 298.611 137.943 291.808C131.736 287.872 120.136 283.38 109.64 285.023" stroke="#0056FF" stroke-width="3" stroke-linecap="round" stroke-linejoin="round"></path><path d="M457.449 279.843C457.449 279.843 459.441 275.903 467.431 270.99C471.913 268.147 480.291 264.903 487.87 266.089" fill="#A3C4FF"></path><path d="M457.449 279.843C457.449 279.843 459.441 275.903 467.431 270.99C471.913 268.147 480.291 264.903 487.87 266.089" stroke="#0056FF" stroke-width="3" stroke-linecap="round" stroke-linejoin="round"></path><path d="M252.558 140.783C252.558 140.783 256.209 137.279 266.715 135.002C272.642 133.631 282.933 133.305 290.679 137.468" fill="#A3C4FF"></path><path d="M252.558 140.783C252.558 140.783 256.209 137.279 266.715 135.002C272.642 133.631 282.933 133.305 290.679 137.468" stroke="#0056FF" stroke-width="3" stroke-linecap="round" stroke-linejoin="round"></path><path d="M98.3029 96.2548C98.3029 96.2548 96.5899 93.549 91.6864 91.7621C88.9196 90.6879 84.123 90.4025 80.5279 93.5755" fill="#A3C4FF"></path><path d="M98.3029 96.2548C98.3029 96.2548 96.5899 93.549 91.6864 91.7621C88.9196 90.6879 84.123 90.4025 80.5279 93.5755" stroke="#0056FF" stroke-width="3" stroke-linecap="round" stroke-linejoin="round"></path><path d="M183.562 157C183.562 157 186.13 155.108 192.359 154.877C195.886 154.689 201.703 155.735 205.425 159.466" fill="#A3C4FF"></path><path d="M183.562 157C183.562 157 186.13 155.108 192.359 154.877C195.886 154.689 201.703 155.735 205.425 159.466" stroke="#0056FF" stroke-width="3" stroke-linecap="round" stroke-linejoin="round"></path><path d="M430.955 108.073C430.955 108.073 428.684 106.318 422.644 105.687C419.23 105.283 413.435 105.745 409.352 108.589" fill="#A3C4FF"></path><path d="M430.955 108.073C430.955 108.073 428.684 106.318 422.644 105.687C419.23 105.283 413.435 105.745 409.352 108.589" stroke="#0056FF" stroke-width="3" stroke-linecap="round" stroke-linejoin="round"></path></svg> 