<?xml version="1.0" encoding="UTF-8"?> <svg xmlns="http://www.w3.org/2000/svg" width="31" height="167" viewBox="0 0 31 167" fill="none"><path d="M8.56909 144.499V159.535V161.218C8.56909 162.34 11.4866 165.146 15.0774 165.146C18.6682 165.146 21.5857 162.34 21.5857 161.218V159.535V144.499" fill="#E6F0FF"></path><path d="M8.56909 144.499V159.535V161.218C8.56909 162.34 11.4866 165.146 15.0774 165.146C18.6682 165.146 21.5857 162.34 21.5857 161.218V159.535V144.499" stroke="#0047CC" stroke-width="3" stroke-linecap="round" stroke-linejoin="round"></path><path d="M15.0776 113.865C7.55942 113.865 1.5 116.222 1.5 118.578V122.169V126.658V143.602V148.09V151.681C1.5 154.037 7.55942 158.077 15.0776 158.077C22.5958 158.077 28.6552 154.037 28.6552 151.681V148.09V143.602V126.658V122.169V118.578C28.6552 116.222 22.5958 113.865 15.0776 113.865Z" fill="#E6F0FF" stroke="#0047CC" stroke-width="3" stroke-linecap="round" stroke-linejoin="round"></path><path d="M4.41724 44.1394V119.025V119.474C4.41724 123.962 9.13014 125.533 15.0774 125.533C20.9124 125.533 25.7375 123.85 25.7375 119.474V119.025V44.1394" fill="#CCE0FF"></path><path d="M4.41724 44.1394V119.025V119.474C4.41724 123.962 9.13014 125.533 15.0774 125.533C20.9124 125.533 25.7375 123.85 25.7375 119.474V119.025V44.1394" stroke="#0047CC" stroke-width="3" stroke-linecap="round" stroke-linejoin="round"></path><path d="M18.4443 30.6751C18.4443 27.0843 18.4443 5.42742 18.4443 5.42742C18.4443 4.52972 17.8833 1.5 14.9658 1.5C11.7116 1.5 11.375 4.52972 11.375 5.42742C11.375 5.42742 11.375 27.421 11.375 30.6751C11.375 33.9293 4.53003 39.8765 4.53003 44.1405C4.53003 46.7214 11.2628 48.4046 14.9658 48.4046C18.6688 48.4046 25.7381 46.7214 25.7381 44.1405C25.7381 39.091 18.4443 34.1537 18.4443 30.6751Z" fill="#E6F0FF" stroke="#0047CC" stroke-width="3" stroke-linecap="round" stroke-linejoin="round"></path><path d="M18.4434 26.1866C18.4434 22.5958 18.4434 5.42742 18.4434 5.42742C18.4434 4.52972 17.8823 1.5 14.9648 1.5C11.7107 1.5 11.374 4.52972 11.374 5.42742C11.374 5.42742 11.374 22.9325 11.374 26.1866C11.374 29.4408 18.4434 29.6652 18.4434 26.1866Z" fill="#E6F0FF" stroke="#0047CC" stroke-width="3" stroke-linecap="round" stroke-linejoin="round"></path></svg> 