<?xml version="1.0" encoding="UTF-8"?> <svg xmlns="http://www.w3.org/2000/svg" width="284" height="347" viewBox="0 0 284 347" fill="none"><path d="M1.5002 1.9788C6.7747 22.0884 14.4467 45.5495 27.8727 62.7863C40.3397 78.1079 56.6426 91.0354 72.9456 95.8234C83.0151 99.6538 164.53 103.963 191.382 109.709C247.004 123.115 250.36 144.182 248.922 142.267L232.139 88.1626C232.139 88.1626 226.865 68.0531 189.464 58.4771C170.284 52.7315 102.675 57.5195 57.1221 43.1555C33.6266 35.0159 14.9262 18.258 1.5002 1.5V1.9788Z" fill="#F0F5FF" stroke="#0056FF" stroke-width="3" stroke-linecap="round" stroke-linejoin="round"></path><path d="M231.177 86.676C231.177 86.676 234.054 95.2944 218.23 110.616C202.407 125.938 166.924 143.653 149.182 160.89C118.494 186.266 132.879 207.812 132.879 207.812L160.211 273.408C152.539 249.468 166.444 214.515 187.542 203.503C225.423 181.478 256.59 169.029 250.836 144.18C247.959 135.561 231.656 86.2451 231.656 86.2451L231.177 86.7239V86.676Z" fill="#D6E6FF" stroke="#0056FF" stroke-width="3" stroke-linecap="round" stroke-linejoin="round"></path><path d="M279.128 300.174L282.005 292.992L280.087 293.95C172.2 288.683 130.963 201.111 130.963 201.111L159.733 273.361C177.954 313.581 217.752 342.308 261.387 345.133C264.743 329.812 270.497 315.448 278.649 299.647L279.128 300.126V300.174Z" fill="#F0F5FF" stroke="#0056FF" stroke-width="3" stroke-linecap="round" stroke-linejoin="round"></path></svg> 