<?xml version="1.0" encoding="UTF-8"?> <svg xmlns="http://www.w3.org/2000/svg" width="401" height="433" viewBox="0 0 401 433" fill="none"><path d="M222.411 64.5243C204.455 80.3372 196.939 105.63 204.195 129.031C215.934 162.041 226.401 190.226 234.429 210.634C247.226 244.591 232.704 269.198 232.704 269.198C232.704 269.198 252.996 241.067 263.11 227.633C271.655 213.112 263.944 188.146 251.188 156.132C242.986 133.789 224.014 112.981 229.933 76.9815C232.675 55.0379 249.463 36.2723 249.463 36.2723L222.277 64.5316L222.411 64.5243Z" fill="#4D8AFF" stroke="#003DB3" stroke-width="3" stroke-linecap="round" stroke-linejoin="round"></path><path d="M373.253 141.41C364.424 142.905 355.373 140.389 347.206 136.885C328.891 127.976 316.129 112.859 295.042 90.1565C252.987 46.8911 221.38 65.4718 221.38 65.4718L248.199 36.2408C254.422 28.8081 276.255 32.9226 290.442 40.7935C318.022 56.0957 330.169 78.2873 354.136 99.7572C366.573 108.992 380.729 114.175 396.494 113.302L373.253 141.41Z" fill="#6BA3FF" stroke="#003DB3" stroke-width="3" stroke-linecap="round" stroke-linejoin="round"></path><path d="M90.1698 235.432L58.4822 269.321C46.7551 281.173 37.5126 304.796 48.1942 336.859C61.2119 374.826 85.179 396.296 102.286 400.31C116.332 403.489 120.869 399.319 122.658 395.399C128.186 383.287 135.925 362.709 135.925 362.709C135.925 362.709 106.981 376.71 80.77 315.207C61.7 275.63 90.2329 235.361 90.2329 235.361L90.1698 235.432Z" fill="#4D8AFF" stroke="#003DB3" stroke-width="3" stroke-linecap="round" stroke-linejoin="round"></path><path d="M122.659 395.399C134.118 367.445 132.835 333.56 100.501 311.384L115.104 270.056C169.347 301.03 135.925 362.709 135.925 362.709C135.925 362.709 128.186 383.287 122.659 395.399Z" fill="#6BA3FF" stroke="#003DB3" stroke-width="3" stroke-linecap="round" stroke-linejoin="round"></path><path d="M91.058 234.444L58.4836 269.322C68.6623 259.933 100.144 255.8 122.072 258.541C144 261.283 163.483 273.144 191.424 275.553C219.364 277.961 230.145 272.279 231.743 270.369C240.82 259.527 263.11 227.633 263.11 227.633C254.899 238.82 236.205 244.374 219.382 244.3C194.483 244.191 177.245 234.766 139.157 226.952C124.054 222.827 96.9833 227.509 91.0654 234.578L91.058 234.444Z" fill="#6BA3FF" stroke="#003DB3" stroke-width="3" stroke-linecap="round" stroke-linejoin="round"></path></svg> 