<?xml version="1.0" encoding="UTF-8"?> <svg xmlns="http://www.w3.org/2000/svg" width="31" height="167" viewBox="0 0 31 167" fill="none"><path d="M8.56982 144.5V159.537V161.22C8.56982 162.342 11.4873 165.147 15.0781 165.147C18.6689 165.147 21.5865 162.342 21.5865 161.22V159.537V144.5" fill="#E6F0FF"></path><path d="M8.56982 144.5V159.537V161.22C8.56982 162.342 11.4873 165.147 15.0781 165.147C18.6689 165.147 21.5865 162.342 21.5865 161.22V159.537V144.5" stroke="#0047CC" stroke-width="3" stroke-linecap="round" stroke-linejoin="round"></path><path d="M15.0776 113.865C7.55942 113.865 1.5 116.222 1.5 118.578V122.169V126.658V143.602V148.09V151.681C1.5 154.037 7.55942 158.077 15.0776 158.077C22.5958 158.077 28.6553 154.037 28.6553 151.681V148.09V143.602V126.658V122.169V118.578C28.6553 116.222 22.5958 113.865 15.0776 113.865Z" fill="#E6F0FF" stroke="#0047CC" stroke-width="3" stroke-linecap="round" stroke-linejoin="round"></path><path d="M4.53003 44.1411V119.026V119.475C4.53003 123.964 9.24293 125.535 15.1902 125.535C21.1374 125.535 25.8503 123.852 25.8503 119.475V119.026V44.1411" fill="#CCE0FF"></path><path d="M4.53003 44.1411V119.026V119.475C4.53003 123.964 9.24293 125.535 15.1902 125.535C21.1374 125.535 25.8503 123.852 25.8503 119.475V119.026V44.1411" stroke="#0047CC" stroke-width="3" stroke-linecap="round" stroke-linejoin="round"></path><path d="M18.4443 30.6751C18.4443 27.0843 18.4443 5.42742 18.4443 5.42742C18.4443 4.52972 17.8832 1.5 14.9657 1.5C11.7116 1.5 11.3749 4.52972 11.3749 5.42742C11.3749 5.42742 11.3749 27.421 11.3749 30.6751C11.3749 33.9293 4.53003 39.8765 4.53003 44.1405C4.53003 46.7214 11.2627 48.4046 14.9657 48.4046C18.6687 48.4046 25.738 46.7214 25.738 44.1405C25.738 39.091 18.4443 34.2659 18.4443 30.6751Z" fill="#E6F0FF" stroke="#0047CC" stroke-width="3" stroke-linecap="round" stroke-linejoin="round"></path><path d="M18.4434 26.1866C18.4434 22.5958 18.4434 5.42742 18.4434 5.42742C18.4434 4.52972 17.8823 1.5 14.9648 1.5C11.7107 1.5 11.374 4.52972 11.374 5.42742C11.374 5.42742 11.374 22.9325 11.374 26.1866C11.374 29.4408 18.4434 29.7774 18.4434 26.1866Z" fill="#E6F0FF" stroke="#0047CC" stroke-width="3" stroke-linecap="round" stroke-linejoin="round"></path></svg> 