<?xml version="1.0" encoding="UTF-8"?> <svg xmlns="http://www.w3.org/2000/svg" width="673" height="463" viewBox="0 0 673 463" fill="none"><g opacity="0.5"><path d="M444.075 13.1006L9.85916 193.201L12.0201 226.325L211.672 450.317L659.208 219.45L657.453 192.536L444.075 13.1006Z" fill="#0056FF" stroke="#003DB3" stroke-width="3" stroke-miterlimit="10" stroke-linecap="round" stroke-linejoin="round"></path><path d="M657.453 192.536L209.376 415.122L9.85962 193.2" fill="#0056FF"></path><path d="M657.453 192.536L209.376 415.122L9.85962 193.2" stroke="#003DB3" stroke-width="3" stroke-miterlimit="10" stroke-linecap="round" stroke-linejoin="round"></path><path d="M222.536 186.603C222.536 186.603 221.163 181.495 207.706 182.373C194.249 183.251 172.646 186.739 162.092 184.309C151.538 181.879 148.163 177.941 148.163 177.941C148.163 177.941 166.66 174.655 174.536 167.904C182.412 161.153 190.445 140.878 198.254 133.092C206.062 125.305 218.911 115.111 218.911 115.111L247.252 124.074L222.536 186.603Z" fill="#3B7AFF" stroke="#003DB3" stroke-width="3" stroke-miterlimit="10" stroke-linecap="round" stroke-linejoin="round"></path><path d="M412.845 187.702C412.845 187.702 463.072 192.742 487.713 188.015C503.008 185.043 525.135 172.06 525.135 172.06C525.135 172.06 513.757 152.219 496.466 146.902C474.187 140.039 476.415 126.38 465.726 121.879C450.199 122.892 415.544 133.469 415.544 133.469L412.845 187.702Z" fill="#3B7AFF" stroke="#003DB3" stroke-width="3" stroke-miterlimit="10" stroke-linecap="round" stroke-linejoin="round"></path><path d="M332.149 161.78C332.149 161.78 331.473 151.429 329.965 144.25C328.458 137.072 312.953 122.49 305.167 114.682C297.38 106.873 270.849 82.6154 267.743 82.818C264.638 83.0206 247.513 91.4146 242.473 93.8225C237.432 96.2304 219.002 100.551 217.067 102.757C215.132 104.962 214.443 108.749 214.443 108.749L220.706 105.95C220.706 105.95 252.082 129.58 260.836 136.285C269.59 142.991 326.343 168.396 326.343 168.396L332.149 161.78Z" fill="#3B7AFF" stroke="#003DB3" stroke-width="3" stroke-miterlimit="10" stroke-linecap="round" stroke-linejoin="round"></path><path d="M328.278 166.191C328.278 166.191 333.274 185.409 336.244 192.7C341.195 204.851 376.458 251.409 383.277 260.32C390.095 269.231 424.035 300.283 426.13 306.903C428.329 313.517 429.331 336.841 429.331 336.841L423.944 340.311C423.944 340.311 429.252 343.603 432.29 342.366C435.328 341.128 454.824 329.253 459.361 327.086C463.898 324.918 482.561 316.216 484.497 314.011C486.432 311.805 485.342 282.353 482.601 278.582C479.86 274.811 450.973 247.9 443.337 240.809C424.524 223.325 399.636 208.315 386.404 196.704C368.761 181.222 328.278 166.191 328.278 166.191Z" fill="#3B7AFF" stroke="#003DB3" stroke-width="3" stroke-miterlimit="10" stroke-linecap="round" stroke-linejoin="round"></path><path d="M381.994 240.653C381.994 240.653 363.676 214.82 361.335 210.814C358.995 206.809 350.533 188.649 347.09 183.676C343.647 178.702 328.278 166.191 328.278 166.191" fill="#3B7AFF"></path><path d="M381.994 240.653C381.994 240.653 363.676 214.82 361.335 210.814C358.995 206.809 350.533 188.649 347.09 183.676C343.647 178.702 328.278 166.191 328.278 166.191" stroke="#003DB3" stroke-width="3" stroke-miterlimit="10" stroke-linecap="round" stroke-linejoin="round"></path><path d="M327.805 158.945C327.805 158.945 317.048 153.409 314.775 150.439C312.502 147.468 302.443 136.69 295.962 132.954C289.481 129.219 272.649 126.159 272.649 126.159C272.649 126.159 261.825 119.588 256.379 115.785C250.933 111.982 244.52 109.282 241.482 110.52C238.444 111.757 238.849 117.968 237.049 122.244C235.249 126.519 233.651 133.901 230.884 139.279C228.116 144.657 219.813 160.792 217.18 168.241C214.547 175.689 217.36 186.941 217.765 193.151C218.171 199.362 213.535 207.981 214.84 212.054C216.146 216.127 223.527 217.725 228.702 217.387C233.878 217.049 259.689 214.326 271.976 211.445C284.262 208.565 304.627 202.039 311.671 198.46C318.714 194.882 329.223 180.683 329.223 180.683L327.805 158.945Z" fill="#3B7AFF" stroke="#003DB3" stroke-width="3" stroke-miterlimit="10" stroke-linecap="round" stroke-linejoin="round"></path><path d="M256.065 190.654C256.065 190.654 250.723 191.626 248.684 189.056C246.411 186.086 244.971 179.942 248.909 176.567C251.175 174.652 255.885 171.954 263.266 173.551C270.433 175.059 276.025 177.916 282.304 178.546C288.582 179.176 296.796 177.601 301.904 176.228C307.012 174.855 321.234 169.769 321.234 169.769" fill="#3B7AFF"></path><path d="M256.065 190.654C256.065 190.654 250.723 191.626 248.684 189.056C246.411 186.086 244.971 179.942 248.909 176.567C251.175 174.652 255.885 171.954 263.266 173.551C270.433 175.059 276.025 177.916 282.304 178.546C288.582 179.176 296.796 177.601 301.904 176.228C307.012 174.855 321.234 169.769 321.234 169.769" stroke="#003DB3" stroke-width="3" stroke-miterlimit="10" stroke-linecap="round" stroke-linejoin="round"></path><path d="M276.34 150.867C276.34 150.867 282.123 159.846 293.78 163.244C301.409 165.449 321.999 165.561 321.999 165.561" fill="#3B7AFF"></path><path d="M276.34 150.867C276.34 150.867 282.123 159.846 293.78 163.244C301.409 165.449 321.999 165.561 321.999 165.561" stroke="#003DB3" stroke-width="3" stroke-miterlimit="10" stroke-linecap="round" stroke-linejoin="round"></path><path d="M272.649 126.158C272.649 126.158 284.576 133.697 291.327 141.573C295.605 146.595 304.964 159.395 322.764 161.352" fill="#3B7AFF"></path><path d="M272.649 126.158C272.649 126.158 284.576 133.697 291.327 141.573C295.605 146.595 304.964 159.395 322.764 161.352" stroke="#003DB3" stroke-width="3" stroke-miterlimit="10" stroke-linecap="round" stroke-linejoin="round"></path><path d="M332.148 161.78C332.148 161.78 336.288 161.51 342.432 160.07C348.575 158.63 362.392 147.333 366.262 142.922C370.133 138.512 388.99 124.807 396.101 122.264C404.834 119.095 421.642 115.4 426.615 111.957C431.788 108.397 434.282 111.561 433.163 116.727C431.566 124.108 448.196 147.973 449.456 159.325C452.045 183.066 448.512 192.652 448.849 197.828C449.187 203.004 453.598 206.874 451.73 210.115C449.862 213.355 443.381 209.62 439.241 209.89C435.1 210.16 397.862 203.441 377.087 197.312C356.947 191.349 330.863 167.582 330.863 167.582L332.148 161.78Z" fill="#3B7AFF" stroke="#003DB3" stroke-width="3" stroke-miterlimit="10" stroke-linecap="round" stroke-linejoin="round"></path><path d="M380.529 154.466C380.529 154.466 373.823 163.22 363.674 167.001C356.874 169.523 342.139 171.524 330.482 168.126" fill="#3B7AFF"></path><path d="M380.529 154.466C380.529 154.466 373.823 163.22 363.674 167.001C356.874 169.523 342.139 171.524 330.482 168.126" stroke="#003DB3" stroke-width="3" stroke-miterlimit="10" stroke-linecap="round" stroke-linejoin="round"></path><path d="M416.174 175.011C416.174 175.011 388.496 180.974 365.588 180.39C356.217 180.169 334.778 170.237 334.778 170.237" fill="#3B7AFF"></path><path d="M416.174 175.011C416.174 175.011 388.496 180.974 365.588 180.39C356.217 180.169 334.778 170.237 334.778 170.237" stroke="#003DB3" stroke-width="3" stroke-miterlimit="10" stroke-linecap="round" stroke-linejoin="round"></path><path d="M338.291 160.34C338.291 160.34 337.054 157.302 334.916 156.402C332.24 155.225 327.602 155.84 325.6 157.01C322.796 158.648 321.088 161.15 320.226 165.469C319.232 170.939 320.949 176.545 323.98 179.985C327.355 183.923 332.396 181.515 332.396 181.515C332.396 181.515 331.622 172.834 332.504 168.826C333.386 164.818 338.291 160.34 338.291 160.34Z" fill="#3B7AFF" stroke="#003DB3" stroke-width="3" stroke-miterlimit="10" stroke-linecap="round" stroke-linejoin="round"></path><path d="M309.082 126.9C309.082 126.9 314.73 133.808 318.376 141.887C320.563 146.734 325.6 157.009 325.6 157.009" fill="#3B7AFF"></path><path d="M309.082 126.9C309.082 126.9 314.73 133.808 318.376 141.887C320.563 146.734 325.6 157.009 325.6 157.009" stroke="#003DB3" stroke-width="3" stroke-miterlimit="10" stroke-linecap="round" stroke-linejoin="round"></path><path d="M276.88 111.328C276.88 111.328 293.014 119.632 298.663 126.54C301.487 129.994 310.464 144.898 310.464 144.898" fill="#3B7AFF"></path><path d="M276.88 111.328C276.88 111.328 293.014 119.632 298.663 126.54C301.487 129.994 310.464 144.898 310.464 144.898" stroke="#003DB3" stroke-width="3" stroke-miterlimit="10" stroke-linecap="round" stroke-linejoin="round"></path></g></svg> 