<?xml version="1.0" encoding="UTF-8"?> <svg xmlns="http://www.w3.org/2000/svg" width="554" height="686" viewBox="0 0 554 686" fill="none"><path d="M24.9162 503.035L46.5229 573.752C46.5229 573.752 136.469 617.581 201.611 602.947C240.479 590.685 276.246 571.115 304.99 544.882C290.848 551.12 276.706 557.357 261.013 559.94C164.849 585.545 24.9162 503.035 24.9162 503.035Z" fill="#5C8DFF" stroke="#0047CC" stroke-width="3" stroke-linecap="round" stroke-linejoin="round"></path><path d="M298.664 549.838C317.552 535.001 338.812 515.865 347.94 492.863C355.882 472.011 358.35 448.15 351.786 427.732C348.322 414.621 292.328 322.206 278.377 289.321C251.661 221.404 273.285 208.072 272.099 210.222L223.282 253.439C223.282 253.439 204.395 268.275 221.81 314.27C229.924 338.343 286.013 411.197 304.155 468.8C312.633 498.676 307.792 526.836 298.664 549.838Z" fill="#2968FF" stroke="#0047CC" stroke-width="3" stroke-linecap="round" stroke-linejoin="round"></path><path d="M222.099 255.603C222.099 255.603 229.582 248.507 259.321 259.248C289.06 269.988 335.947 301.361 368.423 313.605C420.056 336.378 434.294 310.579 434.294 310.579L488.681 250.807C467.42 269.943 417.242 270.386 388.325 251.691C334.779 219.461 297.289 190.451 273.291 208.084C265.808 215.179 222.099 255.603 222.099 255.603Z" fill="#5C8DFF" stroke="#0047CC" stroke-width="3" stroke-linecap="round" stroke-linejoin="round"></path><path d="M429.394 106.166L418.812 105.954C418.812 105.954 418.812 105.954 421.548 107.458C496.602 229.96 438.349 306.069 438.349 306.069L488.661 250.812C520.599 212.328 523.622 155.151 494.075 105.291C474.46 108.52 453.295 108.095 429.394 106.166Z" fill="#2968FF" stroke="#0047CC" stroke-width="3" stroke-linecap="round" stroke-linejoin="round"></path></svg> 