<?xml version="1.0" encoding="UTF-8"?> <svg xmlns="http://www.w3.org/2000/svg" width="570" height="458" viewBox="0 0 570 458" fill="none"><path d="M423.516 83.8422C423.516 83.8422 348.912 99.8377 336.1 101.456C323.288 103.073 247.532 110.955 225.57 113.278C203.697 115.624 184.166 125.136 171.145 131.476C158.124 137.817 81.3802 185.752 78.014 187.788C74.6479 189.823 60.7265 195.942 67.498 203.34C67.498 203.34 28.5678 221.822 25.5513 234.066C23.555 242.168 23.5811 249.813 32.5967 255.854C41.6122 261.895 60.9611 264.753 60.9611 264.753C60.9611 264.753 42.1471 286.854 39.4594 290.012C36.7716 293.169 40.3857 297.879 44.8869 298.988C49.3882 300.097 68.5153 303.855 78.8617 304.494C89.2081 305.134 118.682 309.531 127.006 310.627C135.33 311.723 174.249 316.537 174.249 316.537C168.443 328.475 164.751 366.716 167.699 374.127C170.648 381.538 179.168 374.088 184.113 373.397C189.058 372.705 200.304 373.566 206.606 375.119C212.908 376.672 233.183 387.396 242.642 391.637C252.101 395.877 269.441 403.014 276.421 405.689C283.401 408.363 294.87 408.324 300.037 406.732C305.203 405.141 317.311 394.755 317.311 394.755C317.311 394.755 330.371 399.883 333.516 398.748C336.66 397.613 348.99 386.327 348.99 386.327C348.99 386.327 393.859 421.254 400.395 425.729C406.932 430.205 429.021 445.196 439.132 442.913C449.244 440.63 477.034 413.1 485.306 398.905C493.578 384.71 517.011 332.234 517.011 332.234L423.516 83.8422Z" fill="#0056FF" stroke="#003DB3" stroke-width="3" stroke-miterlimit="10" stroke-linecap="round" stroke-linejoin="round"></path><path d="M191.209 278.7C191.209 278.7 177.575 303.033 174.248 316.537" stroke="#003DB3" stroke-width="3" stroke-miterlimit="10" stroke-linecap="round" stroke-linejoin="round"></path><path d="M317.31 394.755L325.608 388.206" stroke="#003DB3" stroke-width="3" stroke-miterlimit="10" stroke-linecap="round" stroke-linejoin="round"></path><path d="M99.594 185.465C99.594 185.465 85.4509 192.485 80.9626 195.198C76.4744 197.912 67.498 203.34 67.498 203.34" stroke="#003DB3" stroke-width="3" stroke-miterlimit="10" stroke-linecap="round" stroke-linejoin="round"></path><path d="M60.961 264.753C60.961 264.753 103.038 272.256 122.387 275.113C141.736 277.97 187.362 284.246 187.362 284.246" stroke="#003DB3" stroke-width="3" stroke-miterlimit="10" stroke-linecap="round" stroke-linejoin="round"></path><path d="M333.514 398.748C337.546 394.012 320.193 383.052 316.814 381.265C313.434 379.478 285.057 366.756 275.376 363.416C265.695 360.076 254.631 346.846 246.818 337.473C239.006 328.1 201.869 305.2 201.869 305.2L221.662 293.461" stroke="#003DB3" stroke-width="3" stroke-miterlimit="10" stroke-linecap="round" stroke-linejoin="round"></path><path d="M439.132 442.913C439.132 442.913 444.52 440.421 444.494 432.775C444.468 425.129 434.944 401.775 399.795 381.656C379.629 370.099 347.111 362.946 329.08 350.865C312.762 339.969 263.674 294.644 247.431 279.183C231.187 263.722 173.023 220.745 160.394 209.994C147.764 199.243 124.344 189.653 117.142 187.879C109.94 186.104 89.0128 181.903 78.014 187.787" stroke="#003DB3" stroke-width="3" stroke-miterlimit="10" stroke-linecap="round" stroke-linejoin="round"></path><path d="M348.99 386.327C348.99 386.327 332.315 376.489 320.821 368.883C309.326 361.276 298.08 360.415 285.228 350.565C272.377 340.714 251.828 315.598 238.298 304.625C224.768 293.653 206.071 284.272 191.211 278.7C176.35 273.129 139.414 256.39 120.952 249.931C102.49 243.473 68.0589 235.945 55.6772 231.939C43.2954 227.934 31.814 224.15 25.5513 234.066" stroke="#003DB3" stroke-width="3" stroke-miterlimit="10" stroke-linecap="round" stroke-linejoin="round"></path><path d="M229.165 264.179C229.165 264.179 191.537 242.495 139.309 225.807C103.02 214.193 79.453 207.527 59.8653 207.189" stroke="#003DB3" stroke-width="3" stroke-miterlimit="10" stroke-linecap="round" stroke-linejoin="round"></path></svg> 