<?xml version="1.0" encoding="UTF-8"?> <svg xmlns="http://www.w3.org/2000/svg" width="652" height="605" viewBox="0 0 652 605" fill="none"><path d="M637.336 425.036C637.336 361.81 637.674 235.133 637.674 235.133C581.097 176.753 414.186 134.941 326.278 134.941C231.946 134.941 72.5857 171.231 15.5584 236.26C15.5584 236.26 15.333 366.656 15.333 425.036C15.333 513.507 154.52 603.331 326.391 603.331C483.272 603.331 637.336 505.618 637.336 425.036Z" fill="#A3C4FF" stroke="#0056FF" stroke-width="3" stroke-miterlimit="10" stroke-linecap="round" stroke-linejoin="round"></path><path d="M487.051 225.484C487.051 162.258 487.389 35.5808 487.389 35.5808C487.389 35.5808 349.912 23.5727 292.885 88.6018L292.659 277.378C292.659 277.378 487.051 306.066 487.051 225.484Z" fill="#7AA3FF" stroke="#0056FF" stroke-width="3" stroke-miterlimit="10" stroke-linecap="round" stroke-linejoin="round"></path><path d="M281.411 288.163L487.132 76.679V130.231L281.411 346.564V288.163Z" fill="#6BA3FF" stroke="#0056FF" stroke-width="3" stroke-miterlimit="10" stroke-linecap="round" stroke-linejoin="round"></path><path d="M447.663 108.958C447.663 111.735 448.775 113.123 449.888 114.234" stroke="#0056FF" stroke-width="3" stroke-linecap="round" stroke-linejoin="round"></path><path d="M419.582 153.165C419.636 155.148 419.141 156.235 418.337 156.837" stroke="#0056FF" stroke-width="3" stroke-linecap="round" stroke-linejoin="round"></path><path d="M476.029 128.238C476.029 129.95 477.134 131.045 477.134 131.045" stroke="#0056FF" stroke-width="3" stroke-linecap="round" stroke-linejoin="round"></path><path d="M378.734 166.727C378.734 165.015 377.629 163.919 377.629 163.919" stroke="#0056FF" stroke-width="3" stroke-linecap="round" stroke-linejoin="round"></path><path d="M423.452 176.244C423.452 177.224 423.699 177.71 424.186 177.956" stroke="#0056FF" stroke-width="3" stroke-linecap="round" stroke-linejoin="round"></path><path d="M566.181 159.42C566.181 161.001 565.493 161.687 564.504 162.081" stroke="#0056FF" stroke-width="3" stroke-linecap="round" stroke-linejoin="round"></path><path d="M476.574 158.467C476.721 160.634 474.551 163.226 474.551 163.226" stroke="#0056FF" stroke-width="3" stroke-linecap="round" stroke-linejoin="round"></path><path d="M476.945 95.5891V97.4325" stroke="#0056FF" stroke-width="3" stroke-linecap="round" stroke-linejoin="round"></path><path d="M425.796 114.421V112.577" stroke="#0056FF" stroke-width="3" stroke-linecap="round" stroke-linejoin="round"></path><path d="M308.062 234.867C308.062 234.867 636.174 207.145 636.858 208.828C640.128 216.875 643.269 231.211 645.564 249.783C647.818 267.815 646.803 295.427 645.564 312.896C644.437 328.675 645.564 351.215 645.564 362.485C645.564 373.755 651.424 387.167 650.072 399.677C648.945 409.82 637.674 418.949 637.674 418.949L636.66 381.87L636.435 359.217C635.308 365.979 631.927 376.122 626.292 378.376C626.292 381.757 633.054 398.663 619.529 396.409C613.894 395.507 616.148 384.011 615.021 378.376C613.894 372.741 609.386 373.868 606.005 377.249C600.37 382.884 597.665 394.943 595.862 408.806C593.608 425.711 593.608 457.268 593.608 465.157C593.608 473.046 593.608 505.73 593.608 505.73C593.608 505.73 594.735 520.381 590.227 521.508C585.719 522.635 576.703 522.635 576.703 518.127C576.703 513.619 578.957 498.967 578.957 484.316C578.957 469.665 578.957 453.887 578.957 444.87C578.957 435.854 578.957 423.457 573.322 420.076C567.686 416.695 558.67 420.076 554.162 422.33C549.654 424.584 535.003 435.854 529.368 444.87C523.733 453.887 514.716 471.919 513.589 476.427C512.462 480.935 507.954 501.221 506.827 507.984C505.7 514.746 504.573 522.635 504.573 527.143C504.573 531.651 509.081 539.54 507.954 545.175C506.827 550.81 501.192 553.064 497.811 553.064C493.303 553.064 490.486 549.683 489.922 546.302C488.795 539.54 492.063 533.792 493.303 524.889C494.43 517 493.19 489.951 492.176 483.189C491.049 475.3 489.922 462.903 483.16 458.395C476.398 453.887 468.509 457.268 462.874 460.649C456.675 464.368 449.349 471.919 444.841 479.808C440.333 487.697 438.079 500.094 439.206 506.857C439.995 511.252 443.714 519.254 438.079 523.762C432.444 528.27 426.809 526.016 424.555 520.381C422.639 515.647 425.682 510.238 425.682 503.475C425.682 496.713 425.682 492.205 422.301 485.443C418.92 478.681 414.412 475.3 411.031 474.173C407.65 473.046 399.76 470.792 388.49 475.3C377.22 479.808 370.458 484.316 363.696 493.332C356.032 503.588 353.553 514.746 352.426 524.889C351.299 535.032 352.426 549.683 353.553 555.318C354.68 560.954 357.61 568.617 354.68 574.478C352.426 578.986 344.536 581.24 338.901 580.113C333.266 578.986 332.139 572.224 332.139 567.716C332.139 563.208 335.971 555.318 336.647 550.81C337.774 542.921 340.254 534.469 336.647 523.762C318.615 469.665 269.702 467.749 250.994 478.681C237.469 486.57 239.723 498.742 239.723 507.984C239.723 513.619 235.215 521.508 225.072 519.254C215.154 517 212.675 507.984 213.802 500.094C215.38 488.937 212.675 482.062 208.167 473.046C199.714 456.141 168.721 442.616 157.451 457.268C148.886 468.425 152.943 473.046 145.054 477.554C137.615 481.837 128.148 478.681 127.021 469.665C126.12 462.114 127.021 458.395 124.767 451.633C121.499 441.827 116.878 432.473 106.735 433.6C94.2251 434.953 98.8459 442.616 93.2108 455.014C89.9425 462.227 80.8136 462.903 80.8136 469.665C80.8136 476.427 78.4468 481.611 72.9244 483.189C65.0353 485.443 61.6542 478.681 60.5272 474.173C59.4002 469.665 61.6542 457.268 61.6542 457.268C61.6542 457.268 55.1175 456.366 53.7651 449.379C52.6381 443.743 52.9762 440.137 56.0191 432.473C60.5272 421.203 57.4843 405.312 56.0191 398.663C53.7651 388.519 50.7221 376.686 45.8759 365.979C40.2408 353.582 33.4787 344.566 27.8436 337.803C23.2228 332.281 14.8829 324.054 14.8829 324.054V407.904C14.8829 407.904 8.68427 409.933 5.30321 405.425C1.92214 400.917 0.795124 395.282 1.92214 388.519C3.04917 381.757 6.43023 377.249 6.43023 372.741C6.43023 356.963 3.04917 318.644 3.04917 293.85C3.04917 280.325 6.88103 244.148 8.68427 232.991C10.9383 219.466 19.9545 192.418 24.4626 182.275" fill="#D6E6FF" stroke="#0056FF" stroke-width="3" stroke-miterlimit="10" stroke-linecap="round" stroke-linejoin="round"></path><path d="M67.4017 400.804C67.4017 400.804 64.0206 443.631 61.7666 457.155" stroke="#0056FF" stroke-width="3" stroke-miterlimit="10" stroke-linecap="round" stroke-linejoin="round"></path><path d="M626.406 379.392C625.279 372.63 622.574 361.472 624.49 347.61" stroke="#0056FF" stroke-width="3" stroke-miterlimit="10" stroke-linecap="round" stroke-linejoin="round"></path><path d="M636.547 360.231C636.547 360.231 637.9 350.989 637.9 346.481C637.9 341.973 635.42 327.547 636.547 316.277" stroke="#0056FF" stroke-width="3" stroke-miterlimit="10" stroke-linecap="round" stroke-linejoin="round"></path><path d="M76.419 437.997C76.419 437.997 75.2919 447.013 77.546 454.902C79.8 462.791 80.927 468.426 80.927 468.426" stroke="#0056FF" stroke-width="3" stroke-miterlimit="10" stroke-linecap="round" stroke-linejoin="round"></path><path d="M327.181 469.89C498.973 469.89 638.238 365.037 638.238 235.695C638.238 204.794 630.289 175.291 615.847 148.281L327.181 204.174L487.42 35.6853C482.104 31.928 466.55 26.2654 466.55 26.2654C424.626 10.4198 377.287 1.5 327.181 1.5C155.388 1.5 16.123 106.353 16.123 235.695C16.123 293.908 44.3336 347.161 91.0234 388.127C94.2469 390.955 97.5586 393.725 100.955 396.434C104.115 398.953 107.348 401.42 110.652 403.833C166.651 444.72 243.012 469.89 327.181 469.89Z" fill="#D6E6FF"></path><path d="M638.238 235.695C638.238 279.459 622.295 320.419 594.542 355.462M327.181 1.5C155.388 1.5 16.123 106.353 16.123 235.695C16.123 293.908 44.3336 347.161 91.0234 388.127M243.062 461.226C192.563 450.571 147.257 430.56 110.652 403.833M257.767 464.037C280.087 467.867 303.32 469.89 327.181 469.89C435.603 469.89 531.069 428.125 586.746 364.799" stroke="#0056FF" stroke-width="3" stroke-miterlimit="10" stroke-linecap="round" stroke-linejoin="round"></path><path d="M638.238 235.695C638.238 204.794 630.289 175.291 615.847 148.281L327.181 204.174L487.42 35.6853C482.104 31.928 466.55 26.2654 466.55 26.2654C424.626 10.4198 377.287 1.5 327.181 1.5" stroke="#0056FF" stroke-width="3" stroke-miterlimit="10" stroke-linecap="round" stroke-linejoin="round"></path><path d="M452.96 63.1357C455.862 63.1357 470.971 60.0928 475.769 49.0827C481.353 42.9089 487.446 45.2359 487.446 51.3877C487.446 59.026 487.446 66.32 487.446 81.5965C489.675 82.9643 492.127 82.9674 493.859 81.5965C498.712 77.7559 492.752 69.2196 492.752 63.1358C492.752 51.3877 493.766 42.1394 487.446 35.4643C482.274 30.0017 463.686 23.6561 458.714 24.6288" fill="#D6E6FF"></path><path d="M452.96 63.1357C455.862 63.1357 470.971 60.0928 475.769 49.0827C481.353 42.9089 487.446 45.2359 487.446 51.3877C487.446 59.026 487.446 66.32 487.446 81.5965C489.675 82.9643 492.127 82.9674 493.859 81.5965C498.712 77.7559 492.752 69.2196 492.752 63.1358C492.752 51.3877 493.766 42.1394 487.446 35.4643C482.274 30.0017 463.686 23.6561 458.714 24.6288" stroke="#0056FF" stroke-width="3" stroke-linecap="round" stroke-linejoin="round"></path><path d="M452.96 63.1357C455.861 63.1357 470.971 60.0927 475.769 49.0827C477.189 45.8225 477.827 42.4877 477.827 39.5131" stroke="#0056FF" stroke-width="3" stroke-linecap="round" stroke-linejoin="round"></path><path d="M417.445 93.4206C417.445 93.4206 431.065 95.4729 444.037 86.8654C457.01 78.2579 465.714 68.4248 462.15 51.3522" fill="#D6E6FF"></path><path d="M417.445 93.4206C417.445 93.4206 431.065 95.4729 444.037 86.8654C457.01 78.2579 465.714 68.4248 462.15 51.3522" stroke="#0056FF" stroke-width="3" stroke-linecap="round" stroke-linejoin="round"></path><path d="M374.923 203.027C374.923 203.027 366.409 197.064 351.198 197.144C335.988 197.223 323.054 199.489 314.166 210.066" fill="#D6E6FF"></path><path d="M374.923 203.027C374.923 203.027 366.409 197.064 351.198 197.144C335.988 197.223 323.054 199.489 314.166 210.066" stroke="#0056FF" stroke-width="3" stroke-linecap="round" stroke-linejoin="round"></path><path d="M619.833 152.491C619.833 152.491 609.257 141.708 593.536 141.072C577.815 140.436 565.097 143.71 559.023 161.615" fill="#D6E6FF"></path><path d="M619.833 152.491C619.833 152.491 609.257 141.708 593.536 141.072C577.815 140.436 565.097 143.71 559.023 161.615" stroke="#0056FF" stroke-width="3" stroke-linecap="round" stroke-linejoin="round"></path><path d="M565.548 154C565.548 154 559.465 157.207 544.04 157.625C528.615 158.043 516.024 163.642 509 178.166" fill="#D6E6FF"></path><path d="M565.548 154C565.548 154 559.465 157.207 544.04 157.625C528.615 158.043 516.024 163.642 509 178.166" stroke="#0056FF" stroke-width="3" stroke-linecap="round" stroke-linejoin="round"></path></svg> 