<?xml version="1.0" encoding="UTF-8"?> <svg xmlns="http://www.w3.org/2000/svg" width="778" height="591" viewBox="0 0 778 591" fill="none"><path d="M382.807 563.458C179.408 563.458 13.2565 443.5 2.12425 292.434C1.70809 297.74 1.5 303.15 1.5 308.56C1.5 454.775 172.23 588.673 382.807 588.673C593.384 588.673 764.113 448.744 764.113 308.56C764.113 303.15 763.905 297.74 763.489 292.434C752.461 443.5 586.205 563.458 382.807 563.458Z" fill="#4D8AFF" stroke="#0056FF" stroke-width="3" stroke-miterlimit="10" stroke-linecap="round" stroke-linejoin="round"></path><path d="M382.807 575.801C593.396 575.801 764.113 447.239 764.113 288.65C764.113 130.062 593.396 1.5 382.807 1.5C172.217 1.5 1.5 130.062 1.5 288.65C1.5 447.239 172.217 575.801 382.807 575.801Z" fill="#6BA3FF" stroke="#0056FF" stroke-width="3" stroke-miterlimit="10" stroke-linecap="round" stroke-linejoin="round"></path><path d="M720.937 219.984C727.387 214.99 742.785 212.701 742.785 212.701C742.785 212.701 741.121 230.596 733.422 236.63C724.058 243.913 708.452 241.832 708.452 241.832C708.452 241.832 711.573 227.267 720.937 219.984Z" fill="#6BA3FF" stroke="#0056FF" stroke-width="3" stroke-miterlimit="10" stroke-linecap="round" stroke-linejoin="round"></path><path d="M699.089 163.802C699.089 163.802 692.846 153.398 695.967 136.752C699.089 120.106 706.371 108.661 708.452 94.0957C710.533 79.5301 703.25 64.9645 700.129 60.8029C697.008 56.6413 685.563 49.3585 681.402 52.4797C677.24 55.6009 679.321 61.8433 680.361 63.9241C681.402 66.0049 694.927 66.0049 694.927 66.0049C694.927 66.0049 702.21 79.5301 701.169 94.0957C700.649 101.691 691.806 120.106 688.685 135.712C686.188 148.092 688.685 166.924 688.685 166.924L699.089 163.802Z" fill="#2968FF" stroke="#0047CC" stroke-width="3" stroke-miterlimit="10" stroke-linecap="round" stroke-linejoin="round"></path><path d="M711.573 222.065C711.573 222.065 721.144 214.574 723.017 204.378C725.098 192.934 724.682 183.882 717.815 173.166C710.532 161.722 699.504 157.664 686.603 159.641C673.078 161.722 662.05 165.051 655.391 179.409C648.108 195.015 653.414 210.725 659.553 218.944C665.795 227.267 678.28 231.429 686.603 230.388C694.926 229.348 707.411 227.267 711.573 222.065Z" fill="#2968FF" stroke="#0047CC" stroke-width="3" stroke-miterlimit="10" stroke-linecap="round" stroke-linejoin="round"></path><path d="M709.491 254.317C709.491 254.317 707.411 266.802 715.734 275.125C724.057 283.448 740.703 285.529 740.703 285.529C740.703 285.529 737.582 267.842 730.299 260.559C721.976 252.236 709.491 254.317 709.491 254.317Z" fill="#6BA3FF" stroke="#0056FF" stroke-width="3" stroke-miterlimit="10" stroke-linecap="round" stroke-linejoin="round"></path><path d="M740.703 285.527L709.491 254.315" stroke="#0056FF" stroke-width="3" stroke-miterlimit="10" stroke-linecap="round" stroke-linejoin="round"></path><path d="M105.599 117.178C105.599 117.178 108.48 99.8873 96.9536 88.3605C85.4268 76.8336 62.3731 73.9519 62.3731 73.9519C62.3731 73.9519 66.6956 98.4465 76.7816 108.532C88.3085 120.059 105.599 117.178 105.599 117.178Z" fill="#6BA3FF" stroke="#0056FF" stroke-width="3" stroke-miterlimit="10" stroke-linecap="round" stroke-linejoin="round"></path><path d="M62.371 73.9529L105.597 117.179" stroke="#0056FF" stroke-width="3" stroke-miterlimit="10" stroke-linecap="round" stroke-linejoin="round"></path><path d="M112.384 130.783C112.384 130.783 108.256 147.819 93.1328 153.904C78.0095 159.988 55.6717 153.601 55.6717 153.601C55.6717 153.601 69.2518 132.762 82.4847 127.438C97.608 121.353 112.384 130.783 112.384 130.783Z" fill="#6BA3FF" stroke="#0056FF" stroke-width="3" stroke-miterlimit="10" stroke-linecap="round" stroke-linejoin="round"></path><path d="M55.6704 153.599L112.383 130.782" stroke="#0056FF" stroke-width="3" stroke-miterlimit="10" stroke-linecap="round" stroke-linejoin="round"></path><path d="M717.816 239.752C717.816 239.752 734.358 239.023 747.988 243.913C759.432 248.075 767.755 254.317 776.078 267.842C766.715 272.004 751.213 269.715 743.826 265.762C726.139 256.398 717.816 239.752 717.816 239.752Z" fill="#6BA3FF" stroke="#0056FF" stroke-width="3" stroke-miterlimit="10" stroke-linecap="round" stroke-linejoin="round"></path><path d="M776.078 267.842C776.078 267.842 755.894 255.253 746.947 251.195C735.502 245.993 718.856 242.872 718.856 242.872" stroke="#0056FF" stroke-width="3" stroke-miterlimit="10" stroke-linecap="round" stroke-linejoin="round"></path><path d="M111.9 134.626C111.9 134.626 88.99 135.635 70.1148 128.863C54.2654 123.1 42.7385 114.454 31.2117 95.7233C44.1794 89.9599 65.6481 93.1298 75.8782 98.605C100.373 111.573 111.9 134.626 111.9 134.626Z" fill="#6BA3FF" stroke="#0056FF" stroke-width="3" stroke-miterlimit="10" stroke-linecap="round" stroke-linejoin="round"></path><path d="M31.2136 95.723C31.2136 95.723 59.1662 113.157 71.5576 118.777C87.407 125.981 110.461 130.304 110.461 130.304" stroke="#0056FF" stroke-width="3" stroke-miterlimit="10" stroke-linecap="round" stroke-linejoin="round"></path><path d="M695.967 278.247C712.917 278.247 726.659 264.506 726.659 247.556C726.659 230.605 712.917 216.864 695.967 216.864C679.016 216.864 665.275 230.605 665.275 247.556C665.275 264.506 679.016 278.247 695.967 278.247Z" fill="#4D8AFF" stroke="#0056FF" stroke-width="3" stroke-miterlimit="10" stroke-linecap="round" stroke-linejoin="round"></path><path d="M715.005 240.585C717.294 238.192 718.751 234.655 718.751 231.118C716.254 230.493 711.156 229.141 708.034 232.678C708.034 232.678 707.722 229.453 704.393 227.892C702.52 227.06 700.231 226.748 696.694 225.708C696.798 227.372 697.526 229.245 696.382 231.742C695.238 234.135 698.463 238.296 698.463 238.296C698.463 238.296 694.197 236.112 691.076 239.649C688.787 242.25 689.723 244.747 687.435 247.348C687.435 247.348 692.428 247.036 695.862 248.492C699.295 249.949 701.688 248.908 702.416 246.412C702.416 246.412 702.937 250.261 705.225 251.405C708.243 252.862 709.907 250.261 713.445 252.55" stroke="#0056FF" stroke-width="3" stroke-miterlimit="10" stroke-linecap="round" stroke-linejoin="round"></path><path d="M703.143 238.816C703.143 238.816 707.513 232.782 710.738 239.128" stroke="#0056FF" stroke-width="3" stroke-miterlimit="10" stroke-linecap="round" stroke-linejoin="round"></path><path d="M692.563 360.303C679.796 357.752 668.126 364.588 666.499 375.571C664.872 386.554 673.904 397.526 686.671 400.077C699.439 402.628 711.109 395.792 712.736 384.809C714.363 373.825 705.331 362.854 692.563 360.303Z" fill="#4D8AFF" stroke="#0056FF" stroke-width="3" stroke-linecap="round" stroke-linejoin="round"></path><path d="M685.31 371.861C686.437 372.932 692.931 375.901 694.915 374.587Z" fill="white"></path><path d="M685.31 371.861C686.437 372.932 692.931 375.901 694.915 374.587" stroke="#0056FF" stroke-width="3" stroke-miterlimit="10" stroke-linecap="round" stroke-linejoin="round"></path></svg> 