<?xml version="1.0" encoding="UTF-8"?> <svg xmlns="http://www.w3.org/2000/svg" width="299" height="313" viewBox="0 0 299 313" fill="none"><path d="M174.955 199.428L130.501 253.828C123.926 261.019 114.469 265.586 106.327 268.714C79.1461 278.225 44.255 270.174 26.152 266.867L72.4259 222.031C82.1348 222.965 105.75 226.019 115.333 224.203C135.939 221.883 157.609 212.624 174.955 199.428Z" fill="#2968FF" stroke="#0047CC" stroke-width="3" stroke-linecap="round" stroke-linejoin="round"></path><path d="M248.129 78.943C248.129 78.943 222.822 69.0751 206.034 64.3304C165.633 56.5313 138.399 94.9839 138.399 94.9839L180.805 45.2938C192.639 32.3502 220.678 22.3193 237.465 27.064C247.3 30.7485 255.694 33.1208 264.214 38.2435L248.129 78.943Z" fill="#2968FF" stroke="#0047CC" stroke-width="3" stroke-linecap="round" stroke-linejoin="round"></path><path d="M136.244 246.972L173.634 200.868C173.634 200.868 193.736 187.546 158.321 107.858C148.033 78.9717 167.825 60.5138 167.825 60.5138L129.068 102.305C117.233 115.249 115.361 134.628 122.944 149.441C156.161 211.314 136.244 246.972 136.244 246.972Z" fill="#5C8DFF" stroke="#0047CC" stroke-width="3" stroke-linecap="round" stroke-linejoin="round"></path></svg> 