<?xml version="1.0" encoding="UTF-8"?> <svg xmlns="http://www.w3.org/2000/svg" width="31" height="167" viewBox="0 0 31 167" fill="none"><path d="M8.56812 144.499V159.535V161.218C8.56812 162.34 11.4856 165.146 15.0764 165.146C18.6672 165.146 21.5847 162.34 21.5847 161.218V159.535V144.499" fill="#E6F0FF"></path><path d="M8.56812 144.499V159.535V161.218C8.56812 162.34 11.4856 165.146 15.0764 165.146C18.6672 165.146 21.5847 162.34 21.5847 161.218V159.535V144.499" stroke="#0047CC" stroke-width="3" stroke-linecap="round" stroke-linejoin="round"></path><path d="M15.0776 113.865C7.55942 113.865 1.5 116.222 1.5 118.578V122.169V126.658V143.602V148.09V151.681C1.5 154.037 7.55942 158.077 15.0776 158.077C22.5958 158.077 28.6552 154.037 28.6552 151.681V148.09V143.602V126.658V122.169V118.578C28.6552 116.222 22.5958 113.865 15.0776 113.865Z" fill="#E6F0FF" stroke="#0047CC" stroke-width="3" stroke-linecap="round" stroke-linejoin="round"></path><path d="M4.4165 44.2531V119.138V119.587C4.4165 124.076 9.12941 125.647 15.0766 125.647C21.0239 125.647 25.7368 123.964 25.7368 119.587V119.138V44.2531" fill="#CCE0FF"></path><path d="M4.4165 44.2531V119.138V119.587C4.4165 124.076 9.12941 125.647 15.0766 125.647C21.0239 125.647 25.7368 123.964 25.7368 119.587V119.138V44.2531" stroke="#0047CC" stroke-width="3" stroke-linecap="round" stroke-linejoin="round"></path><path d="M18.4436 30.6751C18.4436 27.0843 18.4436 5.42742 18.4436 5.42742C18.4436 4.52972 17.8826 1.5 14.9651 1.5C11.7109 1.5 11.3743 4.52972 11.3743 5.42742C11.3743 5.42742 11.3743 27.421 11.3743 30.6751C11.3743 33.9293 4.5293 39.8765 4.5293 44.1405C4.5293 46.7214 11.2621 48.4046 14.9651 48.4046C18.6681 48.4046 25.7374 46.7214 25.7374 44.1405C25.7374 39.091 18.4436 34.2659 18.4436 30.6751Z" fill="#E6F0FF" stroke="#0047CC" stroke-width="3" stroke-linecap="round" stroke-linejoin="round"></path><path d="M18.4446 26.1866C18.4446 22.5958 18.4446 5.42742 18.4446 5.42742C18.4446 4.52972 17.8836 1.5 14.966 1.5C11.7119 1.5 11.3752 4.52972 11.3752 5.42742C11.3752 5.42742 11.3752 22.9325 11.3752 26.1866C11.3752 29.4408 18.4446 29.7774 18.4446 26.1866Z" fill="#E6F0FF" stroke="#0047CC" stroke-width="3" stroke-linecap="round" stroke-linejoin="round"></path></svg> 