<?xml version="1.0" encoding="UTF-8"?> <svg xmlns="http://www.w3.org/2000/svg" width="31" height="167" viewBox="0 0 31 167" fill="none"><path d="M8.56909 144.5V159.537V161.22C8.56909 162.342 11.4866 165.147 15.0774 165.147C18.6682 165.147 21.5857 162.342 21.5857 161.22V159.537V144.5" fill="#E6F0FF"></path><path d="M8.56909 144.5V159.537V161.22C8.56909 162.342 11.4866 165.147 15.0774 165.147C18.6682 165.147 21.5857 162.342 21.5857 161.22V159.537V144.5" stroke="#0047CC" stroke-width="3" stroke-linecap="round" stroke-linejoin="round"></path><path d="M15.0776 113.865C7.55942 113.865 1.5 116.222 1.5 118.578V122.169V126.658V143.602V148.09V151.681C1.5 154.037 7.55942 158.077 15.0776 158.077C22.5958 158.077 28.6553 154.037 28.6553 151.681V148.09V143.602V126.658V122.169V118.578C28.6553 116.222 22.5958 113.865 15.0776 113.865Z" fill="#E6F0FF" stroke="#0047CC" stroke-width="3" stroke-linecap="round" stroke-linejoin="round"></path><path d="M4.41724 44.1412V119.027V119.475C4.41724 123.964 9.13014 125.535 15.0774 125.535C21.0246 125.535 25.7375 123.852 25.7375 119.475V119.027V44.1412" fill="#CCE0FF"></path><path d="M4.41724 44.1412V119.027V119.475C4.41724 123.964 9.13014 125.535 15.0774 125.535C21.0246 125.535 25.7375 123.852 25.7375 119.475V119.027V44.1412" stroke="#0047CC" stroke-width="3" stroke-linecap="round" stroke-linejoin="round"></path><path d="M18.4445 30.6751C18.4445 27.0843 18.4445 5.42742 18.4445 5.42742C18.4445 4.52972 17.8835 1.5 14.966 1.5C11.7118 1.5 11.3752 4.52972 11.3752 5.42742C11.3752 5.42742 11.3752 27.421 11.3752 30.6751C11.3752 33.9293 4.53027 39.8765 4.53027 44.1405C4.53027 46.7214 11.263 48.4046 14.966 48.4046C18.669 48.4046 25.7383 46.7214 25.7383 44.1405C25.7383 38.9788 18.4445 34.1537 18.4445 30.6751Z" fill="#E6F0FF" stroke="#0047CC" stroke-width="3" stroke-linecap="round" stroke-linejoin="round"></path><path d="M18.4442 26.1866C18.4442 22.5958 18.4442 5.42742 18.4442 5.42742C18.4442 4.52972 17.8831 1.5 14.9656 1.5C11.7115 1.5 11.3748 4.52972 11.3748 5.42742C11.3748 5.42742 11.3748 22.9325 11.3748 26.1866C11.2626 29.4408 18.4442 29.6652 18.4442 26.1866Z" fill="#E6F0FF" stroke="#0047CC" stroke-width="3" stroke-linecap="round" stroke-linejoin="round"></path></svg> 